SplineFontDB: 3.0
FontName: Goudy14
FullName: Goudy Oldstyle 14pt
FamilyName: Goudy14
Weight: Medium
Copyright: Copyright (c) 2009 Barry Schwartz\n\nPermission is hereby granted, free of charge, to any person obtaining a copy\nof this software and associated documentation files (the "Software"), to deal\nin the Software without restriction, including without limitation the rights\nto use, copy, modify, merge, publish, distribute, sublicense, and/or sell\ncopies of the Software, and to permit persons to whom the Software is\nfurnished to do so, subject to the following conditions:\n\nThe above copyright notice and this permission notice shall be included in\nall copies or substantial portions of the Software.\n\nTHE SOFTWARE IS PROVIDED "AS IS", WITHOUT WARRANTY OF ANY KIND, EXPRESS OR\nIMPLIED, INCLUDING BUT NOT LIMITED TO THE WARRANTIES OF MERCHANTABILITY,\nFITNESS FOR A PARTICULAR PURPOSE AND NONINFRINGEMENT. IN NO EVENT SHALL THE\nAUTHORS OR COPYRIGHT HOLDERS BE LIABLE FOR ANY CLAIM, DAMAGES OR OTHER\nLIABILITY, WHETHER IN AN ACTION OF CONTRACT, TORT OR OTHERWISE, ARISING FROM,\nOUT OF OR IN CONNECTION WITH THE SOFTWARE OR THE USE OR OTHER DEALINGS IN\nTHE SOFTWARE.\n
UComments: "2009-6-24: Created." 
Version: 001.001
ItalicAngle: 0
UnderlinePosition: -203
UnderlineWidth: 101
Ascent: 1591
Descent: 457
LayerCount: 3
Layer: 0 0 "Back"  1
Layer: 1 0 "Fore"  0
Layer: 2 0 "backup"  1
XUID: [1021 658 797806517 2347079]
FSType: 0
OS2Version: 0
OS2_WeightWidthSlopeOnly: 0
OS2_UseTypoMetrics: 1
CreationTime: 1245830276
ModificationTime: 1248123635
PfmFamily: 17
TTFWeight: 500
TTFWidth: 5
LineGap: 184
VLineGap: 0
OS2TypoAscent: 0
OS2TypoAOffset: 1
OS2TypoDescent: 0
OS2TypoDOffset: 1
OS2TypoLinegap: 184
OS2WinAscent: 0
OS2WinAOffset: 1
OS2WinDescent: 0
OS2WinDOffset: 1
HheadAscent: 0
HheadAOffset: 1
HheadDescent: 0
HheadDOffset: 1
OS2Vendor: 'PfEd'

StartChar: h
Encoding: 104 104 0
Width: 1202
VWidth: 0
Flags: HW
PickledData: "(dp1
S'spacing_anchors_slanted'
p2
I00
s."
HStem: 0 62<368.515 509.938 1011.04 1160.14> 0 48<70.1715 144.547> 795 94<477.434 706.93> 1532 20G<316.5 341>
VStem: 188 138<89.0093 702.999 738.013 782> 835 148<77.9562 658.281>
AnchorPoint: "l;t" 0 1150 basechar 0
AnchorPoint: "top" 626 1480 basechar 0
AnchorPoint: "l;bl" 0 40 basechar 0
AnchorPoint: "l;x" 10 850 basechar 0
AnchorPoint: "l;hi" 0 1500 basechar 0
AnchorPoint: "l;o" 10 450 basechar 0
AnchorPoint: "r;bl" 1202 40 basechar 0
AnchorPoint: "r;x" 1182 850 basechar 0
AnchorPoint: "r;o" 1182 450 basechar 0
LayerCount: 3
Fore
SplineSet
41 1428 m 0x7c
 41 1466 126 1472 182 1496 c 24
 238 1520 304 1552 329 1552 c 0
 353 1552 356 1521 356 1506 c 0
 356 1478 343 1448 342 1379 c 0
 335 782 326 782 326 782 c 2
 326 756 333 738 345 738 c 0
 366 738 462 889 633 889 c 0
 843 889 983 770 983 485 c 2
 983 189 l 2
 983 159 993 76 1051 70 c 0
 1113 64 1161 50 1161 26 c 0
 1161 0 1129 -6 1097 -6 c 0
 1072 -6 968 4 926 4 c 0
 894 4 784 -2 768 -2 c 0
 741 -2 721 2 721 18 c 0
 721 86 831 8 831 147 c 0
 831 181 835 147 835 487 c 0
 835 655 717 795 581 795 c 0
 504 795 430 750 383 714 c 0
 334 676 326 634 326 335 c 2
 326 289 l 2
 326 191 331 94 407 62 c 0
 451 43 511 61 511 24 c 0
 511 12 502 0 489 0 c 0xbc
 487 0 282 10 271 10 c 0
 243 10 156 0 125 0 c 0
 68 0 71 7 70 20 c 0
 70 30 72 41 95 48 c 0
 178 72 188 123 188 205 c 2
 196 904 l 2
 196 944 197 973 197 1003 c 0
 197 1361 196 1405 110 1405 c 0
 80 1405 83 1406 76 1406 c 0
 53 1406 41 1415 41 1428 c 0x7c
EndSplineSet
AlternateSubs2: "'aalt' Access All Alternates lookup 0 subtable" h.sc
AlternateSubs2: "'aalt' Access All Alternates in Latin lookup 0 subtable" h.sc
Substitution2: "smcpLowercasetoSmallCapitalsinL subtable" h.sc
EndChar

StartChar: g
Encoding: 103 103 1
Width: 999
VWidth: 0
Flags: HW
PickledData: "(dp1
S'spacing_anchors_slanted'
p2
I00
s."
HStem: -423 54<315.457 628.097> -77 148<293.105 767.54> 261 46<405.301 576.167> 842 44<388.397 547.878> 921 20G<901 921.5>
VStem: 80 119<-297.932 -97.5034> 127 155<414.875 733.296> 160 90<51.5 231.587> 678 160<417.094 695.012> 790 125<-258.84 -18.4282>
AnchorPoint: "top" 484 940 basechar 0
AnchorPoint: "l;bl" 40 40 basechar 0
AnchorPoint: "l;o" 0 450 basechar 0
AnchorPoint: "l;lo" 20 -420 basechar 0
AnchorPoint: "r;bl" 999 40 basechar 0
AnchorPoint: "r;x" 999 850 basechar 0
AnchorPoint: "r;o" 989 450 basechar 0
AnchorPoint: "r;lo" 939 -420 basechar 0
LayerCount: 3
Fore
SplineSet
80 -199 m 0xfc40
 80 -74 228 -45 228 -24 c 0
 228 -11 160 6 160 97 c 0xf9
 160 237 267 279 267 299 c 0
 267 331 127 358 127 573 c 0xfa
 127 679 189 886 481 886 c 0
 662 886 711 805 740 805 c 0
 771 805 806 826 844 842 c 0
 897 865 884 941 918 941 c 0
 925 941 945 940 945 923 c 0
 945 852 918 767 899 738 c 0
 876 703 843 685 815 673 c 1
 815 673 838 612 838 572 c 0
 838 398 687 261 499 261 c 0
 406 261 374 278 343 278 c 0
 338 278 250 275 250 179 c 0xf980
 250 78 354 71 524 71 c 2
 619 71 l 2
 716 71 915 65 915 -109 c 0
 915 -143 914 -175 902 -204 c 0
 848 -338 671 -423 461 -423 c 0
 301 -423 80 -378 80 -199 c 0xfc40
199 -187 m 0xfc40
 199 -316 325 -369 461 -369 c 0
 619 -369 790 -297 790 -183 c 0
 790 -79 680 -77 563 -77 c 0
 557 -77 551 -77 545 -77 c 0
 437 -77 314 -49 292 -49 c 0
 274 -49 199 -101 199 -187 c 0xfc40
282 594 m 0xfa80
 282 430 370 307 488 307 c 0
 617 307 678 424 678 551 c 0
 678 693 603 842 464 842 c 0
 369 842 282 759 282 594 c 0xfa80
EndSplineSet
AlternateSubs2: "'aalt' Access All Alternates lookup 0 subtable" g.sc
AlternateSubs2: "'aalt' Access All Alternates in Latin lookup 0 subtable" g.sc
Substitution2: "smcpLowercasetoSmallCapitalsinL subtable" g.sc
EndChar

StartChar: f
Encoding: 102 102 2
Width: 706
VWidth: 0
Flags: HMW
PickledData: "(dp1
S'spacing_anchors_slanted'
p2
I00
s."
HStem: -12 50<424.355 537.924> 768 86<61.5231 220.884 365.153 608.618> 1403 126<536.617 743.137>
VStem: 221 144<76.6016 767.911 849.013 1142.65>
AnchorPoint: "l;bl" 0 40 basechar 0
AnchorPoint: "l;x" 0 850 basechar 0
AnchorPoint: "l;o" 0 450 basechar 0
AnchorPoint: "r;bl" 666 40 basechar 0
AnchorPoint: "r;x" 706 850 basechar 0
AnchorPoint: "r;k;hi" 856 1500 basechar 0
AnchorPoint: "r;o" 666 450 basechar 0
AnchorPoint: "l;hi" 120 1500 basechar 0
AnchorPoint: "l;t" 60 1150 basechar 0
AnchorPoint: "r;t" 706 1150 basechar 0
LayerCount: 3
Fore
SplineSet
60 788 m 0
 60 840 79 850 145 850 c 0
 157 850 172 849 188 849 c 0
 223 849 225 867 225 896 c 0
 225 1318 528 1529 675 1529 c 0
 739 1529 783 1506 783 1472 c 0
 783 1459 778 1440 771 1416 c 0
 759 1375 756 1349 723 1349 c 0
 698 1349 707 1403 578 1403 c 3
 405 1403 362 1138 362 937 c 0
 362 921 363 902 363 886 c 0
 363 864 367 847 388 847 c 0
 475 847 542 857 584 865 c 0
 602 869 613 885 626 885 c 0
 633 885 636 878 636 869 c 0
 636 835 620 809 609 790 c 0
 601 777 583 772 558 772 c 0
 462 772 526 770 398 770 c 0
 380 770 365 767 365 749 c 2
 365 630 l 2
 365 594 372 314 374 225 c 0
 376 147 378 38 504 38 c 0
 537 38 538 23 538 9 c 0
 538 1 537 -12 516 -12 c 0
 510 -12 360 -2 312 -2 c 0
 237 -2 240 -12 160 -12 c 0
 142 -12 129 -6 129 16 c 0
 129 46 230 33 230 158 c 0
 230 215 221 351 221 736 c 0
 221 767 212 768 186 768 c 0
 164 768 139 762 104 762 c 0
 62 762 60 775 60 788 c 0
EndSplineSet
AlternateSubs2: "'aalt' Access All Alternates lookup 0 subtable" f.sc
AlternateSubs2: "'aalt' Access All Alternates in Latin lookup 0 subtable" f.sc
Substitution2: "smcpLowercasetoSmallCapitalsinL subtable" f.sc
EndChar

StartChar: e
Encoding: 101 101 3
Width: 954
VWidth: 0
Flags: HW
PickledData: "(dp1
S'spacing_anchors_slanted'
p2
I00
s."
HStem: -38 125<426.703 707.732> 522 49<252.494 680.131> 833 52<372.869 554.039>
VStem: 80 160<291.779 620.769> 682 190<545 683.268>
AnchorPoint: "top" 476 940 basechar 0
AnchorPoint: "l;o" 0 450 basechar 0
AnchorPoint: "r;o" 954 450 basechar 0
AnchorPoint: "r;x" 924 850 basechar 0
LayerCount: 3
Fore
SplineSet
80 398 m 0
 80 664 246 885 495 885 c 0
 803 885 872 589 872 559 c 0
 872 531 846 522 789 522 c 2
 324 522 l 2
 294 522 274 523 262 523 c 0
 240 523 240 519 240 499 c 0
 240 227 416 87 585 87 c 0
 731 87 821 178 855 178 c 0
 866 178 874 168 874 159 c 0
 874 137 752 -38 512 -38 c 0
 293 -38 80 93 80 398 c 0
252 601 m 0
 252 582 256 571 279 571 c 0
 373 571 605 584 639 584 c 0
 678 584 682 590 682 608 c 0
 682 662 622 833 461 833 c 0
 314 833 252 672 252 601 c 0
EndSplineSet
AlternateSubs2: "'aalt' Access All Alternates lookup 0 subtable" e.sc
AlternateSubs2: "'aalt' Access All Alternates in Latin lookup 0 subtable" e.sc
Substitution2: "smcpLowercasetoSmallCapitalsinL subtable" e.sc
EndChar

StartChar: d
Encoding: 100 100 4
Width: 1157
VWidth: 0
Flags: HW
PickledData: "(dp1
S'spacing_anchors_slanted'
p2
I00
s."
HStem: -29 107<420.02 662.097> -8 80<977.853 1116.77> 837 61<396.366 636.027> 1532 20G<950.5 970.5>
VStem: 80 147<297.53 612.63> 813 144<151.087 738.882> 825 135<838.009 1382.36>
AnchorPoint: "right" 1182 1450 basechar 0
AnchorPoint: "l;o" 0 450 basechar 0
AnchorPoint: "r;bl" 1157 40 basechar 0
AnchorPoint: "r;x" 1137 850 basechar 0
AnchorPoint: "r;hi" 1137 1500 basechar 0
AnchorPoint: "r;o" 1137 450 basechar 0
AnchorPoint: "r;t" 1137 1150 basechar 0
LayerCount: 3
Fore
SplineSet
80 399 m 0xbc
 80 642 246 898 578 898 c 0
 671 898 782 838 810 838 c 0
 817 838 821 850 821 911 c 0
 821 1176 825 1101 825 1175 c 0
 825 1313 825 1404 717 1404 c 2
 695 1404 l 2
 653 1404 652 1406 652 1421 c 2
 652 1423 l 2
 652 1453 721 1448 883 1522 c 0
 907 1532 938 1552 963 1552 c 0
 978 1552 988 1542 988 1511 c 0
 988 1467 960 1239 960 1067 c 0xba
 960 698 957 466 957 319 c 0
 957 133 968 90 1028 72 c 0
 1061 62 1117 63 1117 29 c 0
 1117 18 1108 5 958 -8 c 0x7c
 899 -13 855 -29 830 -29 c 0
 815 -29 807 -24 807 -7 c 0
 807 12 801 32 801 69 c 0
 801 84 799 104 782 104 c 0
 759 104 679 -29 484 -29 c 0
 215 -29 80 179 80 399 c 0xbc
  Spiro
    80 399 o
    135.223 636.149 o
    301.555 822.77 o
    578 898 o
    673.165 882.471 o
    758.146 853.529 o
    810 838 o
    815.958 843.358 o
    819.706 864.995 o
    821 911 o
    822.035 1080.69 o
    823.965 1132.58 o
    825 1175 o
    821.012 1295.6 o
    792.952 1375.35 o
    717 1404 [
    695 1404 ]
    665.204 1405.07 o
    653.81 1409.93 o
    652 1421 [
    652 1423 ]
    675.84 1445.54 o
    751.214 1470.15 o
    883 1522 o
    908.825 1534.21 o
    936.509 1546.45 o
    963 1552 o
    976.137 1548.27 o
    984.858 1535.39 o
    988 1511 o
    980.753 1414.7 o
    967.247 1248.6 o
    960 1067 o
    959.224 742.024 o
    957.776 496.05 o
    957 319 o
    962.063 176.4 o
    982.957 102.656 o
    1028 72 o
    1065.7 63.9707 o
    1101.29 53.0213 o
    1117 29 o
    1109.13 17.4195 o
    1065.82 4.91315 o
    958 -8 o
    904.197 -15.6573 o
    861.148 -24.6743 o
    830 -29 o
    817.381 -27.0782 o
    809.624 -20.2495 o
    807 -7 o
    805.447 12.9045 o
    802.553 37.1015 o
    801 69 o
    799.855 84.7252 o
    794.473 98.2698 o
    782 104 o
    737.919 69.5776 o
    642.69 5.42239 o
    484 -29 o
    259.883 32.9572 o
    124.873 190.45 o
    0 0 z
  EndSpiro
227 495 m 0
 227 307 354 78 568 78 c 0
 686 78 810 146 810 240 c 0
 812 590 813 555 813 590 c 0xbc
 813 702 783 731 755 748 c 0
 690 787 584 837 511 837 c 0
 329 837 227 686 227 495 c 0
  Spiro
    227 495 o
    267.772 303.519 o
    384.633 144.211 o
    568 78 o
    683.078 99.0705 o
    773.55 156.294 o
    810 240 o
    811.665 478.375 o
    812.667 561.52 o
    813 590 o
    804.202 676.898 o
    782.456 724.403 o
    755 748 o
    679.158 788.368 o
    592.172 822.619 o
    511 837 o
    356.608 790.866 o
    260.12 668.404 o
    0 0 z
  EndSpiro
EndSplineSet
AlternateSubs2: "'aalt' Access All Alternates lookup 0 subtable" d.sc
AlternateSubs2: "'aalt' Access All Alternates in Latin lookup 0 subtable" d.sc
Substitution2: "smcpLowercasetoSmallCapitalsinL subtable" d.sc
EndChar

StartChar: c
Encoding: 99 99 5
Width: 925
VWidth: 0
Flags: HW
PickledData: "(dp1
S'spacing_anchors_slanted'
p2
I00
s."
HStem: -43 107<423.212 714.635> 799 79<366.668 594.882>
VStem: 80 153<274.004 595.392>
AnchorPoint: "cedilla" 516 -162 basechar 0
AnchorPoint: "top" 514 940 basechar 0
AnchorPoint: "l;o" 0 450 basechar 0
AnchorPoint: "r;o" 925 450 basechar 0
LayerCount: 3
Fore
SplineSet
80 394 m 0
 80 643 266 878 556 878 c 0
 640 878 790 851 794 812 c 0
 796 787 799 749 799 714 c 0
 799 666 794 624 777 624 c 0
 749 624 742 662 708 690 c 0
 660 730 545 799 437 799 c 0
 396 799 233 742 233 458 c 0
 233 250 386 64 584 64 c 0
 747 64 828 170 855 170 c 0
 868 170 876 160 876 149 c 0
 876 131 769 -43 504 -43 c 0
 251 -43 80 119 80 394 c 0
EndSplineSet
AlternateSubs2: "'aalt' Access All Alternates lookup 0 subtable" c.sc
AlternateSubs2: "'aalt' Access All Alternates in Latin lookup 0 subtable" c.sc
Substitution2: "smcpLowercasetoSmallCapitalsinL subtable" c.sc
EndChar

StartChar: b
Encoding: 98 98 6
Width: 1121
VWidth: 0
Flags: HW
PickledData: "(dp1
S'spacing_anchors_slanted'
p2
I00
s."
HStem: -23 74<466.269 757.683> 795 110<433.439 711.759> 1529 20G<279 295.5>
VStem: 152 165<176.065 657.406> 170 147<217.52 719.547 769.014 1374.11> 907 134<277.76 579.943>
AnchorPoint: "l;bl" 20 40 basechar 0
AnchorPoint: "l;x" 20 850 basechar 0
AnchorPoint: "l;k;hi" -35 1500 basechar 0
AnchorPoint: "l;o" 20 450 basechar 0
AnchorPoint: "r;o" 1121 450 basechar 0
AnchorPoint: "l;t" 0 1150 basechar 0
LayerCount: 3
Fore
SplineSet
25 1415 m 0xec
 25 1458 118 1478 157 1494 c 0
 201 1512 269 1549 289 1549 c 0
 302 1549 320 1534 320 1511 c 0
 320 1437 317 1522 317 842 c 0xec
 317 788 322 769 332 769 c 0
 364 769 366 905 656 905 c 0
 914 905 1041 689 1041 482 c 0
 1041 373 982 165 854 68 c 0
 779 11 684 -23 569 -23 c 0
 379 -23 284 96 269 96 c 0
 247 96 219 -34 168 -34 c 0
 147 -34 143 -27 143 -9 c 0
 143 41 152 146 152 159 c 0xf4
 152 315 170 468 170 700 c 2
 170 1206 l 2
 170 1294 152 1393 77 1393 c 2
 57 1393 l 2
 41 1393 25 1397 25 1415 c 0xec
317 271 m 2xf4
 317 224 408 51 616 51 c 0
 814 51 907 208 907 379 c 0
 907 578 780 795 546 795 c 0
 486 795 426 774 382 737 c 0
 322 687 317 666 317 642 c 2
 317 271 l 2xf4
EndSplineSet
AlternateSubs2: "'aalt' Access All Alternates lookup 0 subtable" b.sc
AlternateSubs2: "'aalt' Access All Alternates in Latin lookup 0 subtable" b.sc
Substitution2: "smcpLowercasetoSmallCapitalsinL subtable" b.sc
EndChar

StartChar: a
Encoding: 97 97 7
Width: 945
VWidth: 0
Flags: HMW
PickledData: "(dp1
S'spacing_anchors_slanted'
p2
I00
s."
HStem: -31 82<301.16 486.098> 822 66<298.863 509.243>
VStem: 98 161<88.77 311.913 606.232 750.57> 605 143<102.789 424.997 461.001 746.154>
AnchorPoint: "top" 454 940 basechar 0
AnchorPoint: "l;bl" 0 40 basechar 0
AnchorPoint: "l;x" 0 850 basechar 0
AnchorPoint: "l;o" 0 450 basechar 0
AnchorPoint: "r;bl" 945 40 basechar 0
AnchorPoint: "r;x" 915 850 basechar 0
AnchorPoint: "r;o" 915 450 basechar 0
LayerCount: 3
Fore
SplineSet
98 175 m 0
 98 396 315 415 570 461 c 0
 592 465 605 467 605 494 c 0
 606 534 609 568 609 601 c 0
 609 779 467 822 409 822 c 0
 280 822 263 751 263 699 c 0
 263 669 271 643 271 625 c 0
 271 591 256 583 234 583 c 0
 209 583 107 594 107 664 c 0
 107 768 273 888 450 888 c 0
 757 888 758 708 758 631 c 0
 758 364 748 402 748 249 c 0
 748 -23 903 100 903 26 c 0
 903 -4 862 -16 775 -16 c 0
 657 -16 620 97 610 97 c 0
 601 97 488 -31 340 -31 c 0
 252 -31 197 -18 150 31 c 0
 114 68 98 120 98 175 c 0
259 204 m 0
 259 112 313 51 415 51 c 0
 604 51 605 192 605 260 c 2
 605 408 l 2
 605 421 599 425 590 425 c 0
 584 425 577 423 570 422 c 0
 438 400 259 373 259 204 c 0
EndSplineSet
AlternateSubs2: "'aalt' Access All Alternates lookup 0 subtable" a.sc
AlternateSubs2: "'aalt' Access All Alternates in Latin lookup 0 subtable" a.sc
Substitution2: "smcpLowercasetoSmallCapitalsinL subtable" a.sc
EndChar

StartChar: i
Encoding: 105 105 9
Width: 581
VWidth: 0
Flags: HMW
PickledData: "(dp1
S'spacing_anchors_slanted'
p2
I00
s."
HStem: -13 67<129 181> 880 20G<326.5 349> 1092 228<226.481 352.364>
VStem: 191 197<1127.23 1285.74> 213 148<72.3906 740.308>
AnchorPoint: "l;bl" 0 40 basechar 0
AnchorPoint: "l;x" 0 850 basechar 0
AnchorPoint: "l;o" 0 450 basechar 0
AnchorPoint: "r;bl" 581 40 basechar 0
AnchorPoint: "r;x" 571 850 basechar 0
AnchorPoint: "r;o" 571 450 basechar 0
AnchorPoint: "l;t" 101 1150 basechar 0
AnchorPoint: "r;t" 478 1150 basechar 0
LayerCount: 3
Fore
SplineSet
73 781 m 0xe8
 73 813 125 814 239 862 c 0
 312 893 310 900 343 900 c 0
 355 900 372 890 372 861 c 0
 372 837 361 797 361 762 c 2
 361 200 l 2
 361 -22 537 92 537 20 c 0
 537 8 535 -14 502 -14 c 0
 493 -14 483 -13 472 -13 c 0
 385 -13 404 -8 326 -8 c 0
 241 -8 215 -13 181 -13 c 0
 129 -13 98 -6 98 15 c 0
 98 29 110 48 129 54 c 0
 208 80 213 66 213 421 c 2
 213 603 l 2
 213 773 139 743 94 760 c 0
 83 764 73 772 73 781 c 0xe8
  Spiro
    73 781 o
    90.6679 805.536 o
    145.37 826.803 o
    239 862 o
    291.039 885.613 o
    317.614 897.044 o
    343 900 o
    355.839 896.341 o
    367.157 883.983 o
    372 861 o
    369.153 832.477 o
    363.847 797.853 o
    361 762 [
    361 200 ]
    406.551 70.7227 o
    491.449 49.3273 o
    537 20 o
    535.264 5.86696 o
    525.725 -7.86296 o
    502 -14 o
    492.676 -13.7412 o
    482.656 -13.2588 o
    472 -13 o
    412.854 -11.7059 o
    379.149 -9.29407 o
    326 -8 o
    258.238 -9.29407 o
    214.779 -11.7059 o
    181 -13 o
    136.407 -10.4128 o
    107.943 -1.58014 o
    98 15 o
    101.807 29.9847 o
    112.532 44.346 o
    129 54 o
    185.852 81.7701 o
    208.789 174.006 o
    213 421 [
    213 603 ]
    192.186 715.417 o
    144.799 749.532 o
    94 760 o
    83.676 765.216 o
    75.9943 772.452 o
    0 0 z
  EndSpiro
191 1209 m 0xf0
 191 1236 247 1320 292 1320 c 0
 340 1320 388 1245 388 1204 c 0
 388 1154 309 1092 291 1092 c 0
 231 1092 191 1176 191 1209 c 0xf0
  Spiro
    191 1209 o
    207.155 1249.73 o
    245.86 1297.26 o
    292 1320 o
    338.18 1299.07 o
    373.804 1252.24 o
    388 1204 o
    366.889 1152.79 o
    324.105 1109.89 o
    291 1092 o
    238.452 1114.96 o
    203.568 1164.05 o
    0 0 z
  EndSpiro
EndSplineSet
AlternateSubs2: "'aalt' Access All Alternates lookup 0 subtable" i.sc
AlternateSubs2: "'aalt' Access All Alternates in Latin lookup 0 subtable" i.sc i.TRK
Substitution2: "smcpLowercasetoSmallCapitalsinL subtable" i.sc
Substitution2: "turkish subtable" i.TRK
EndChar

StartChar: j
Encoding: 106 106 10
Width: 575
VWidth: 0
Flags: HW
PickledData: "(dp1
S'spacing_anchors_slanted'
p2
I00
s."
HStem: -410 101<106.5 239.712> 763 95<160.945 243.684> 882 20G<373 392> 1101 214<265.741 401>
VStem: 237 195<1131.02 1288.94> 259 143<-213.267 746.103>
AnchorPoint: "r;t" 523 1150 basechar 0
AnchorPoint: "l;t" 146 1150 basechar 0
AnchorPoint: "l;bl" 40 40 basechar 0
AnchorPoint: "l;x" 0 850 basechar 0
AnchorPoint: "l;o" 20 450 basechar 0
AnchorPoint: "l;k;lo" 40 -420 basechar 0
AnchorPoint: "r;bl" 575 40 basechar 0
AnchorPoint: "r;x" 575 850 basechar 0
AnchorPoint: "r;o" 575 450 basechar 0
AnchorPoint: "r;lo" 465 -420 basechar 0
LayerCount: 3
Fore
SplineSet
48 -281 m 0xf4
 48 -246 58 -222 93 -222 c 0
 135 -222 177 -309 210 -309 c 0
 244 -309 259 -240 259 21 c 2
 259 643 l 2
 259 689 255 763 137 763 c 0
 118 763 105 766 105 784 c 0
 105 811 163 801 284 858 c 0
 327 878 365 902 381 902 c 0
 403 902 406 881 406 855 c 0
 406 847 406 839 406 831 c 0
 406 798 402 760 402 736 c 2
 402 72 l 2
 402 -120 348 -410 132 -410 c 0
 81 -410 51 -394 51 -354 c 0
 51 -331 48 -304 48 -281 c 0xf4
237 1210 m 0xf8
 237 1244 289 1315 334 1315 c 0
 382 1315 432 1251 432 1210 c 0
 432 1160 361 1101 343 1101 c 0
 283 1101 237 1177 237 1210 c 0xf8
EndSplineSet
AlternateSubs2: "'aalt' Access All Alternates lookup 0 subtable" j.sc
AlternateSubs2: "'aalt' Access All Alternates in Latin lookup 0 subtable" j.sc
Substitution2: "smcpLowercasetoSmallCapitalsinL subtable" j.sc
EndChar

StartChar: l
Encoding: 108 108 11
Width: 572
VWidth: 10
Flags: HW
PickledData: "(dp1
S'spacing_anchors_slanted'
p2
I00
s."
HStem: -8 59<64.7773 165.399 387.511 531.916> 1528 20G<314.5 345.5>
VStem: 188 151<83.3129 1392.55>
AnchorPoint: "r;s;dot" 783 680 basechar 0
AnchorPoint: "right" 553 1450 basechar 0
AnchorPoint: "top" 265 1550 basechar 0
AnchorPoint: "cedilla" 272 -162 basechar 0
AnchorPoint: "l;bl" 0 40 basechar 0
AnchorPoint: "l;x" 10 850 basechar 0
AnchorPoint: "l;hi" 0 1500 basechar 0
AnchorPoint: "l;o" 10 450 basechar 0
AnchorPoint: "r;bl" 572 40 basechar 0
AnchorPoint: "r;x" 550 850 basechar 0
AnchorPoint: "r;hi" 550 1500 basechar 0
AnchorPoint: "r;o" 550 450 basechar 0
AnchorPoint: "l;t" 0 1150 basechar 0
AnchorPoint: "r;t" 550 1150 basechar 0
LayerCount: 3
Fore
SplineSet
40 1420 m 0
 40 1458 66 1445 180 1490 c 0
 234 1511 294 1548 335 1548 c 0
 356 1548 360 1530 360 1510 c 0
 360 1479 345 1385 345 1198 c 2
 345 1083 l 2
 345 908 339 913 339 811 c 2
 339 200 l 2
 339 135 350 51 505 51 c 0
 519 51 532 35 532 20 c 0
 532 -2 508 -8 470 -8 c 0
 428 -8 326 7 263 7 c 0
 168 7 142 -10 97 -10 c 0
 75 -10 63 4 63 10 c 0
 63 47 103 42 133 56 c 0
 183 79 188 117 188 188 c 0
 188 204 187 221 187 241 c 2
 187 394 l 2
 187 568 195 1002 195 1263 c 0
 195 1326 169 1385 145 1395 c 0
 130 1401 104 1402 63 1402 c 0
 50 1402 40 1405 40 1420 c 0
EndSplineSet
AlternateSubs2: "'aalt' Access All Alternates lookup 0 subtable" l.sc
AlternateSubs2: "'aalt' Access All Alternates in Latin lookup 0 subtable" l.sc
Substitution2: "smcpLowercasetoSmallCapitalsinL subtable" l.sc
EndChar

StartChar: k
Encoding: 107 107 12
Width: 1117
VWidth: 0
Flags: HW
PickledData: "(dp1
S'spacing_anchors_slanted'
p2
I00
s."
HStem: -11 60<52.6489 148.27> 407 44<345.993 369.635> 838 20G<606 620 928.5 974.5> 1389 76<9.30711 80.3466> 1536 20G<307 329.5>
VStem: 176 145<75.2717 402.275 451.032 1372.71>
AnchorPoint: "l;t" 0 1150 basechar 0
AnchorPoint: "cedilla" 541 -162 basechar 0
AnchorPoint: "l;bl" 0 40 basechar 0
AnchorPoint: "l;x" 10 850 basechar 0
AnchorPoint: "l;k;hi" -40 1500 basechar 0
AnchorPoint: "l;o" 10 450 basechar 0
AnchorPoint: "r;bl" 1117 40 basechar 0
AnchorPoint: "r;x" 1077 850 basechar 0
AnchorPoint: "r;o" 1077 450 basechar 0
LayerCount: 3
Fore
SplineSet
1 1412 m 0
 1 1429 23 1441 101 1465 c 0
 207 1497 173 1482 250 1529 c 0
 266 1539 296 1556 318 1556 c 0
 341 1556 347 1536 347 1518 c 0
 347 1498 327 1386 327 999 c 0
 327 860 321 719 321 580 c 2
 321 537 l 2
 321 495 322 451 329 451 c 0
 357 451 368 475 395 497 c 0
 668 714 682 746 682 758 c 0
 682 808 590 801 590 838 c 0
 590 850 597 858 615 858 c 0
 625 858 635 857 652 857 c 0
 817 862 905 866 952 866 c 0
 997 866 1006 861 1006 848 c 0
 1006 807 945 837 822 759 c 0
 802 746 802 746 725 688 c 0
 521 533 521 535 521 511 c 0
 521 497 529 480 542 464 c 0
 690 284 796 177 862 120 c 0
 994 6 1079 74 1079 24 c 0
 1079 -10 1053 -10 996 -10 c 0
 970 -10 804 -8 783 -8 c 0
 722 -8 471 316 405 395 c 0
 398 403 390 407 382 407 c 0
 357 407 319 367 319 314 c 0
 319 303 320 293 321 279 c 0
 330 86 324 133 358 83 c 0
 388 38 512 56 512 18 c 0
 512 -10 458 -14 449 -14 c 0
 429 -14 316 -3 250 -3 c 0
 191 -3 190 -11 101 -11 c 0
 75 -11 52 -8 52 14 c 0
 52 40 89 44 103 49 c 0
 168 74 174 110 174 237 c 0
 174 275 176 311 176 328 c 2
 178 1236 l 2
 178 1373 120 1391 81 1391 c 0
 67 1391 57 1389 40 1389 c 0
 17 1389 1 1394 1 1412 c 0
EndSplineSet
AlternateSubs2: "'aalt' Access All Alternates lookup 0 subtable" k.sc
AlternateSubs2: "'aalt' Access All Alternates in Latin lookup 0 subtable" k.sc
Substitution2: "smcpLowercasetoSmallCapitalsinL subtable" k.sc
EndChar

StartChar: o
Encoding: 111 111 13
Width: 1121
VWidth: 0
Flags: HW
PickledData: "(dp1
S'spacing_anchors_slanted'
p2
I00
s."
HStem: -37 62<478.024 730.384> 827 55<407.866 641.907>
VStem: 80 161<262.906 618.292> 886 155<225.038 591.348>
AnchorPoint: "top" 544 940 basechar 0
AnchorPoint: "l;o" 0 453 basechar 0
AnchorPoint: "r;o" 1121 453 basechar 0
LayerCount: 3
Fore
SplineSet
80 415 m 0
 80 647 241 882 563 882 c 0
 803 882 1041 728 1041 429 c 0
 1041 121 793 -37 548 -37 c 0
 235 -37 80 188 80 415 c 0
241 486 m 0
 241 188 435 25 610 25 c 0
 755 25 886 135 886 367 c 0
 886 585 766 827 515 827 c 0
 396 827 241 739 241 486 c 0
EndSplineSet
AlternateSubs2: "'aalt' Access All Alternates lookup 0 subtable" o.sc
AlternateSubs2: "'aalt' Access All Alternates in Latin lookup 0 subtable" o.sc
Substitution2: "smcpLowercasetoSmallCapitalsinL subtable" o.sc
EndChar

StartChar: m
Encoding: 109 109 14
Width: 1693
VWidth: 0
Flags: HMW
PickledData: "(dp1
S'spacing_anchors_slanted'
p2
I00
s."
HStem: 1 56<686.96 763.999 968.262 1097.12 1552.16 1650.98> 777 97<465.858 695.125 1026.51 1264.16> 876 20G<317 343.5>
VStem: 202 145<81.8224 714.457 728.008 758.775> 780 146<82.7082 688.555> 1356 149<102.385 673.93>
AnchorPoint: "r;o" 1673 453 basechar 0
AnchorPoint: "r;x" 1633 852 basechar 0
AnchorPoint: "r;bl" 1693 40 basechar 0
AnchorPoint: "l;o" 0 453 basechar 0
AnchorPoint: "l;x" 0 852 basechar 0
AnchorPoint: "l;bl" 0 40 basechar 0
LayerCount: 3
Fore
SplineSet
63 794 m 0
 63 836 154 827 243 866 c 0
 286 884 300 896 334 896 c 0
 353 896 358 871 358 838 c 0
 358 813 348 769 348 752 c 0
 348 739 349 728 361 728 c 0
 376 728 428 874 637 874 c 0
 859 874 879 712 899 712 c 0
 914 712 1013 880 1180 880 c 0
 1394 880 1488 731 1505 573 c 0
 1516 472 1517 385 1517 314 c 2
 1517 248 l 2
 1517 139 1521 77 1574 61 c 0
 1590 56 1653 56 1653 22 c 0
 1653 -8 1607 -8 1585 -8 c 0
 1558 -8 1491 1 1451 1 c 0
 1393 1 1344 -8 1302 -8 c 0
 1279 -8 1253 -4 1253 12 c 0
 1253 52 1332 48 1348 87 c 0
 1355 104 1356 140 1356 181 c 2
 1356 213 l 2
 1356 665 1343 640 1277 720 c 0
 1243 761 1186 785 1125 785 c 0
 1022 785 914 692 914 673 c 0
 914 647 926 622 926 414 c 0
 926 367 925 309 925 240 c 0
 925 127 944 63 1068 45 c 0
 1099 40 1103 19 1103 13 c 0
 1103 -10 1077 -10 1065 -10 c 0
 1031 -10 976 1 916 1 c 0
 879 1 748 -10 729 -10 c 0
 714 -10 685 -4 685 17 c 0
 685 35 691 41 731 57 c 0
 745 62 779 65 779 184 c 0
 779 212 780 185 780 407 c 0
 780 536 777 524 777 536 c 0
 777 678 700 777 567 777 c 0
 452 777 346 705 346 626 c 0
 346 616 347 607 347 598 c 2
 347 214 l 2
 347 1 518 72 518 24 c 0
 518 2 518 -7 475 -7 c 0
 444 -7 392 0 303 0 c 0
 222 0 172 -7 141 -7 c 0
 93 -7 93 9 93 24 c 0
 93 66 158 26 186 114 c 0
 199 156 202 281 202 427 c 0
 202 507 201 593 201 676 c 0
 201 819 63 728 63 794 c 0
EndSplineSet
AlternateSubs2: "'aalt' Access All Alternates lookup 0 subtable" m.sc
AlternateSubs2: "'aalt' Access All Alternates in Latin lookup 0 subtable" m.sc
Substitution2: "smcpLowercasetoSmallCapitalsinL subtable" m.sc
EndChar

StartChar: n
Encoding: 110 110 15
Width: 1210
VWidth: 0
Flags: HMW
PickledData: "(dp1
S'spacing_anchors_slanted'
p2
I00
s."
HStem: 0 58<388.357 546.749 762.301 843.322 1030.92 1167.84> 790 90<493.623 738.223>
VStem: 210 137<84.8202 702.865> 858 146<74.3417 657.735>
AnchorPoint: "cedilla" 646 -162 basechar 0
AnchorPoint: "top" 620 940 basechar 0
AnchorPoint: "l;bl" 0 40 basechar 0
AnchorPoint: "l;x" 0 852 basechar 0
AnchorPoint: "l;o" 0 453 basechar 0
AnchorPoint: "r;bl" 1210 40 basechar 0
AnchorPoint: "r;x" 1150 852 basechar 0
AnchorPoint: "r;o" 1190 453 basechar 0
LayerCount: 3
Fore
SplineSet
63 798 m 0
 63 825 118 823 164 836 c 0
 254 860 326 905 346 905 c 2
 350 905 l 2
 365 905 369 895 369 881 c 0
 369 866 364 826 364 793 c 0
 364 757 366 739 375 739 c 0
 389 739 399 779 472 824 c 0
 522 854 585 880 650 880 c 0
 940 880 1001 646 1001 537 c 0
 1001 502 1004 537 1004 244 c 2
 1004 198 l 2
 1004 104 1011 69 1128 50 c 0
 1164 44 1169 35 1169 19 c 0
 1169 2 1149 -3 1128 -3 c 0
 1044 -3 1007 9 961 9 c 0
 909 9 828 0 803 0 c 0
 776 0 762 9 762 26 c 0
 762 54 809 55 814 57 c 0
 855 70 858 138 858 194 c 2
 858 472 l 2
 858 699 723 790 593 790 c 0
 457 790 372 690 364 666 c 0
 354 637 347 409 347 342 c 2
 347 264 l 2
 347 145 356 66 462 58 c 0
 475 57 547 52 547 27 c 0
 547 5 525 0 507 0 c 0
 432 0 453 8 359 8 c 0
 271 8 149 0 130 0 c 0
 105 0 99 8 99 20 c 0
 99 84 198 -25 206 218 c 0
 210 332 210 310 210 370 c 2
 210 666 l 2
 210 762 170 776 123 776 c 2
 103 776 l 2
 74 776 63 783 63 798 c 0
EndSplineSet
AlternateSubs2: "'aalt' Access All Alternates lookup 0 subtable" n.sc
AlternateSubs2: "'aalt' Access All Alternates in Latin lookup 0 subtable" n.sc
Substitution2: "smcpLowercasetoSmallCapitalsinL subtable" n.sc
EndChar

StartChar: p
Encoding: 112 112 16
Width: 1137
VWidth: 0
Flags: HMW
PickledData: "(dp1
S'spacing_anchors_slanted'
p2
I00
s."
HStem: -409 21G<463.5 522> -19 62<494.115 772.959> 787 102<499.255 748.581> 891 20G<345 358.5>
VStem: 211 136<-317.965 42.9991 43 59.9949 150.343 700.351> 923 134<258.988 585.202>
AnchorPoint: "l;bl" 20 40 basechar 0
AnchorPoint: "l;x" 0 850 basechar 0
AnchorPoint: "l;o" 20 450 basechar 0
AnchorPoint: "l;lo" 19 -420 basechar 0
AnchorPoint: "r;o" 1137 450 basechar 0
LayerCount: 3
Fore
SplineSet
63 789 m 0xe6
 63 813 120 806 264 873 c 0xe6
 332 905 339 911 351 911 c 0
 366 911 377 904 377 884 c 0
 377 811 369 787 369 763 c 0
 369 753 371 748 374 748 c 0
 389 748 480 889 681 889 c 0xce
 937 889 1057 689 1057 477 c 0
 1057 243 902 -19 617 -19 c 0
 402 -19 383 60 352 60 c 0
 347 60 346 53 346 43 c 2
 346 43 347 43 347 -182 c 2
 347 -208 l 2
 347 -254 367 -285 380 -306 c 0
 436 -391 559 -319 559 -384 c 0
 559 -391 554 -409 490 -409 c 0
 437 -409 438 -402 277 -402 c 0
 212 -402 173 -408 147 -408 c 0
 84 -408 77 -402 77 -388 c 0
 77 -325 205 -412 205 -167 c 2
 205 -128 l 2
 205 276 211 353 211 438 c 2
 211 483 l 2
 211 687 208 765 115 765 c 0
 63 765 63 774 63 789 c 0xe6
347 394 m 0
 347 353 349 332 349 291 c 0
 349 91 537 43 650 43 c 0
 837 43 923 204 923 378 c 0
 923 576 811 787 602 787 c 0xce
 519 787 457 755 415 721 c 0
 364 681 347 655 347 394 c 0
EndSplineSet
AlternateSubs2: "'aalt' Access All Alternates lookup 0 subtable" p.sc
AlternateSubs2: "'aalt' Access All Alternates in Latin lookup 0 subtable" p.sc
Substitution2: "smcpLowercasetoSmallCapitalsinL subtable" p.sc
EndChar

StartChar: q
Encoding: 113 113 17
Width: 1144
VWidth: 0
Flags: HW
PickledData: "(dp1
S'spacing_anchors_slanted'
p2
I00
s."
HStem: -415 75<691.436 811.731> -49 109<405.5 655.808> 825 59<419.634 664.621> 891 20G<939 969>
VStem: 80 143<247.957 590.66> 818 145<-312.121 115.992 134.652 717.084>
AnchorPoint: "l;o" 0 450 basechar 0
AnchorPoint: "r;bl" 1144 40 basechar 0
AnchorPoint: "r;x" 1124 850 basechar 0
AnchorPoint: "r;o" 1124 450 basechar 0
AnchorPoint: "r;k;lo" 1164 -420 basechar 0
LayerCount: 3
Fore
SplineSet
80 361 m 0
 80 733 360 884 588 884 c 0
 756 884 860 781 863 781 c 0
 885 781 915 911 963 911 c 0
 975 911 981 904 981 878 c 0
 981 817 963 788 963 475 c 0
 963 100 969 388 969 -163 c 0
 969 -401 1118 -327 1118 -383 c 0
 1118 -399 1109 -407 1082 -407 c 0
 1068 -407 1025 -405 938 -405 c 0
 758 -405 761 -415 738 -415 c 0
 696 -415 689 -403 689 -386 c 0
 689 -352 761 -361 792 -340 c 0
 811 -327 818 -308 818 -165 c 0
 818 -79 821 -19 821 22 c 0
 821 105 816 116 808 116 c 0
 773 116 710 -49 477 -49 c 0
 368 -49 293 -21 229 32 c 0
 81 154 80 293 80 361 c 0
223 444 m 0
 223 162 439 60 553 60 c 0
 807 60 818 207 818 285 c 2
 818 619 l 2
 818 735 655 825 541 825 c 0
 440 825 223 754 223 444 c 0
EndSplineSet
AlternateSubs2: "'aalt' Access All Alternates lookup 0 subtable" q.sc
AlternateSubs2: "'aalt' Access All Alternates in Latin lookup 0 subtable" q.sc
Substitution2: "smcpLowercasetoSmallCapitalsinL subtable" q.sc
EndChar

StartChar: r
Encoding: 114 114 18
Width: 769
VWidth: 0
Flags: HW
PickledData: "(dp1
S'spacing_anchors_slanted'
p2
I00
s."
HStem: -7 60<110.172 188.616 412.478 567.844> 727 163<489.755 675.236> 890 20G<342.5 353.5>
VStem: 213 149<87.2173 677.274>
AnchorPoint: "cedilla" 336 -162 basechar 0
AnchorPoint: "top" 444 940 basechar 0
AnchorPoint: "l;bl" 40 40 basechar 0
AnchorPoint: "l;x" 0 850 basechar 0
AnchorPoint: "l;o" 0 450 basechar 0
AnchorPoint: "r;bl" 749 40 basechar 0
AnchorPoint: "r;x" 769 850 basechar 0
AnchorPoint: "r;o" 769 450 basechar 0
LayerCount: 3
Fore
SplineSet
46 778 m 0
 46 828 147 822 315 901 c 0
 326 906 341 910 344 910 c 0
 363 910 370 889 370 869 c 0
 370 853 368 833 368 813 c 0
 368 728 372 724 385 724 c 0
 401 724 467 890 601 890 c 0
 644 890 656 878 696 851 c 0
 733 826 739 802 739 792 c 0
 739 709 676 678 670 678 c 0
 622 678 614 727 515 727 c 0
 435 727 362 643 362 601 c 0
 362 530 362 459 362 388 c 0
 362 170 366 207 366 172 c 0
 366 111 414 70 462 62 c 0
 514 54 568 57 568 27 c 0
 568 12 564 -6 542 -6 c 0
 477 -6 415 4 368 4 c 0
 257 4 190 -7 155 -7 c 0
 110 -7 110 4 110 18 c 0
 110 35 114 47 137 53 c 0
 210 71 213 116 213 277 c 0
 213 668 209 629 209 668 c 0
 209 704 200 744 107 744 c 0
 100 744 92 746 84 746 c 0
 66 746 46 750 46 778 c 0
EndSplineSet
AlternateSubs2: "'aalt' Access All Alternates lookup 0 subtable" r.sc
AlternateSubs2: "'aalt' Access All Alternates in Latin lookup 0 subtable" r.sc
Substitution2: "smcpLowercasetoSmallCapitalsinL subtable" r.sc
EndChar

StartChar: t
Encoding: 116 116 19
Width: 701
VWidth: 0
Flags: HMW
PickledData: "(dp1
S'spacing_anchors_slanted'
p2
I00
s."
HStem: -21 103<355.162 593.744> 754 107<386.14 638.204>
VStem: 164 151<123.333 758.875>
AnchorPoint: "right" 547 1280 basechar 0
AnchorPoint: "cedilla" 386 -162 basechar 0
AnchorPoint: "l;bl" 20 40 basechar 0
AnchorPoint: "l;x" 0 850 basechar 0
AnchorPoint: "l;o" 10 450 basechar 0
AnchorPoint: "r;bl" 701 40 basechar 0
AnchorPoint: "r;x" 701 850 basechar 0
AnchorPoint: "r;o" 701 450 basechar 0
LayerCount: 3
Fore
SplineSet
56 786 m 0
 56 818 93 824 164 898 c 0
 245 983 279 1065 320 1065 c 0
 337 1065 342 1051 342 1017 c 0
 342 980 334 940 334 902 c 0
 334 863 335 861 418 861 c 2
 490 861 l 2
 624 861 626 888 648 888 c 0
 662 888 667 879 667 867 c 0
 667 847 619 754 602 754 c 0
 453 756 388 769 386 769 c 0
 332 769 324 758 324 700 c 0
 324 642 315 427 315 319 c 0
 315 153 338 82 491 82 c 0
 564 82 621 120 644 120 c 0
 658 120 664 118 664 97 c 0
 664 66 562 -21 441 -21 c 0
 181 -21 164 140 164 219 c 2
 164 249 l 2
 164 430 172 711 172 727 c 0
 172 754 163 759 129 759 c 0
 114 759 101 758 91 758 c 0
 67 758 56 762 56 786 c 0
EndSplineSet
AlternateSubs2: "'aalt' Access All Alternates lookup 0 subtable" t.sc
AlternateSubs2: "'aalt' Access All Alternates in Latin lookup 0 subtable" t.sc
Substitution2: "smcpLowercasetoSmallCapitalsinL subtable" t.sc
EndChar

StartChar: s
Encoding: 115 115 20
Width: 804
VWidth: 0
Flags: HW
PickledData: "(dp1
S'spacing_anchors_slanted'
p2
I00
s."
HStem: -33 77<303.204 535.706> 827 70<294.249 511.269>
VStem: 113 83<153.603 317.64> 130 129<625.407 778.129> 588 140<109.11 298.521>
AnchorPoint: "cedilla" 416 -162 basechar 0
AnchorPoint: "top" 424 940 basechar 0
AnchorPoint: "l;bl" 0 40 basechar 0
AnchorPoint: "l;x" 0 850 basechar 0
AnchorPoint: "l;o" 0 450 basechar 0
AnchorPoint: "r;bl" 804 40 basechar 0
AnchorPoint: "r;x" 804 850 basechar 0
AnchorPoint: "r;o" 804 450 basechar 0
LayerCount: 3
Fore
SplineSet
113 89 m 2xe8
 113 267 l 2
 113 297 129 319 143 319 c 0
 187 319 177 280 196 232 c 0xe8
 216 180 281 44 409 44 c 0
 472 44 588 73 588 189 c 0
 588 437 130 348 130 643 c 0
 130 801 280 897 439 897 c 0
 651 897 672 836 672 821 c 0
 672 815 679 721 679 699 c 0
 679 654 672 639 643 639 c 0
 608 639 580 827 396 827 c 0
 318 827 259 785 259 723 c 0xd8
 259 602 379 576 478 539 c 0
 673 466 728 403 728 244 c 0
 728 166 677 84 618 31 c 0
 590 6 537 -33 415 -33 c 0
 308 -33 217 13 186 23 c 0
 137 39 113 38 113 89 c 2xe8
EndSplineSet
AlternateSubs2: "'aalt' Access All Alternates lookup 0 subtable" s.sc
AlternateSubs2: "'aalt' Access All Alternates in Latin lookup 0 subtable" s.sc
Substitution2: "smcpLowercasetoSmallCapitalsinL subtable" s.sc
EndChar

StartChar: u
Encoding: 117 117 21
Width: 1180
VWidth: 0
Flags: HMW
PickledData: "(dp1
S'spacing_anchors_slanted'
p2
I00
s."
HStem: -36 106<454.931 698.875> -11 21G<841 864> 12 60<993.96 1135.68> 779 75<60.0059 180.553 685.153 805.616>
VStem: 192 159<185.162 772.05> 828 149<143.071 767.279>
AnchorPoint: "top" 574 940 basechar 0
AnchorPoint: "l;bl" 70 40 basechar 0
AnchorPoint: "l;x" 0 850 basechar 0
AnchorPoint: "l;o" 0 450 basechar 0
AnchorPoint: "r;bl" 1180 40 basechar 0
AnchorPoint: "r;x" 1180 850 basechar 0
AnchorPoint: "r;o" 1180 450 basechar 0
LayerCount: 3
Fore
SplineSet
59 806 m 0x9c
 59 833 77 851 196 851 c 0
 223 851 301 862 313 862 c 0
 360 862 361 856 361 759 c 0
 361 651 351 615 351 399 c 0
 351 128 487 70 577 70 c 0x9c
 747 70 828 129 828 319 c 1
 824 603 l 1
 824 731 817 774 729 782 c 0
 707 784 684 791 684 808 c 0
 684 837 726 857 865 857 c 0
 895 857 919 866 937 866 c 0
 979 866 988 856 988 809 c 0
 988 797 977 565 977 286 c 0
 977 122 988 72 1034 72 c 0
 1053 72 1072 73 1088 73 c 0
 1116 73 1136 69 1136 48 c 0
 1136 15 1119 12 1061 12 c 0
 1000 12 874 -11 854 -11 c 0x7c
 828 -11 831 95 818 95 c 0
 802 95 707 -36 522 -36 c 0
 317 -36 192 70 192 320 c 0
 192 652 194 615 194 689 c 0
 194 750 155 779 134 779 c 0
 117 779 114 778 97 778 c 0
 75 778 59 784 59 806 c 0x9c
EndSplineSet
AlternateSubs2: "'aalt' Access All Alternates lookup 0 subtable" u.sc
AlternateSubs2: "'aalt' Access All Alternates in Latin lookup 0 subtable" u.sc
Substitution2: "smcpLowercasetoSmallCapitalsinL subtable" u.sc
EndChar

StartChar: v
Encoding: 118 118 22
Width: 1072
VWidth: 0
Flags: HW
PickledData: "(dp1
S'spacing_anchors_slanted'
p2
I00
s."
HStem: -28 223<498 590.5> 813 57<332.385 459.563>
VStem: 40 286<734.5 860.5> 807 225<706 862>
AnchorPoint: "l;bl" 110 40 basechar 0
AnchorPoint: "l;x" 0 850 basechar 0
AnchorPoint: "l;o" 60 450 basechar 0
AnchorPoint: "r;bl" 962 40 basechar 0
AnchorPoint: "r;x" 1072 850 basechar 0
AnchorPoint: "r;o" 1012 450 basechar 0
LayerCount: 3
Fore
SplineSet
40 851 m 0
 40 870 68 874 80 874 c 0
 94 874 144 866 225 866 c 0
 284 866 286 865 345 865 c 0
 371 865 401 870 423 870 c 0
 443 870 460 863 460 848 c 0
 460 815 439 813 411 813 c 0
 375 813 326 812 326 756 c 0
 326 713 376 620 466 418 c 0
 508 325 558 195 577 195 c 0
 604 195 807 674 807 738 c 0
 807 861 679 772 679 844 c 0
 679 866 703 871 744 871 c 0
 778 871 825 868 880 868 c 0
 920 868 952 870 975 870 c 0
 1022 870 1032 863 1032 840 c 0
 1032 813 994 825 952 766 c 0
 826 590 589 -28 518 -28 c 0
 478 -28 499 -27 243 540 c 0
 91 876 40 799 40 851 c 0
EndSplineSet
AlternateSubs2: "'aalt' Access All Alternates lookup 0 subtable" v.sc
AlternateSubs2: "'aalt' Access All Alternates in Latin lookup 0 subtable" v.sc
Substitution2: "smcpLowercasetoSmallCapitalsinL subtable" v.sc
EndChar

StartChar: w
Encoding: 119 119 23
Width: 1532
VWidth: 0
Flags: HW
PickledData: "(dp1
S'spacing_anchors_slanted'
p2
I00
s."
HStem: -20 233<459.5 551.5 983 1087.5> 817 50<864.891 947.524>
VStem: 40 292<717.5 860.5> 737 120<604.353 718.848> 1267 225<680 851.5>
AnchorPoint: "top" 772 940 basechar 0
AnchorPoint: "l;bl" 110 40 basechar 0
AnchorPoint: "l;x" 0 850 basechar 0
AnchorPoint: "l;o" 60 450 basechar 0
AnchorPoint: "r;bl" 1422 40 basechar 0
AnchorPoint: "r;x" 1532 850 basechar 0
AnchorPoint: "r;o" 1472 450 basechar 0
LayerCount: 3
Fore
SplineSet
40 851 m 0
 40 870 68 874 80 874 c 0
 94 874 144 866 225 866 c 4
 284 866 266 868 325 868 c 0
 401 868 422 868 422 846 c 0
 422 805 332 840 332 749 c 0
 332 686 374 580 446 418 c 0
 488 325 527 213 546 213 c 0
 557 213 588 277 628 354 c 0
 726 543 737 553 737 602 c 0
 737 619 709 697 678 742 c 0
 609 842 562 813 562 850 c 0
 562 869 579 869 591 869 c 0
 728 869 591 864 840 864 c 0
 891 864 877 867 903 867 c 0
 947 867 948 843 948 837 c 0
 948 818 940 820 917 817 c 0
 891 814 857 807 857 760 c 0
 857 722 904 576 976 418 c 0
 1018 325 1055 210 1074 210 c 0
 1101 210 1267 631 1267 729 c 0
 1267 840 1156 788 1156 847 c 0
 1156 863 1175 865 1198 865 c 2
 1433 865 l 2
 1482 865 1492 863 1492 838 c 0
 1492 802 1444 820 1402 761 c 0
 1348 687 1356 653 1107 123 c 0
 1062 27 1038 -27 1014 -27 c 0
 952 -27 806 503 770 503 c 0
 748 503 543 -20 476 -20 c 0
 443 -20 443 20 232 542 c 0
 178 675 188 719 79 810 c 0
 52 832 40 827 40 851 c 0
EndSplineSet
AlternateSubs2: "'aalt' Access All Alternates lookup 0 subtable" w.sc
AlternateSubs2: "'aalt' Access All Alternates in Latin lookup 0 subtable" w.sc
Substitution2: "smcpLowercasetoSmallCapitalsinL subtable" w.sc
EndChar

StartChar: x
Encoding: 120 120 24
Width: 1123
VWidth: 0
Flags: HW
PickledData: "(dp1
S'spacing_anchors_slanted'
p2
I00
s."
HStem: -2 50<985.294 1063> 850 20G<85.5 135 388 441.5 701.5 747 967.5 1006>
VStem: 60 292<10.5 140.5> 484 143<407.186 476.248> 767 269<743.5 851.5>
AnchorPoint: "l;bl" 0 40 basechar 0
AnchorPoint: "l;x" 13 850 basechar 0
AnchorPoint: "l;o" 20 450 basechar 0
AnchorPoint: "r;bl" 1123 40 basechar 0
AnchorPoint: "r;x" 1076 850 basechar 0
AnchorPoint: "r;o" 1103 450 basechar 0
LayerCount: 3
Fore
SplineSet
60 29 m 0
 60 54 81 39 154 84 c 0
 279 161 408 318 476 392 c 0
 481 398 484 400 484 413 c 0
 484 434 396 524 310 636 c 0
 241 726 170 781 152 784 c 0
 100 794 63 821 63 845 c 0
 63 861 78 870 93 870 c 0
 177 870 174 861 252 861 c 0
 315 861 358 868 418 868 c 0
 465 868 472 860 472 842 c 0
 472 814 404 823 404 783 c 0
 404 759 437 720 466 679 c 0
 550 561 577 519 592 519 c 0
 597 519 602 523 612 535 c 0
 760 723 767 724 767 763 c 0
 767 821 673 810 673 843 c 0
 673 854 675 868 728 868 c 0
 766 868 806 867 857 867 c 0
 896 867 938 870 997 870 c 0
 1015 870 1036 859 1036 844 c 0
 1036 806 981 840 862 721 c 0
 761 620 627 477 627 463 c 0
 627 448 638 452 813 240 c 0
 863 180 939 77 1039 48 c 0
 1057 43 1063 42 1063 23 c 0
 1063 4 1057 -2 993 -2 c 0
 965 -2 926 2 872 2 c 0
 824 2 790 -2 751 -2 c 2
 730 -2 l 2
 682 -2 660 0 660 18 c 0
 660 42 732 35 732 77 c 0
 732 138 617 240 550 340 c 0
 542 352 539 358 532 358 c 0
 526 358 514 343 510 338 c 0
 424 229 352 171 352 110 c 0
 352 18 449 75 449 17 c 0
 449 4 449 -2 365 -2 c 0
 329 -2 303 4 258 4 c 0
 217 4 183 -4 150 -4 c 0
 95 -4 60 3 60 29 c 0
EndSplineSet
AlternateSubs2: "'aalt' Access All Alternates lookup 0 subtable" x.sc
AlternateSubs2: "'aalt' Access All Alternates in Latin lookup 0 subtable" x.sc
Substitution2: "smcpLowercasetoSmallCapitalsinL subtable" x.sc
EndChar

StartChar: y
Encoding: 121 121 25
Width: 1020
VWidth: 0
Flags: HW
PickledData: "(dp1
S'spacing_anchors_slanted'
p2
I00
s."
HStem: -392 21G<323.5 376> 808 60<344.276 453.588>
VStem: 40 302<726.5 853.5>
AnchorPoint: "l;o" 60 450 basechar 0
AnchorPoint: "l;bl" 110 40 basechar 0
AnchorPoint: "r;o" 980 450 basechar 0
AnchorPoint: "r;x" 1020 850 basechar 0
AnchorPoint: "r;bl" 910 40 basechar 0
AnchorPoint: "l;x" 0 850 basechar 0
AnchorPoint: "top" 530 940 basechar 0
AnchorPoint: "l;lo" 246 -420 basechar 0
LayerCount: 3
Fore
SplineSet
40 844 m 0
 40 863 69 868 81 868 c 0
 191 868 214 864 302 864 c 0
 367 864 363 868 418 868 c 0
 438 868 454 855 454 845 c 0
 454 803 424 809 375 808 c 0
 345 807 342 775 342 752 c 0
 342 701 365 654 464 432 c 0
 506 339 555 212 574 212 c 0
 590 212 751 664 751 734 c 0
 751 856 625 777 625 845 c 0
 625 853 628 870 664 870 c 0
 720 870 774 868 810 868 c 0
 845 868 921 870 938 870 c 0
 966 870 980 860 980 844 c 0
 980 807 923 823 898 788 c 0
 875 755 827 641 786 531 c 2
 605 46 l 2
 489 -266 454 -390 424 -390 c 0
 413 -390 422 -392 330 -392 c 0
 317 -392 291 -388 291 -365 c 0
 291 -343 477 -164 477 -6 c 0
 477 85 232 582 158 722 c 0
 92 846 40 791 40 844 c 0
EndSplineSet
AlternateSubs2: "'aalt' Access All Alternates lookup 0 subtable" y.sc
AlternateSubs2: "'aalt' Access All Alternates in Latin lookup 0 subtable" y.sc
Substitution2: "smcpLowercasetoSmallCapitalsinL subtable" y.sc
EndChar

StartChar: z
Encoding: 122 122 26
Width: 775
VWidth: 0
Flags: HW
PickledData: "(dp1
S'spacing_anchors_slanted'
p2
I00
s."
HStem: 5 127<241.036 605.375> 739 127<168.73 525.985>
VStem: 648 66<188.292 286.991>
AnchorPoint: "top" 404 940 basechar 0
AnchorPoint: "l;bl" 0 40 basechar 0
AnchorPoint: "l;x" 0 850 basechar 0
AnchorPoint: "l;o" 0 450 basechar 0
AnchorPoint: "r;bl" 775 40 basechar 0
AnchorPoint: "r;x" 775 850 basechar 0
AnchorPoint: "r;o" 775 450 basechar 0
LayerCount: 3
Fore
SplineSet
82 30 m 0
 82 67 92 72 152 158 c 0
 263 318 526 700 526 730 c 0
 526 735 505 739 479 739 c 0
 436 739 285 727 230 724 c 0
 146 719 130 608 102 608 c 0
 97 608 86 612 86 630 c 0
 86 713 107 795 113 836 c 0
 116 856 133 872 153 872 c 0
 175 872 241 866 373 866 c 0
 494 866 584 871 674 872 c 0
 686 872 698 863 698 851 c 0
 698 818 652 781 638 758 c 0
 421 419 241 208 241 150 c 0
 241 135 291 132 343 132 c 0
 381 132 419 134 442 134 c 0
 630 134 621 204 648 258 c 0
 656 274 662 287 681 287 c 0
 694 287 714 278 714 258 c 0
 714 256 687 181 666 134 c 24
 643 82 641 4 602 4 c 0
 492 4 455 5 368 5 c 0
 337 5 278 3 220 3 c 2
 185 3 l 2
 126 3 133 1 120 1 c 0
 99 1 82 8 82 30 c 0
EndSplineSet
AlternateSubs2: "'aalt' Access All Alternates lookup 0 subtable" z.sc
AlternateSubs2: "'aalt' Access All Alternates in Latin lookup 0 subtable" z.sc
Substitution2: "smcpLowercasetoSmallCapitalsinL subtable" z.sc
EndChar

StartChar: A
Encoding: 65 65 27
Width: 1663
VWidth: 2043
Flags: HMW
PickledData: "(dp1
S'spacing_anchors_slanted'
p2
I00
s."
HStem: -9 65<40.6237 124.979> 545 108<559.204 996.49> 1462 20G<829 867>
AnchorPoint: "top" 830 1480 basechar 0
AnchorPoint: "l;bl" 0 40 basechar 0
AnchorPoint: "l;o" 100 450 basechar 0
AnchorPoint: "l;hi" 310 1500 basechar 0
AnchorPoint: "l;t" 240 1150 basechar 0
AnchorPoint: "l;x" 170 850 basechar 0
AnchorPoint: "r;bl" 1663 40 basechar 0
AnchorPoint: "r;o" 1563 450 basechar 0
AnchorPoint: "r;hi" 1353 1500 basechar 0
AnchorPoint: "r;t" 1423 1150 basechar 0
AnchorPoint: "r;x" 1493 850 basechar 0
LayerCount: 3
Fore
SplineSet
40 17 m 0
 40 38 54 49 72 56 c 0
 190 101 176 140 785 1435 c 0
 804 1475 813 1482 845 1482 c 0
 889 1482 861 1478 993 1153 c 0
 1090 915 1379 246 1395 214 c 0
 1497 8 1623 101 1623 27 c 0
 1623 16 1619 -5 1567 -5 c 0
 1520 -5 1441 8 1383 8 c 0
 1310 8 1250 1 1191 1 c 0
 1106 1 1094 4 1094 28 c 0
 1094 73 1197 47 1197 124 c 0
 1197 189 1100 437 1058 514 c 0
 1049 531 1043 549 975 549 c 0
 931 549 861 545 727 545 c 2
 619 545 l 2
 491 545 484 536 461 486 c 0
 388 331 330 222 330 165 c 0
 330 23 481 90 481 27 c 0
 481 11 479 -3 447 -3 c 0
 415 -3 348 -1 277 -1 c 0
 198 -1 147 -9 101 -9 c 0
 64 -9 40 -4 40 17 c 0
555 692 m 0
 555 656 573 653 660 653 c 2
 722 653 l 2
 813 653 917 655 917 655 c 2
 971 655 997 667 997 689 c 0
 997 714 809 1168 771 1168 c 0
 745 1168 555 717 555 692 c 0
EndSplineSet
AlternateSubs2: "'aalt' Access All Alternates lookup 0 subtable" a.sc
AlternateSubs2: "'aalt' Access All Alternates in Latin lookup 0 subtable" a.sc
Position2: "'cpsp' Capital Spacing in Latin lookup 2 subtable" dx=12 dy=0 dh=25 dv=0
Substitution2: "c2scCapitalstoSmallCapitalsinLa subtable" a.sc
EndChar

StartChar: B
Encoding: 66 66 28
Width: 1290
VWidth: 2043
Flags: HMW
PickledData: "(dp1
S'spacing_anchors_slanted'
p2
I00
s."
HStem: -3 61<88.0168 204.795 473.155 695.322> 750 66<432.156 820.351> 1397 56<40.1482 185.242 464.226 667.801>
VStem: 257 166<99.0922 749.995 819.761 1344.89> 945 156<958.068 1198.25> 1056 174<254.466 563.937>
AnchorPoint: "l;bl" 0 40 basechar 0
AnchorPoint: "l;o" 0 450 basechar 0
AnchorPoint: "l;hi" 0 1500 basechar 0
AnchorPoint: "l;t" 0 1150 basechar 0
AnchorPoint: "l;x" 0 850 basechar 0
AnchorPoint: "r;bl" 1230 40 basechar 0
AnchorPoint: "r;o" 1290 450 basechar 0
AnchorPoint: "r;hi" 1230 1500 basechar 0
AnchorPoint: "r;t" 1260 1150 basechar 0
AnchorPoint: "r;x" 1290 850 basechar 0
LayerCount: 3
Fore
SplineSet
40 1422 m 0
 40 1435 47 1453 60 1453 c 0
 80 1453 80 1450 141 1450 c 0
 214 1450 405 1453 441 1453 c 0
 529 1453 594 1458 666 1458 c 0
 900 1458 1101 1343 1101 1116 c 0
 1101 901 897 822 897 810 c 0
 897 785 1230 775 1230 425 c 0
 1230 309 1150 154 1058 90 c 0
 931 1 842 -17 702 -17 c 0
 560 -17 388 7 336 7 c 0
 287 7 230 -2 160 -2 c 0
 153 -2 143 -3 132 -3 c 0
 111 -3 88 1 88 28 c 0
 88 36 90 58 110 58 c 0
 133 58 144 59 158 59 c 0
 187 59 242 95 249 250 c 0
 255 383 257 660 257 889 c 0
 257 1092 256 1238 256 1238 c 2
 256 1256 247 1397 76 1397 c 0
 63 1397 40 1398 40 1422 c 0
411 188 m 0
 411 71 540 65 612 65 c 2
 660 65 l 2
 722 65 782 66 836 75 c 0
 964 96 1056 220 1056 376 c 0
 1056 728 723 746 655 746 c 0
 464 746 483 750 464 750 c 0
 421 750 413 745 413 417 c 2
 413 401 l 2
 413 230 411 209 411 188 c 0
423 1117 m 2
 423 846 430 824 450 822 c 0
 489 817 497 816 554 816 c 2
 687 816 l 2
 870 816 945 924 945 1056 c 0
 945 1178 826 1387 531 1387 c 0
 452 1387 423 1361 423 1175 c 2
 423 1117 l 2
EndSplineSet
AlternateSubs2: "'aalt' Access All Alternates lookup 0 subtable" b.sc
AlternateSubs2: "'aalt' Access All Alternates in Latin lookup 0 subtable" b.sc
Position2: "'cpsp' Capital Spacing in Latin lookup 2 subtable" dx=9 dy=0 dh=19 dv=0
Substitution2: "c2scCapitalstoSmallCapitalsinLa subtable" b.sc
EndChar

StartChar: C
Encoding: 67 67 29
Width: 1653
VWidth: 2043
Flags: HW
PickledData: "(dp1
S'spacing_anchors_slanted'
p2
I00
s."
HStem: -40 93<697.121 1164.01> 977 21G<1468.5 1479> 1378 85<645.524 1090.98>
VStem: 90 192<496.642 955.991>
AnchorPoint: "r;x" 1623 850 basechar 0
AnchorPoint: "r;t" 1653 1150 basechar 0
AnchorPoint: "r;hi" 1653 1500 basechar 0
AnchorPoint: "r;o" 1593 450 basechar 0
AnchorPoint: "r;bl" 1563 40 basechar 0
AnchorPoint: "l;x" 0 850 basechar 0
AnchorPoint: "l;t" 0 1150 basechar 0
AnchorPoint: "l;hi" 120 1500 basechar 0
AnchorPoint: "l;o" 0 450 basechar 0
AnchorPoint: "l;bl" 120 40 basechar 0
AnchorPoint: "cedilla" 916 -162 basechar 0
AnchorPoint: "top" 859 1480 basechar 0
LayerCount: 3
Fore
SplineSet
90 663 m 0
 90 1100 358 1463 866 1463 c 0
 1149 1463 1378 1312 1397 1312 c 0
 1411 1312 1422 1333 1439 1333 c 0
 1451 1333 1469 1323 1470 1301 c 0
 1475 1166 1499 1038 1499 1013 c 0
 1499 980 1483 977 1475 977 c 0
 1462 977 1448 991 1440 1006 c 0
 1321 1230 1133 1378 866 1378 c 0
 528 1378 282 1140 282 786 c 0
 282 416 465 53 962 53 c 0
 1216 53 1377 236 1459 360 c 0
 1468 374 1475 374 1489 374 c 0
 1502 374 1508 362 1508 347 c 0
 1508 297 1479 187 1470 145 c 0
 1466 126 1455 117 1438 109 c 0
 1260 24 1124 -40 910 -40 c 0
 292 -40 90 341 90 663 c 0
EndSplineSet
AlternateSubs2: "'aalt' Access All Alternates lookup 0 subtable" c.sc
AlternateSubs2: "'aalt' Access All Alternates in Latin lookup 0 subtable" c.sc
Position2: "'cpsp' Capital Spacing in Latin lookup 2 subtable" dx=12 dy=0 dh=25 dv=0
Substitution2: "c2scCapitalstoSmallCapitalsinLa subtable" c.sc
EndChar

StartChar: D
Encoding: 68 68 30
Width: 1623
VWidth: 2043
Flags: HW
PickledData: "(dp1
S'spacing_anchors_slanted'
p2
I00
s."
HStem: -7 77<73.375 192.816 528.903 1011.82> 1378 89<40.9863 207.072 432.991 898.285>
VStem: 231 173<135.074 1350.97> 1358 174<461.121 955.068>
AnchorPoint: "r;x" 1623 850 basechar 0
AnchorPoint: "r;t" 1623 1150 basechar 0
AnchorPoint: "r;hi" 1503 1500 basechar 0
AnchorPoint: "r;o" 1623 450 basechar 0
AnchorPoint: "r;bl" 1503 40 basechar 0
AnchorPoint: "top" 765 1480 basechar 0
AnchorPoint: "l;bl" 0 40 basechar 0
AnchorPoint: "l;o" 0 450 basechar 0
AnchorPoint: "l;hi" 0 1500 basechar 0
AnchorPoint: "l;t" 0 1150 basechar 0
AnchorPoint: "l;x" 0 850 basechar 0
LayerCount: 3
Fore
SplineSet
40 1433 m 0
 40 1458 59 1459 146 1459 c 2
 323 1459 l 2
 432 1459 582 1467 722 1467 c 0
 1091 1467 1532 1241 1532 799 c 0
 1532 401 1414 277 1235 129 c 0
 1168 73 999 -7 818 -7 c 0
 769 -7 474 5 326 5 c 0
 203 5 161 -6 120 -6 c 0
 78 -6 72 4 72 20 c 0
 72 56 102 51 143 68 c 0
 185 86 231 147 231 201 c 0
 231 419 234 579 234 756 c 0
 234 922 232 1029 232 1275 c 0
 232 1321 178 1381 122 1385 c 0
 78 1388 40 1387 40 1433 c 0
404 289 m 0
 404 113 426 139 590 91 c 0
 633 78 687 70 740 70 c 2
 780 70 l 2
 970 70 1090 122 1206 235 c 0
 1320 346 1358 546 1358 706 c 0
 1358 1165 973 1378 656 1378 c 0
 412 1378 409 1377 409 1119 c 0
 409 1040 406 763 406 724 c 0
 406 510 404 376 404 289 c 0
EndSplineSet
AlternateSubs2: "'aalt' Access All Alternates lookup 0 subtable" d.sc
AlternateSubs2: "'aalt' Access All Alternates in Latin lookup 0 subtable" d.sc
Position2: "'cpsp' Capital Spacing in Latin lookup 2 subtable" dx=12 dy=0 dh=24 dv=0
Substitution2: "c2scCapitalstoSmallCapitalsinLa subtable" d.sc
EndChar

StartChar: E
Encoding: 69 69 31
Width: 1237
Flags: HMW
PickledData: "(dp1
S'spacing_anchors_slanted'
p2
I00
s."
HStem: -9 85<70.5936 202.786> 11 87<420.197 815.471> 692 95<408.254 878.184> 916 20G<934.5 969> 1357 88<419.394 961.363> 1394 66<40.0312 181.512>
VStem: 238 166<115.027 689.4 786.67 1348.49>
AnchorPoint: "top" 631 1480 basechar 0
AnchorPoint: "l;bl" 0 40 basechar 0
AnchorPoint: "l;o" 0 450 basechar 0
AnchorPoint: "l;hi" 0 1500 basechar 0
AnchorPoint: "l;t" 0 1150 basechar 0
AnchorPoint: "l;x" 0 850 basechar 0
AnchorPoint: "r;bl" 1237 40 basechar 0
AnchorPoint: "r;o" 1237 450 basechar 0
AnchorPoint: "r;hi" 1237 1500 basechar 0
AnchorPoint: "r;t" 1237 1150 basechar 0
AnchorPoint: "r;x" 1237 850 basechar 0
LayerCount: 3
Fore
SplineSet
40 1432 m 0
 40 1456 83 1460 99 1460 c 0
 116 1460 133 1457 154 1457 c 0
 204 1457 451 1445 653 1445 c 0
 735 1445 1002 1454 1063 1454 c 0
 1078 1454 1101 1451 1101 1407 c 0
 1101 1367 1077 1300 1077 1198 c 0
 1077 1173 1061 1153 1045 1153 c 0
 1029 1153 1014 1168 1014 1197 c 0
 1014 1268 962 1339 892 1344 c 0
 760 1354 722 1357 610 1357 c 2
 558 1357 l 2
 415 1357 418 1355 411 1232 c 0
 407 1158 405 984 404 890 c 0
 404 854 406 789 442 787 c 0
 461 786 478 786 493 786 c 0
 523 786 547 787 580 787 c 2
 643 787 l 2
 820 787 841 799 880 825 c 0
 947 871 912 936 957 936 c 0
 981 936 984 927 984 903 c 0
 984 866 966 759 966 688 c 0
 966 619 973 603 973 564 c 0
 973 514 965 511 959 511 c 0
 904 511 918 626 863 662 c 0
 821 690 674 691 665 691 c 0
 486 691 509 692 486 692 c 0
 443 692 402 685 402 653 c 0
 402 536 398 472 398 358 c 0
 398 330 397 302 397 276 c 0
 397 209 411 125 446 114 c 0
 491 100 503 98 534 98 c 0
 1188 98 1112 293 1172 293 c 0
 1184 293 1197 284 1197 259 c 0
 1197 136 1036 -11 954 -11 c 0
 692 -11 516 11 392 11 c 0
 280 11 212 -9 112 -9 c 0
 92 -9 70 -9 70 13 c 0
 70 68 72 35 158 76 c 0
 221 106 238 159 238 473 c 2
 238 727 l 2
 238 840 244 955 244 1082 c 0
 244 1141 242 1201 239 1267 c 0
 235 1352 153 1391 73 1394 c 0
 40 1395 40 1414 40 1432 c 0
EndSplineSet
AlternateSubs2: "'aalt' Access All Alternates lookup 0 subtable" e.sc
AlternateSubs2: "'aalt' Access All Alternates in Latin lookup 0 subtable" e.sc
Position2: "'cpsp' Capital Spacing in Latin lookup 2 subtable" dx=9 dy=0 dh=19 dv=0
Substitution2: "c2scCapitalstoSmallCapitalsinLa subtable" e.sc
EndChar

StartChar: F
Encoding: 70 70 32
Width: 1134
VWidth: 2053
Flags: HMW
PickledData: "(dp1
S'spacing_anchors_slanted'
p2
I00
s."
HStem: -9 77<65.3914 186.272 456.054 615.918> 697 95<403.254 878.063> 921 20G<927 964> 1368 81<417.167 955.219> 1387 76<40.1649 195.125>
VStem: 233 166<227.567 694.4 791.67 1353.23>
AnchorPoint: "l;bl" 0 40 basechar 0
AnchorPoint: "l;o" 0 450 basechar 0
AnchorPoint: "l;hi" 0 1500 basechar 0
AnchorPoint: "l;t" 0 1150 basechar 0
AnchorPoint: "l;x" 0 850 basechar 0
AnchorPoint: "r;bl" 1014 40 basechar 0
AnchorPoint: "r;o" 1104 450 basechar 0
AnchorPoint: "r;hi" 1134 1500 basechar 0
AnchorPoint: "r;t" 1134 1150 basechar 0
AnchorPoint: "r;x" 1104 850 basechar 0
LayerCount: 3
Fore
SplineSet
40 1427 m 0
 40 1434 47 1463 94 1463 c 2
 149 1463 l 2
 290 1463 284 1449 593 1449 c 0
 866 1449 853 1461 1058 1461 c 0
 1073 1461 1094 1456 1094 1412 c 0
 1094 1372 1077 1307 1064 1203 c 0
 1061 1178 1050 1161 1034 1161 c 0
 1018 1161 1005 1173 1005 1202 c 0
 1005 1273 981 1338 911 1343 c 0
 731 1357 617 1368 543 1368 c 0
 402 1368 411 1333 406 1237 c 0
 402 1163 400 989 399 895 c 0
 399 859 401 794 437 792 c 0
 456 791 473 791 488 791 c 0
 518 791 542 792 575 792 c 2
 638 792 l 2
 815 792 836 804 875 830 c 0
 942 876 902 941 952 941 c 0
 976 941 979 932 979 908 c 0
 979 871 960 808 960 737 c 0
 960 668 974 608 974 569 c 0
 974 519 963 518 946 518 c 0
 876 518 926 638 858 667 c 0
 812 687 669 696 660 696 c 0
 481 696 504 697 481 697 c 0
 438 697 397 690 397 658 c 0
 397 541 393 477 393 363 c 0
 393 335 392 307 392 281 c 0
 392 227 408 68 556 68 c 0
 604 68 616 45 616 31 c 0
 616 20 606 -9 553 -9 c 0
 490 -9 408 8 355 8 c 0
 243 8 207 -4 107 -4 c 0
 87 -4 65 -4 65 18 c 0
 65 54 69 51 153 81 c 0
 242 112 229 248 233 732 c 0
 234 845 239 960 239 1087 c 2
 239 1207 l 2
 239 1273 231 1346 143 1387 c 0
 97 1409 40 1384 40 1427 c 0
EndSplineSet
AlternateSubs2: "'aalt' Access All Alternates lookup 0 subtable" f.sc
AlternateSubs2: "'aalt' Access All Alternates in Latin lookup 0 subtable" f.sc
Position2: "'cpsp' Capital Spacing in Latin lookup 2 subtable" dx=8 dy=0 dh=17 dv=0
Substitution2: "c2scCapitalstoSmallCapitalsinLa subtable" f.sc
EndChar

StartChar: G
Encoding: 71 71 33
Width: 1675
Flags: HW
PickledData: "(dp1
S'spacing_anchors_slanted'
p2
I00
s."
HStem: -35 85<686.805 1113.67> 1392 81<642.318 1080.67>
VStem: 90 192<512.627 951.593> 1325 176<206.918 664.248> 1459 59<997.598 1068.67>
AnchorPoint: "l;x" 0 850 basechar 0
AnchorPoint: "l;t" 0 1150 basechar 0
AnchorPoint: "l;hi" 120 1500 basechar 0
AnchorPoint: "l;o" 0 450 basechar 0
AnchorPoint: "l;bl" 120 40 basechar 0
AnchorPoint: "cedilla" 900 -162 basechar 0
AnchorPoint: "top" 863 1480 basechar 0
AnchorPoint: "r;bl" 1675 40 basechar 0
AnchorPoint: "r;o" 1675 450 basechar 0
AnchorPoint: "r;hi" 1675 1500 basechar 0
AnchorPoint: "r;t" 1675 1150 basechar 0
AnchorPoint: "r;x" 1675 850 basechar 0
LayerCount: 3
Fore
SplineSet
90 674 m 0xf0
 90 1110 366 1473 890 1473 c 0
 1238 1473 1381 1327 1400 1327 c 0
 1414 1327 1441 1358 1458 1358 c 0
 1478 1358 1488 1338 1489 1316 c 0
 1494 1181 1518 1058 1518 1033 c 0
 1518 1000 1502 997 1494 997 c 0
 1481 997 1466 1006 1459 1021 c 0xe8
 1364 1228 1110 1392 873 1392 c 0
 546 1392 282 1178 282 786 c 0
 282 416 507 50 891 50 c 0
 1104 50 1300 162 1318 285 c 0
 1320 301 1325 459 1325 542 c 0
 1325 768 1125 637 1125 736 c 0
 1125 748 1134 757 1162 757 c 0
 1213 757 1337 747 1388 747 c 0
 1483 747 1578 749 1584 749 c 0
 1592 749 1615 748 1615 731 c 0
 1615 698 1516 699 1506 637 c 0
 1496 574 1491 495 1491 407 c 0
 1491 225 1501 202 1501 179 c 0
 1501 154 1444 162 1372 123 c 0
 1347 109 1137 -35 909 -35 c 0
 291 -35 90 323 90 674 c 0xf0
EndSplineSet
AlternateSubs2: "'aalt' Access All Alternates lookup 0 subtable" g.sc
AlternateSubs2: "'aalt' Access All Alternates in Latin lookup 0 subtable" g.sc
Position2: "'cpsp' Capital Spacing in Latin lookup 2 subtable" dx=12 dy=0 dh=25 dv=0
Substitution2: "c2scCapitalstoSmallCapitalsinLa subtable" g.sc
EndChar

StartChar: H
Encoding: 72 72 34
Width: 1619
VWidth: 0
Flags: HW
PickledData: "(dp1
S'spacing_anchors_slanted'
p2
I00
s."
HStem: -1 47<497.013 619.395 1468.91 1578.98> 701 86<409.241 1213.57> 1393 52<44.7842 181.681 453.315 555.911 1425.47 1528.98>
VStem: 248 152<213.027 700.48 788.292 1350.31> 1217 162<98.334 693.346 785.01 1349.87>
AnchorPoint: "top" 801 1480 basechar 0
AnchorPoint: "l;bl" 0 40 basechar 0
AnchorPoint: "l;o" 0 450 basechar 0
AnchorPoint: "l;hi" 0 1500 basechar 0
AnchorPoint: "l;t" 0 1150 basechar 0
AnchorPoint: "l;x" 0 850 basechar 0
AnchorPoint: "r;bl" 1619 40 basechar 0
AnchorPoint: "r;o" 1619 450 basechar 0
AnchorPoint: "r;hi" 1619 1500 basechar 0
AnchorPoint: "r;t" 1619 1150 basechar 0
AnchorPoint: "r;x" 1619 850 basechar 0
LayerCount: 3
Fore
SplineSet
40 1432 m 0
 40 1454 72 1454 98 1454 c 0
 156 1454 214 1445 329 1445 c 0
 418 1445 381 1449 510 1449 c 0
 525 1449 556 1448 556 1421 c 0
 556 1403 550 1386 484 1386 c 0
 421 1386 405 1210 405 1131 c 0
 405 1103 406 1076 406 1055 c 0
 406 966 402 906 402 866 c 0
 402 796 413 787 472 787 c 0
 539 787 505 789 807 789 c 0
 853 789 927 787 1194 785 c 0
 1215 785 1217 797 1217 1069 c 0
 1217 1104 1216 1140 1216 1179 c 0
 1216 1465 1045 1346 1045 1425 c 0
 1045 1441 1075 1445 1124 1445 c 0
 1174 1445 1244 1441 1323 1441 c 0
 1373 1441 1410 1445 1483 1445 c 0
 1501 1445 1529 1439 1529 1419 c 0
 1529 1393 1510 1393 1501 1393 c 0
 1422 1393 1386 1338 1385 1266 c 0
 1382 1069 1379 924 1379 769 c 0
 1379 671 1375 570 1375 460 c 2
 1375 384 l 2
 1375 273 1382 254 1382 197 c 0
 1382 77 1500 53 1555 46 c 0
 1561 45 1579 44 1579 23 c 0
 1579 3 1552 -1 1479 -1 c 0
 1432 -1 1379 11 1320 11 c 0
 1243 11 1224 -1 1128 -1 c 0
 1075 -1 1054 0 1054 27 c 0
 1054 66 1182 55 1196 133 c 0
 1206 186 1211 237 1211 283 c 0
 1211 323 1212 361 1212 393 c 0
 1212 469 1217 552 1217 645 c 0
 1217 681 1203 700 1088 700 c 0
 1035 700 848 694 835 694 c 0
 666 694 590 701 459 701 c 0
 423 701 407 695 407 624 c 0
 407 525 400 451 400 372 c 2
 400 285 l 2
 400 181 406 127 496 70 c 0
 506 64 542 59 584 59 c 0
 604 59 622 47 622 36 c 0
 622 4 591 0 557 0 c 0
 447 0 455 8 387 8 c 0
 280 8 239 -2 166 -2 c 0
 83 -2 70 12 70 29 c 0
 70 84 191 26 222 160 c 0
 229 193 248 464 248 706 c 2
 248 823 l 2
 248 882 250 961 250 1044 c 0
 250 1128 248 1215 238 1288 c 8
 228 1362 142 1397 83 1397 c 0
 51 1397 40 1425 40 1432 c 0
EndSplineSet
AlternateSubs2: "'aalt' Access All Alternates lookup 0 subtable" h.sc
AlternateSubs2: "'aalt' Access All Alternates in Latin lookup 0 subtable" h.sc
Position2: "'cpsp' Capital Spacing in Latin lookup 2 subtable" dx=12 dy=0 dh=24 dv=0
Substitution2: "c2scCapitalstoSmallCapitalsinLa subtable" h.sc
EndChar

StartChar: I
Encoding: 73 73 35
Width: 672
VWidth: 5
Flags: HW
PickledData: "(dp1
S'spacing_anchors_slanted'
p2
I00
s."
HStem: 0 62<479.149 631.812> 1365 84<433.801 558.11> 1392 63<40.007 186.839>
VStem: 243 157<211.201 1341.63>
AnchorPoint: "top" 305 1480 basechar 0
AnchorPoint: "l;bl" 0 40 basechar 0
AnchorPoint: "l;o" 0 450 basechar 0
AnchorPoint: "l;hi" 0 1500 basechar 0
AnchorPoint: "l;t" 0 1150 basechar 0
AnchorPoint: "l;x" 0 850 basechar 0
AnchorPoint: "r;bl" 672 40 basechar 0
AnchorPoint: "r;o" 672 450 basechar 0
AnchorPoint: "r;hi" 672 1500 basechar 0
AnchorPoint: "r;t" 672 1150 basechar 0
AnchorPoint: "r;x" 672 850 basechar 0
LayerCount: 3
Fore
SplineSet
40 1424 m 0xb0
 40 1438 49 1455 98 1455 c 0xb0
 156 1455 214 1445 329 1445 c 0
 418 1445 381 1449 510 1449 c 0
 525 1449 566 1448 566 1421 c 0
 566 1403 532 1389 472 1365 c 0xd0
 414 1342 405 1210 405 1131 c 0
 405 649 400 560 400 372 c 0
 400 248 412 182 451 125 c 0
 493 65 527 62 548 62 c 0
 555 62 582 59 589 59 c 0
 609 59 632 47 632 36 c 0
 632 4 616 0 582 0 c 0
 472 0 455 8 387 8 c 0
 280 8 234 -2 161 -2 c 0
 78 -2 70 12 70 29 c 0
 70 84 191 26 222 160 c 0
 226 177 243 566 243 706 c 2
 243 823 l 2
 243 882 245 961 245 1044 c 2
 245 1139 l 2
 245 1192 244 1243 238 1288 c 8
 228 1361 141 1389 83 1392 c 0
 42 1394 40 1414 40 1424 c 0xb0
EndSplineSet
AlternateSubs2: "'aalt' Access All Alternates lookup 0 subtable" i.sc
AlternateSubs2: "'aalt' Access All Alternates in Latin lookup 0 subtable" i.sc
Position2: "'cpsp' Capital Spacing in Latin lookup 2 subtable" dx=5 dy=0 dh=10 dv=0
Substitution2: "c2scCapitalstoSmallCapitalsinLa subtable" i.sc
EndChar

StartChar: J
Encoding: 74 74 36
Width: 594
VWidth: 5
Flags: HW
PickledData: "(dp1
S'spacing_anchors_slanted'
p2
I00
s."
HStem: -393 120<-49.8837 159.542> 1367 84<427.424 546.11> 1388 73<40.0362 200.787>
VStem: 256 161<-88.2833 1343.26>
AnchorPoint: "top" 298 1480 basechar 0
AnchorPoint: "l;bl" 30 40 basechar 0
AnchorPoint: "l;k;lo" -133 -420 basechar 0
AnchorPoint: "l;o" 60 450 basechar 0
AnchorPoint: "l;hi" 0 1500 basechar 0
AnchorPoint: "l;t" 60 1150 basechar 0
AnchorPoint: "l;x" 60 850 basechar 0
AnchorPoint: "r;bl" 594 40 basechar 0
AnchorPoint: "r;lo" 414 -420 basechar 0
AnchorPoint: "r;o" 594 450 basechar 0
AnchorPoint: "r;hi" 594 1500 basechar 0
AnchorPoint: "r;t" 594 1150 basechar 0
AnchorPoint: "r;x" 594 850 basechar 0
LayerCount: 3
Fore
SplineSet
-93 -316 m 0xd0
 -93 -276 -51 -202 -29 -202 c 0
 5 -202 14 -273 90 -273 c 0
 171 -273 215 -205 232 -113 c 0
 250 -16 258 68 258 136 c 0
 258 185 256 382 256 387 c 0
 256 527 250 386 250 1086 c 0
 250 1161 248 1235 241 1289 c 8
 232 1361 144 1385 86 1388 c 0
 45 1390 40 1416 40 1426 c 0
 40 1444 52 1461 101 1461 c 0xb0
 159 1461 217 1447 332 1447 c 0
 421 1447 369 1451 498 1451 c 0
 513 1451 554 1450 554 1423 c 0
 554 1405 520 1391 460 1367 c 0
 422 1352 417 1290 417 1226 c 2
 417 1133 l 2
 417 142 413 241 413 142 c 0
 413 -177 211 -393 -11 -393 c 0
 -41 -393 -93 -390 -93 -316 c 0xd0
EndSplineSet
AlternateSubs2: "'aalt' Access All Alternates lookup 0 subtable" j.sc
AlternateSubs2: "'aalt' Access All Alternates in Latin lookup 0 subtable" j.sc
Position2: "'cpsp' Capital Spacing in Latin lookup 2 subtable" dx=4 dy=0 dh=9 dv=0
Substitution2: "c2scCapitalstoSmallCapitalsinLa subtable" j.sc
EndChar

StartChar: K
Encoding: 75 75 37
Width: 1483
VWidth: 5
Flags: HW
PickledData: "(dp1
S'spacing_anchors_slanted'
p2
I00
s."
HStem: 3 63<461.119 631.953 1288.01 1442.37> 664 105<404.554 479.969> 1364 86<1213.41 1395.61> 1392 57<40.1202 179.087 449.789 540.493 902.617 1018.43>
VStem: 243 162<111.434 663.977 769.004 1349.15> 1026 376<1291.5 1433>
AnchorPoint: "cedilla" 753 -162 basechar 0
AnchorPoint: "l;bl" 0 40 basechar 0
AnchorPoint: "l;o" 0 450 basechar 0
AnchorPoint: "l;hi" 0 1500 basechar 0
AnchorPoint: "l;t" 0 1150 basechar 0
AnchorPoint: "l;x" 0 850 basechar 0
AnchorPoint: "r;bl" 1483 40 basechar 0
AnchorPoint: "r;o" 1393 450 basechar 0
AnchorPoint: "r;hi" 1442 1500 basechar 0
AnchorPoint: "r;t" 1393 1150 basechar 0
AnchorPoint: "r;x" 1333 850 basechar 0
LayerCount: 3
Fore
SplineSet
40 1424 m 0xdc
 40 1438 49 1449 98 1449 c 0
 156 1449 214 1445 329 1445 c 0
 418 1445 364 1449 506 1449 c 0
 521 1449 541 1448 541 1424 c 0
 541 1403 500 1398 468 1380 c 0
 414 1349 405 1210 405 1131 c 0
 405 947 400 856 400 812 c 0
 400 775 403 769 417 769 c 0
 440 769 1026 1242 1026 1341 c 0
 1026 1387 958 1390 923 1398 c 0
 904 1402 902 1420 902 1427 c 0
 902 1449 920 1449 934 1449 c 0xdc
 946 1449 963 1448 985 1448 c 0
 1004 1448 1054 1444 1107 1444 c 0
 1116 1444 1361 1450 1361 1450 c 2
 1390 1450 1402 1443 1402 1423 c 0
 1402 1391 1356 1394 1284 1364 c 0xec
 1253 1351 1228 1331 1183 1302 c 0
 1147 1279 1196 1314 595 811 c 0
 579 798 574 784 574 783 c 0
 574 770 585 759 595 749 c 0
 1180 171 1248 87 1375 66 c 0
 1419 59 1443 57 1443 28 c 0
 1443 3 1440 3 1325 3 c 2
 1127 3 l 2
 1073 3 1102 9 927 187 c 0
 459 663 465 664 433 664 c 0
 409 664 404 633 404 608 c 0
 404 604 405 565 405 451 c 0
 405 327 406 182 437 127 c 0
 473 63 552 61 573 61 c 0
 580 61 582 59 589 59 c 0
 609 59 632 47 632 36 c 0
 632 4 616 0 582 0 c 0
 472 0 455 8 387 8 c 0
 280 8 234 -2 161 -2 c 0
 94 -2 88 8 88 20 c 0
 88 23 88 26 88 29 c 0
 88 61 162 45 200 86 c 1
 242 128 243 303 243 548 c 2
 243 823 l 2
 243 882 240 961 240 1044 c 2
 240 1139 l 2
 240 1192 239 1243 233 1288 c 0
 224 1359 141 1389 83 1392 c 0
 42 1394 40 1414 40 1424 c 0xdc
EndSplineSet
AlternateSubs2: "'aalt' Access All Alternates lookup 0 subtable" k.sc
AlternateSubs2: "'aalt' Access All Alternates in Latin lookup 0 subtable" k.sc
Position2: "'cpsp' Capital Spacing in Latin lookup 2 subtable" dx=11 dy=0 dh=22 dv=0
Substitution2: "c2scCapitalstoSmallCapitalsinLa subtable" k.sc
EndChar

StartChar: L
Encoding: 76 76 38
Width: 1235
Flags: HW
PickledData: "(dp1
S'spacing_anchors_slanted'
p2
I00
s."
HStem: -7 59<73.2498 176.377> 11 87<418.197 813.471> 1394 66<40.2572 182.5>
VStem: 236 159<116.827 857.075> 242 170<710.288 1348.49>
AnchorPoint: "r;s;dot" 903 680 basechar 0
AnchorPoint: "right" 827 1450 basechar 0
AnchorPoint: "top" 329 1480 basechar 0
AnchorPoint: "cedilla" 616 -162 basechar 0
AnchorPoint: "l;bl" 0 40 basechar 0
AnchorPoint: "l;o" 0 450 basechar 0
AnchorPoint: "l;hi" 0 1500 basechar 0
AnchorPoint: "l;t" 0 1150 basechar 0
AnchorPoint: "l;x" 0 850 basechar 0
AnchorPoint: "r;bl" 1235 40 basechar 0
AnchorPoint: "r;o" 1235 450 basechar 0
AnchorPoint: "r;hi" 875 1500 basechar 0
AnchorPoint: "r;t" 875 1150 basechar 0
AnchorPoint: "r;x" 875 850 basechar 0
LayerCount: 3
Fore
SplineSet
40 1423 m 0xa8
 40 1454 80 1460 97 1460 c 0
 114 1460 131 1457 152 1457 c 0
 202 1457 248 1447 329 1447 c 0
 440 1447 508 1457 544 1457 c 0
 570 1457 580 1452 580 1435 c 0
 580 1346 426 1462 412 1215 c 0xa8
 405 1087 396 380 396 358 c 0
 396 330 395 302 395 276 c 0
 395 209 409 125 444 114 c 0
 489 100 501 98 532 98 c 0
 1186 98 1110 293 1170 293 c 0
 1182 293 1195 284 1195 259 c 0
 1195 136 1034 -11 952 -11 c 0
 690 -11 514 11 390 11 c 0x70
 278 11 234 -7 134 -7 c 0
 94 -7 73 5 73 19 c 0
 73 42 95 52 106 52 c 0
 114 52 138 52 166 72 c 0
 212 106 236 159 236 473 c 2
 236 727 l 2xb0
 236 840 242 955 242 1082 c 0
 242 1141 240 1201 237 1267 c 0
 233 1352 151 1391 71 1394 c 0
 42 1395 40 1407 40 1423 c 0xa8
EndSplineSet
AlternateSubs2: "'aalt' Access All Alternates lookup 0 subtable" l.sc
AlternateSubs2: "'aalt' Access All Alternates in Latin lookup 0 subtable" l.sc
Position2: "'cpsp' Capital Spacing in Latin lookup 2 subtable" dx=9 dy=0 dh=19 dv=0
Substitution2: "c2scCapitalstoSmallCapitalsinLa subtable" l.sc
EndChar

StartChar: M
Encoding: 77 77 39
Width: 1882
VWidth: 5
Flags: HW
PickledData: "(dp1
S'spacing_anchors_slanted'
p2
I00
s."
HStem: -6 60<422.922 540.816 1688.47 1841.92> 1392 63<40.0065 155.24 1656.8 1768.99>
VStem: 1449 161<653.75 1047.98> 1478 157<95.2517 781.143>
AnchorPoint: "l;bl" 0 40 basechar 0
AnchorPoint: "l;o" 30 450 basechar 0
AnchorPoint: "l;hi" 0 1500 basechar 0
AnchorPoint: "l;t" 30 1150 basechar 0
AnchorPoint: "l;x" 30 850 basechar 0
AnchorPoint: "r;bl" 1882 40 basechar 0
AnchorPoint: "r;o" 1852 450 basechar 0
AnchorPoint: "r;hi" 1882 1500 basechar 0
AnchorPoint: "r;t" 1852 1150 basechar 0
AnchorPoint: "r;x" 1852 850 basechar 0
LayerCount: 3
Fore
SplineSet
40 1424 m 0xe0
 40 1438 46 1455 77 1455 c 0
 100 1455 169 1445 187 1445 c 0
 243 1445 301 1451 339 1451 c 0
 363 1451 382 1437 389 1421 c 0
 582 1003 910 281 938 281 c 0
 960 281 984 346 1006 393 c 2
 1269 939 l 2
 1487 1391 1467 1374 1480 1399 c 0
 1494 1426 1488 1455 1559 1455 c 0
 1648 1455 1605 1451 1734 1451 c 0
 1749 1451 1769 1451 1769 1424 c 0
 1769 1399 1760 1386 1702 1378 c 0
 1639 1369 1610 1334 1610 1155 c 0xe0
 1610 673 1635 561 1635 373 c 0
 1635 90 1670 55 1804 55 c 0
 1824 55 1842 38 1842 27 c 0
 1842 -5 1830 -7 1796 -7 c 0
 1686 -7 1656 3 1588 3 c 0
 1481 3 1447 -9 1374 -9 c 0
 1341 -9 1338 9 1338 21 c 0
 1338 81 1439 15 1471 154 c 0
 1476 175 1478 222 1478 284 c 0xd0
 1478 516 1449 953 1449 960 c 0
 1449 1018 1443 1048 1432 1048 c 0
 1413 1048 1387 994 1351 920 c 2
 1067 345 l 2
 909 24 921 24 895 24 c 0
 856 24 844 102 787 218 c 0
 402 1001 405 1001 389 1001 c 0
 379 1001 373 981 372 920 c 0
 368 621 355 535 355 379 c 2
 355 287 l 2
 355 179 358 70 513 54 c 0
 526 53 541 41 541 30 c 0
 541 -2 531 -6 509 -6 c 0
 440 -6 324 3 296 3 c 0
 272 3 220 -5 130 -5 c 0
 103 -5 85 -2 85 28 c 0
 85 83 196 3 241 185 c 0
 256 247 281 813 281 1002 c 0
 281 1267 250 1348 68 1392 c 0
 42 1398 40 1414 40 1424 c 0xe0
EndSplineSet
AlternateSubs2: "'aalt' Access All Alternates lookup 0 subtable" m.sc
AlternateSubs2: "'aalt' Access All Alternates in Latin lookup 0 subtable" m.sc
Position2: "'cpsp' Capital Spacing in Latin lookup 2 subtable" dx=14 dy=0 dh=28 dv=0
Substitution2: "c2scCapitalstoSmallCapitalsinLa subtable" m.sc
EndChar

StartChar: N
Encoding: 78 78 40
Width: 1635
VWidth: 5
Flags: HW
PickledData: "(dp1
S'spacing_anchors_slanted'
p2
I00
s."
HStem: -13 5G<107.5 157.5 485 526 1368.5 1387> 1384 66<40.0641 162.938 1085.31 1238.21 1468.48 1564.95>
VStem: 276 87<603.801 1063.29> 1328 97<636.287 1307.06>
AnchorPoint: "cedilla" 841 -162 basechar 0
AnchorPoint: "top" 814 1480 basechar 0
AnchorPoint: "l;bl" 0 40 basechar 0
AnchorPoint: "l;o" 30 450 basechar 0
AnchorPoint: "l;hi" 0 1500 basechar 0
AnchorPoint: "l;t" 30 1150 basechar 0
AnchorPoint: "l;x" 30 850 basechar 0
AnchorPoint: "r;bl" 1605 40 basechar 0
AnchorPoint: "r;o" 1605 450 basechar 0
AnchorPoint: "r;hi" 1635 1500 basechar 0
AnchorPoint: "r;t" 1635 1150 basechar 0
AnchorPoint: "r;x" 1625 850 basechar 0
LayerCount: 3
Fore
SplineSet
40 1416 m 0
 40 1430 62 1450 93 1450 c 0
 116 1450 151 1447 169 1447 c 0
 225 1447 233 1452 271 1452 c 0
 295 1452 334 1434 341 1418 c 0
 349 1402 412 1341 469 1266 c 0
 679 992 1087 532 1215 392 c 0
 1273 328 1293 298 1307 298 c 0
 1326 298 1328 360 1328 426 c 2
 1328 665 l 2
 1328 978 1322 1042 1322 1085 c 2
 1322 1100 l 2
 1322 1387 1213 1357 1127 1384 c 0
 1098 1393 1085 1407 1085 1420 c 0
 1085 1437 1093 1451 1125 1451 c 0
 1150 1451 1297 1448 1319 1448 c 0
 1405 1448 1465 1453 1503 1453 c 0
 1548 1453 1565 1446 1565 1418 c 0
 1565 1396 1497 1380 1492 1377 c 0
 1474 1366 1425 1317 1425 1144 c 2
 1425 1066 l 2
 1425 778 1402 256 1402 54 c 0
 1402 39 1403 25 1403 12 c 0
 1403 -15 1399 -34 1375 -34 c 0
 1362 -34 1347 -27 1341 -20 c 0
 433 1030 404 1064 383 1064 c 0
 368 1064 363 1008 363 925 c 0
 363 594 346 361 346 262 c 0
 346 -9 547 95 547 27 c 0
 547 -5 537 -9 515 -9 c 0
 455 -9 474 -4 294 -4 c 0
 250 -4 194 -8 121 -8 c 0
 94 -8 76 -5 76 25 c 0
 76 79 178 12 227 180 c 0
 246 247 276 871 276 1021 c 0
 276 1254 216 1367 68 1384 c 0
 41 1387 40 1406 40 1416 c 0
EndSplineSet
AlternateSubs2: "'aalt' Access All Alternates lookup 0 subtable" n.sc
AlternateSubs2: "'aalt' Access All Alternates in Latin lookup 0 subtable" n.sc
Position2: "'cpsp' Capital Spacing in Latin lookup 2 subtable" dx=12 dy=0 dh=25 dv=0
Substitution2: "c2scCapitalstoSmallCapitalsinLa subtable" n.sc
EndChar

StartChar: O
Encoding: 79 79 41
Width: 1746
VWidth: -5
Flags: HW
PickledData: "(dp1
S'spacing_anchors_slanted'
p2
I00
s."
HStem: -32 90<700.641 1130.2> 1396 82<607.867 1042.1>
VStem: 90 180<557.933 981.442> 1489 167<486.486 916.773>
AnchorPoint: "top" 856 1480 basechar 0
AnchorPoint: "l;bl" 120 40 basechar 0
AnchorPoint: "l;o" 0 450 basechar 0
AnchorPoint: "l;hi" 120 1500 basechar 0
AnchorPoint: "l;t" 0 1150 basechar 0
AnchorPoint: "l;x" 0 850 basechar 0
AnchorPoint: "r;bl" 1626 40 basechar 0
AnchorPoint: "r;o" 1746 450 basechar 0
AnchorPoint: "r;hi" 1626 1500 basechar 0
AnchorPoint: "r;t" 1746 1150 basechar 0
AnchorPoint: "r;x" 1746 850 basechar 0
LayerCount: 3
Fore
SplineSet
90 695 m 0
 90 1135 360 1478 882 1478 c 0
 1501 1478 1656 1011 1656 802 c 0
 1656 226 1302 -32 853 -32 c 0
 346 -32 90 327 90 695 c 0
270 799 m 0
 270 538 458 58 920 58 c 0
 1148 58 1489 239 1489 615 c 0
 1489 1131 1173 1396 813 1396 c 0
 539 1396 270 1217 270 799 c 0
EndSplineSet
AlternateSubs2: "'aalt' Access All Alternates lookup 0 subtable" o.sc
AlternateSubs2: "'aalt' Access All Alternates in Latin lookup 0 subtable" o.sc
Position2: "'cpsp' Capital Spacing in Latin lookup 2 subtable" dx=13 dy=0 dh=26 dv=0
Substitution2: "c2scCapitalstoSmallCapitalsinLa subtable" o.sc
EndChar

StartChar: P
Encoding: 80 80 42
Width: 1156
Flags: HW
PickledData: "(dp1
S'spacing_anchors_slanted'
p2
I00
s."
HStem: -13 82<55.2145 182.737> 653 62<473.077 733.331> 1375 82<419.798 690.694> 1395 62<40.4219 173.175>
VStem: 233 160<381.697 1347.19> 922 174<883.629 1162.97>
AnchorPoint: "l;bl" 0 40 basechar 0
AnchorPoint: "l;o" 0 450 basechar 0
AnchorPoint: "l;hi" 0 1500 basechar 0
AnchorPoint: "l;t" 0 1150 basechar 0
AnchorPoint: "l;x" 0 850 basechar 0
AnchorPoint: "r;bl" 946 40 basechar 0
AnchorPoint: "r;o" 1066 450 basechar 0
AnchorPoint: "r;hi" 1096 1500 basechar 0
AnchorPoint: "r;t" 1156 1150 basechar 0
AnchorPoint: "r;x" 1126 850 basechar 0
LayerCount: 3
Fore
SplineSet
40 1422 m 0xdc
 40 1439 56 1454 88 1454 c 0
 108 1454 102 1457 163 1457 c 0xdc
 185 1457 250 1451 286 1451 c 0
 374 1451 553 1457 625 1457 c 0
 859 1457 1096 1337 1096 1079 c 0
 1096 725 757 653 649 653 c 0
 564 653 448 679 448 701 c 0
 448 724 461 732 475 732 c 0
 504 732 526 715 579 715 c 0
 690 715 922 772 922 1002 c 0
 922 1162 786 1375 505 1375 c 0xec
 426 1375 397 1349 397 1165 c 0
 397 356 393 958 393 320 c 0
 393 179 430 114 477 84 c 0
 549 39 647 92 647 20 c 0
 647 -9 623 -14 601 -14 c 0
 520 -14 339 -5 308 -5 c 0
 256 -5 207 -13 116 -13 c 0
 93 -13 53 -11 53 11 c 0
 53 58 85 57 132 69 c 0
 161 77 170 62 202 159 c 0
 222 219 233 759 233 882 c 0
 233 1097 232 1177 232 1231 c 0
 232 1280 202 1395 82 1395 c 0
 60 1395 40 1402 40 1422 c 0xdc
EndSplineSet
AlternateSubs2: "'aalt' Access All Alternates lookup 0 subtable" p.sc
AlternateSubs2: "'aalt' Access All Alternates in Latin lookup 0 subtable" p.sc
Position2: "'cpsp' Capital Spacing in Latin lookup 2 subtable" dx=8 dy=0 dh=17 dv=0
Substitution2: "c2scCapitalstoSmallCapitalsinLa subtable" p.sc
EndChar

StartChar: Q
Encoding: 81 81 43
Width: 1719
VWidth: -5
Flags: HW
PickledData: "(dp1
S'spacing_anchors_slanted'
p2
I00
s."
HStem: -397 137<1500.22 1793.14> 20 38<496 918> 1396 82<612.471 1020.95>
VStem: 93 186<529.942 996.835> 226 85<-285.164 -53.5824> 1468 161<485.851 894.153>
AnchorPoint: "r;x" 1719 850 basechar 0
AnchorPoint: "r;t" 1719 1150 basechar 0
AnchorPoint: "r;hi" 1599 1500 basechar 0
AnchorPoint: "r;o" 1719 450 basechar 0
AnchorPoint: "r;bl" 1599 40 basechar 0
AnchorPoint: "l;x" 0 850 basechar 0
AnchorPoint: "l;t" 0 1150 basechar 0
AnchorPoint: "l;hi" 120 1500 basechar 0
AnchorPoint: "l;o" 0 450 basechar 0
AnchorPoint: "l;bl" 120 40 basechar 0
AnchorPoint: "l;lo" 150 -420 basechar 0
AnchorPoint: "r;k;lo" 1924 -420 basechar 0
LayerCount: 3
Fore
SplineSet
93 695 m 0xf4
 93 1128 312 1478 885 1478 c 0
 1482 1478 1629 974 1629 751 c 0
 1629 469 1471 116 1190 40 c 0
 1067 6 1044 2 1044 -7 c 0
 1044 -20 1059 -35 1084 -46 c 0
 1248 -119 1544 -260 1712 -260 c 0
 1847 -260 1845 -193 1902 -193 c 0
 1913 -193 1924 -212 1924 -218 c 0
 1924 -316 1743 -397 1567 -397 c 0
 1266 -397 652 20 496 20 c 0
 358 20 311 -99 311 -196 c 0
 311 -212 312 -221 312 -233 c 0
 312 -262 304 -286 274 -286 c 0
 248 -286 226 -244 226 -201 c 0xec
 226 -70 300 44 357 84 c 0
 380 100 401 112 401 120 c 0
 401 126 380 143 356 160 c 0
 181 284 93 479 93 695 c 0xf4
279 799 m 0xf4
 279 635 329 454 431 312 c 0
 546 152 784 58 918 58 c 0
 1034 58 1141 98 1212 135 c 0
 1302 182 1468 364 1468 615 c 0
 1468 1056 1176 1396 816 1396 c 0
 542 1396 279 1217 279 799 c 0xf4
EndSplineSet
AlternateSubs2: "'aalt' Access All Alternates lookup 0 subtable" q.sc
AlternateSubs2: "'aalt' Access All Alternates in Latin lookup 0 subtable" q.sc
Position2: "'cpsp' Capital Spacing in Latin lookup 2 subtable" dx=13 dy=0 dh=26 dv=0
Substitution2: "c2scCapitalstoSmallCapitalsinLa subtable" q.sc
EndChar

StartChar: R
Encoding: 82 82 44
Width: 1471
VWidth: 2043
Flags: HW
PickledData: "(dp1
S'spacing_anchors_slanted'
p2
I00
s."
HStem: -17 76<1313.83 1460.11> 683 76<418.781 671.848> 1380 79<430.327 717.28>
VStem: 242 170<113.453 682.998 765.175 1347.18> 920 171<929.003 1201.66>
AnchorPoint: "cedilla" 725 -162 basechar 0
AnchorPoint: "top" 608 1480 basechar 0
AnchorPoint: "l;bl" 0 40 basechar 0
AnchorPoint: "l;o" 0 450 basechar 0
AnchorPoint: "l;hi" 0 1500 basechar 0
AnchorPoint: "l;t" 0 1150 basechar 0
AnchorPoint: "l;x" 0 850 basechar 0
AnchorPoint: "r;bl" 1471 40 basechar 0
AnchorPoint: "r;o" 1411 450 basechar 0
AnchorPoint: "r;hi" 1201 1500 basechar 0
AnchorPoint: "r;t" 1261 1150 basechar 0
AnchorPoint: "r;x" 1261 850 basechar 0
LayerCount: 3
Fore
SplineSet
40 1426 m 0
 40 1453 56 1459 100 1459 c 2
 440 1459 l 2
 528 1459 573 1464 645 1464 c 0
 879 1464 1091 1340 1091 1120 c 0
 1091 816 835 762 835 730 c 0
 835 697 1161 245 1244 156 c 0
 1253 146 1325 60 1431 59 c 0
 1443 59 1461 51 1461 35 c 0
 1461 0 1456 -17 1309 -17 c 0
 1302 -17 1206 -13 1133 30 c 0
 1025 94 870 351 765 522 c 0
 679 662 639 683 615 683 c 0
 603 683 583 682 571 682 c 0
 478 682 468 683 446 683 c 0
 415 683 412 681 412 536 c 0
 412 248 413 277 413 248 c 0
 413 0 665 86 665 18 c 0
 665 -2 657 -15 629 -15 c 0
 620 -15 356 -1 335 -1 c 0
 237 -1 133 -8 111 -8 c 0
 90 -8 67 -2 67 25 c 0
 67 96 239 5 239 231 c 0
 239 363 242 649 242 876 c 0
 242 1092 239 1166 239 1222 c 0
 239 1444 40 1362 40 1426 c 0
412 1098 m 2
 412 830 412 789 429 778 c 0
 455 761 477 760 516 760 c 2
 536 760 l 2
 555 760 575 759 596 759 c 0
 846 759 920 898 920 1044 c 0
 920 1185 816 1380 521 1380 c 0
 417 1380 412 1339 412 1155 c 2
 412 1098 l 2
EndSplineSet
AlternateSubs2: "'aalt' Access All Alternates lookup 0 subtable" r.sc
AlternateSubs2: "'aalt' Access All Alternates in Latin lookup 0 subtable" r.sc
Position2: "'cpsp' Capital Spacing in Latin lookup 2 subtable" dx=11 dy=0 dh=22 dv=0
Substitution2: "c2scCapitalstoSmallCapitalsinLa subtable" r.sc
EndChar

StartChar: S
Encoding: 83 83 45
Width: 1221
VWidth: 0
Flags: HW
PickledData: "(dp1
S'spacing_anchors_slanted'
p2
I00
s."
HStem: -27 91<423.518 820.293> 1395 84<413.114 775.116>
VStem: 120 62<341.246 425.965> 161 132<1029.27 1259.24> 970 131<232.158 494.419> 995 57<1075.04 1162.78>
AnchorPoint: "cedilla" 626 -162 basechar 0
AnchorPoint: "top" 624 1480 basechar 0
AnchorPoint: "l;bl" 30 40 basechar 0
AnchorPoint: "l;o" 0 450 basechar 0
AnchorPoint: "l;hi" 60 1500 basechar 0
AnchorPoint: "l;t" 0 1150 basechar 0
AnchorPoint: "l;x" 0 850 basechar 0
AnchorPoint: "r;bl" 1161 40 basechar 0
AnchorPoint: "r;o" 1221 450 basechar 0
AnchorPoint: "r;hi" 1191 1500 basechar 0
AnchorPoint: "r;t" 1221 1150 basechar 0
AnchorPoint: "r;x" 1221 850 basechar 0
LayerCount: 3
Fore
SplineSet
120 383 m 0xe8
 120 414 135 426 150 426 c 0
 163 426 177 417 182 405 c 0
 234 281 335 64 630 64 c 0
 837 64 970 183 970 357 c 0xe8
 970 633 616 617 349 777 c 0
 232 847 161 938 161 1077 c 0
 161 1320 357 1479 636 1479 c 0
 768 1479 904 1412 932 1412 c 0
 944 1412 964 1427 979 1427 c 0
 991 1427 1008 1422 1010 1411 c 0
 1027 1316 1052 1160 1052 1132 c 0
 1052 1089 1038 1075 1025 1075 c 0
 1008 1075 1002 1085 995 1103 c 0
 943 1228 921 1244 861 1297 c 0
 785 1364 686 1395 591 1395 c 0
 429 1395 293 1311 293 1167 c 0xd4
 293 840 768 931 1020 660 c 0
 1070 606 1101 536 1101 441 c 0
 1101 147 884 -27 624 -27 c 0
 450 -27 349 -17 221 51 c 0
 177 75 120 365 120 383 c 0xe8
EndSplineSet
AlternateSubs2: "'aalt' Access All Alternates lookup 0 subtable" s.sc
AlternateSubs2: "'aalt' Access All Alternates in Latin lookup 0 subtable" s.sc
Position2: "'cpsp' Capital Spacing in Latin lookup 2 subtable" dx=9 dy=0 dh=18 dv=0
Substitution2: "c2scCapitalstoSmallCapitalsinLa subtable" s.sc
EndChar

StartChar: T
Encoding: 84 84 46
Width: 1439
VWidth: 5
Flags: HMW
PickledData: "(dp1
S'spacing_anchors_slanted'
p2
I00
s."
HStem: -7 20G<483.5 537.5 915 959> 1348 106<255.887 631.907 801.846 1306.58>
VStem: 40 107<1195.96 1334.84> 634 164<426.113 1346.67> 1344 55<1187.1 1289.42>
AnchorPoint: "top" 719 1480 basechar 0
AnchorPoint: "r;s;AE" 1199 -150 basechar 0
AnchorPoint: "cedilla" 715 -162 basechar 0
AnchorPoint: "l;bl" 180 40 basechar 0
AnchorPoint: "l;o" 180 450 basechar 0
AnchorPoint: "l;hi" 0 1500 basechar 0
AnchorPoint: "l;t" 0 1150 basechar 0
AnchorPoint: "l;x" 180 850 basechar 0
AnchorPoint: "r;bl" 1259 40 basechar 0
AnchorPoint: "r;o" 1259 450 basechar 0
AnchorPoint: "r;hi" 1439 1500 basechar 0
AnchorPoint: "r;t" 1439 1150 basechar 0
AnchorPoint: "r;x" 1259 850 basechar 0
LayerCount: 3
Fore
SplineSet
40 1188 m 0
 40 1248 53 1346 61 1398 c 0
 68 1444 63 1470 124 1470 c 0
 267 1470 250 1454 703 1454 c 0
 1006 1454 1224 1458 1333 1465 c 0
 1338 1465 1343 1466 1347 1466 c 0
 1381 1466 1386 1437 1386 1431 c 0
 1386 1406 1399 1282 1399 1265 c 0
 1399 1194 1394 1187 1367 1187 c 0
 1362 1187 1350 1189 1344 1212 c 0
 1318 1309 1309 1348 1136 1348 c 2
 870 1348 l 2
 804 1348 798 1339 798 1217 c 2
 798 1117 l 2
 798 640 793 552 793 366 c 0
 793 313 791 269 791 233 c 0
 791 177 796 141 820 117 c 0
 898 41 991 81 991 27 c 0
 991 -5 976 -8 942 -8 c 0
 888 -8 782 9 714 9 c 0
 661 9 570 -7 505 -7 c 0
 462 -7 430 1 430 26 c 0
 430 100 601 27 615 156 c 0
 631 300 634 843 634 929 c 0
 634 1146 632 1296 632 1296 c 2
 632 1347 627 1354 478 1354 c 0
 174 1354 169 1332 147 1303 c 0
 91 1230 115 1154 64 1154 c 0
 52 1154 40 1160 40 1188 c 0
EndSplineSet
AlternateSubs2: "'aalt' Access All Alternates lookup 0 subtable" t.sc
AlternateSubs2: "'aalt' Access All Alternates in Latin lookup 0 subtable" t.sc
Position2: "'cpsp' Capital Spacing in Latin lookup 2 subtable" dx=11 dy=0 dh=22 dv=0
Substitution2: "c2scCapitalstoSmallCapitalsinLa subtable" t.sc
EndChar

StartChar: U
Encoding: 85 85 47
Width: 1669
VWidth: 5
Flags: HW
PickledData: "(dp1
S'spacing_anchors_slanted'
p2
I00
s."
HStem: -39 96<644.741 1176.07> 1372 77<1214.94 1375.39> 1388 67<40.3171 185.819>
VStem: 234 176<336.096 1349.5> 1415 94<632.531 1336.37>
AnchorPoint: "top" 892 1480 basechar 0
AnchorPoint: "l;bl" 120 40 basechar 0
AnchorPoint: "l;o" 60 450 basechar 0
AnchorPoint: "l;hi" 0 1500 basechar 0
AnchorPoint: "l;t" 0 1150 basechar 0
AnchorPoint: "l;x" 0 850 basechar 0
AnchorPoint: "r;bl" 1549 40 basechar 0
AnchorPoint: "r;o" 1639 450 basechar 0
AnchorPoint: "r;hi" 1669 1500 basechar 0
AnchorPoint: "r;t" 1669 1150 basechar 0
AnchorPoint: "r;x" 1669 850 basechar 0
LayerCount: 3
Fore
SplineSet
40 1427 m 0xb8
 40 1441 41 1455 88 1455 c 0xb8
 146 1455 204 1446 319 1446 c 0
 415 1446 358 1450 512 1450 c 0
 530 1450 556 1448 556 1422 c 0
 556 1353 412 1482 412 1188 c 2
 412 1131 l 2
 412 953 410 808 410 688 c 0
 410 408 410 57 885 57 c 0
 1115 57 1415 58 1415 663 c 0
 1415 1011 1414 1011 1414 1098 c 0
 1414 1208 1411 1323 1340 1372 c 0
 1290 1406 1213 1385 1213 1418 c 0
 1213 1435 1221 1449 1253 1449 c 0xd8
 1278 1449 1389 1446 1411 1446 c 0
 1497 1446 1547 1452 1585 1452 c 0
 1628 1452 1629 1435 1629 1425 c 0
 1629 1393 1553 1382 1530 1338 c 0
 1511 1303 1508 1278 1508 1203 c 0
 1508 1169 1509 1125 1509 1064 c 0
 1509 281 1429 112 1177 6 c 0
 1103 -25 953 -39 884 -39 c 0
 635 -39 498 2 400 92 c 0
 236 241 234 428 234 848 c 2
 234 883 l 2
 234 1024 238 1113 238 1177 c 0
 238 1319 225 1367 85 1388 c 0
 42 1394 40 1417 40 1427 c 0xb8
EndSplineSet
AlternateSubs2: "'aalt' Access All Alternates lookup 0 subtable" u.sc
AlternateSubs2: "'aalt' Access All Alternates in Latin lookup 0 subtable" u.sc
Position2: "'cpsp' Capital Spacing in Latin lookup 2 subtable" dx=12 dy=0 dh=25 dv=0
Substitution2: "c2scCapitalstoSmallCapitalsinLa subtable" u.sc
EndChar

StartChar: V
Encoding: 86 86 48
Width: 1652
VWidth: 0
Flags: HMW
PickledData: "(dp1
S'spacing_anchors_slanted'
p2
I00
s."
HStem: -62 21G<875.5 893> 1435 20G<88 121.5 1242.5 1273.5 1522 1583>
AnchorPoint: "l;bl" 380 40 basechar 0
AnchorPoint: "l;o" 250 450 basechar 0
AnchorPoint: "l;hi" 0 1500 basechar 0
AnchorPoint: "l;t" 50 1150 basechar 0
AnchorPoint: "l;x" 150 850 basechar 0
AnchorPoint: "r;bl" 1322 40 basechar 0
AnchorPoint: "r;o" 1452 450 basechar 0
AnchorPoint: "r;hi" 1652 1500 basechar 0
AnchorPoint: "r;t" 1602 1150 basechar 0
AnchorPoint: "r;x" 1532 850 basechar 0
LayerCount: 3
Fore
SplineSet
40 1426 m 0
 40 1453 77 1455 99 1455 c 0
 144 1455 189 1446 324 1446 c 0
 360 1446 414 1451 456 1451 c 0
 517 1451 524 1449 524 1428 c 0
 524 1398 441 1400 441 1332 c 0
 441 1245 506 1140 727 639 c 0
 795 484 904 244 931 244 c 0
 951 244 1367 1220 1367 1329 c 0
 1367 1425 1218 1385 1218 1434 c 0
 1218 1452 1224 1455 1261 1455 c 0
 1286 1455 1319 1452 1390 1452 c 0
 1467 1452 1472 1456 1572 1456 c 0
 1594 1456 1612 1452 1612 1428 c 0
 1612 1382 1535 1407 1480 1281 c 2
 1025 240 l 2
 893 -60 904 -62 882 -62 c 0
 869 -62 842 -50 790 80 c 0
 725 242 672 355 579 555 c 0
 288 1186 289 1252 232 1317 c 0
 130 1432 40 1354 40 1426 c 0
EndSplineSet
AlternateSubs2: "'aalt' Access All Alternates lookup 0 subtable" v.sc
AlternateSubs2: "'aalt' Access All Alternates in Latin lookup 0 subtable" v.sc
Position2: "'cpsp' Capital Spacing in Latin lookup 2 subtable" dx=12 dy=0 dh=25 dv=0
Substitution2: "c2scCapitalstoSmallCapitalsinLa subtable" v.sc
EndChar

StartChar: W
Encoding: 87 87 49
Width: 2274
VWidth: 0
Flags: HMW
PickledData: "(dp1
S'spacing_anchors_slanted'
p2
I00
s."
HStem: -56 21G<842 874 1477.5 1503> 1392 63<662.027 823.949>
AnchorPoint: "r;x" 2154 850 basechar 0
AnchorPoint: "r;t" 2224 1150 basechar 0
AnchorPoint: "r;hi" 2274 1500 basechar 0
AnchorPoint: "r;o" 2074 450 basechar 0
AnchorPoint: "r;bl" 1944 40 basechar 0
AnchorPoint: "l;x" 142 850 basechar 0
AnchorPoint: "l;t" 42 1150 basechar 0
AnchorPoint: "l;hi" 0 1500 basechar 0
AnchorPoint: "l;o" 242 450 basechar 0
AnchorPoint: "l;bl" 372 40 basechar 0
AnchorPoint: "top" 1181 1480 basechar 0
LayerCount: 3
Fore
SplineSet
40 1423 m 0
 40 1450 74 1453 96 1453 c 0
 141 1453 186 1446 321 1446 c 0
 420 1446 471 1452 498 1452 c 0
 522 1452 526 1447 526 1428 c 0
 526 1396 438 1400 438 1332 c 0
 438 1269 509 1140 729 639 c 0
 797 484 888 259 908 259 c 0
 921 259 1019 483 1075 625 c 0
 1096 679 1117 697 1117 736 c 0
 1117 763 886 1292 835 1350 c 0
 794 1396 772 1389 744 1392 c 0
 662 1400 662 1407 662 1426 c 0
 662 1453 699 1455 721 1455 c 0
 766 1455 811 1446 946 1446 c 0
 965 1446 1031 1454 1082 1454 c 0
 1116 1454 1143 1451 1143 1438 c 0
 1143 1408 1055 1402 1055 1334 c 0
 1055 1289 1079 1239 1118 1151 c 0
 1136 1110 1196 945 1214 945 c 0
 1237 945 1362 1296 1362 1336 c 0
 1362 1421 1240 1391 1240 1434 c 0
 1240 1452 1255 1457 1284 1457 c 0
 1312 1457 1377 1453 1415 1453 c 2
 1450 1453 l 2
 1476 1453 1505 1454 1559 1458 c 0
 1565 1458 1571 1459 1577 1459 c 0
 1592 1459 1603 1455 1603 1438 c 0
 1603 1402 1543 1413 1511 1379 c 0
 1493 1360 1474 1330 1455 1284 c 0
 1273 849 1270 859 1270 818 c 0
 1270 807 1508 244 1543 244 c 0
 1576 244 1994 1262 1994 1329 c 0
 1994 1425 1843 1385 1843 1434 c 0
 1843 1452 1846 1455 1883 1455 c 0
 1908 1455 1941 1452 2012 1452 c 0
 2089 1452 2094 1456 2194 1456 c 0
 2216 1456 2234 1452 2234 1428 c 0
 2234 1395 2194 1399 2151 1356 c 0
 2116 1322 2104 1286 2070 1209 c 0
 1505 -56 1517 -56 1489 -56 c 0
 1466 -56 1414 82 1395 126 c 0
 1308 325 1191 616 1171 616 c 0
 1141 616 913 34 908 18 c 0
 888 -41 884 -62 864 -62 c 0
 820 -62 768 150 581 555 c 0
 431 880 369 1045 330 1142 c 0
 189 1494 40 1328 40 1423 c 0
EndSplineSet
AlternateSubs2: "'aalt' Access All Alternates lookup 0 subtable" w.sc
AlternateSubs2: "'aalt' Access All Alternates in Latin lookup 0 subtable" w.sc
Position2: "'cpsp' Capital Spacing in Latin lookup 2 subtable" dx=17 dy=0 dh=34 dv=0
Substitution2: "c2scCapitalstoSmallCapitalsinLa subtable" w.sc
EndChar

StartChar: X
Encoding: 88 88 50
Width: 1538
VWidth: 0
Flags: HMW
PickledData: "(dp1
S'spacing_anchors_slanted'
p2
I00
s."
HStem: -3 84<1330.84 1493.2> -1 58<390.29 517.74> 1395 67<41.3818 186.86>
AnchorPoint: "l;bl" 0 40 basechar 0
AnchorPoint: "l;o" 60 450 basechar 0
AnchorPoint: "l;hi" 0 1500 basechar 0
AnchorPoint: "l;t" 60 1150 basechar 0
AnchorPoint: "l;x" 120 850 basechar 0
AnchorPoint: "r;bl" 1538 40 basechar 0
AnchorPoint: "r;o" 1478 450 basechar 0
AnchorPoint: "r;hi" 1538 1500 basechar 0
AnchorPoint: "r;t" 1478 1150 basechar 0
AnchorPoint: "r;x" 1418 850 basechar 0
LayerCount: 3
Fore
SplineSet
40 1436 m 0
 40 1458 50 1462 127 1462 c 0
 214 1462 190 1454 310 1454 c 0
 333 1454 508 1458 525 1458 c 0
 553 1458 569 1458 569 1439 c 0
 569 1382 478 1428 478 1360 c 0
 478 1317 552 1216 588 1162 c 0
 716 970 770 877 793 877 c 0
 808 877 817 890 839 922 c 0
 923 1044 1110 1294 1110 1342 c 0
 1110 1439 1001 1386 1001 1441 c 0
 1001 1458 1012 1462 1032 1462 c 0
 1121 1462 1127 1454 1198 1454 c 0
 1391 1454 1343 1462 1391 1462 c 0
 1407 1462 1423 1458 1423 1442 c 0
 1423 1396 1358 1415 1270 1354 c 0
 1235 1330 1205 1289 1162 1232 c 0
 1034 1063 843 810 843 802 c 0
 843 777 871 756 1102 420 c 0
 1169 322 1312 129 1369 81 c 0
 1387 65 1498 65 1498 27 c 0
 1498 11 1493 -3 1431 -3 c 0
 1366 -3 1235 12 1213 12 c 0
 1079 12 1029 0 1004 0 c 0
 987 0 976 4 976 27 c 0
 976 80 1081 43 1081 114 c 0
 1081 164 957 327 761 621 c 0
 748 641 734 656 728 656 c 0
 719 656 707 628 684 592 c 0
 552 387 382 204 382 112 c 0
 382 94 388 57 493 57 c 0
 508 57 518 49 518 22 c 0
 518 2 497 -1 454 -1 c 0
 418 -1 292 7 274 7 c 0
 237 7 152 -2 110 -2 c 0
 74 -2 52 0 52 36 c 0
 52 79 116 42 196 105 c 0
 298 186 423 370 529 519 c 0
 612 635 680 716 680 730 c 0
 680 748 609 829 401 1128 c 1
 335 1225 217 1374 122 1395 c 0
 95 1401 40 1402 40 1436 c 0
EndSplineSet
AlternateSubs2: "'aalt' Access All Alternates lookup 0 subtable" x.sc
AlternateSubs2: "'aalt' Access All Alternates in Latin lookup 0 subtable" x.sc
Position2: "'cpsp' Capital Spacing in Latin lookup 2 subtable" dx=11 dy=0 dh=23 dv=0
Substitution2: "c2scCapitalstoSmallCapitalsinLa subtable" x.sc
EndChar

StartChar: Y
Encoding: 89 89 51
Width: 1458
VWidth: 5
Flags: HMW
PickledData: "(dp1
S'spacing_anchors_slanted'
p2
I00
s."
HStem: 0 63<497.055 640 889.395 1029.96> 1383 61<40.2127 189.617>
VStem: 672 177<89.2369 750.143>
AnchorPoint: "r;s;AE" 1108 -150 basechar 0
AnchorPoint: "top" 766 1480 basechar 0
AnchorPoint: "l;bl" 310 40 basechar 0
AnchorPoint: "l;o" 220 450 basechar 0
AnchorPoint: "l;hi" 0 1500 basechar 0
AnchorPoint: "l;t" 60 1150 basechar 0
AnchorPoint: "l;x" 160 850 basechar 0
AnchorPoint: "r;bl" 1168 40 basechar 0
AnchorPoint: "r;o" 1258 450 basechar 0
AnchorPoint: "r;hi" 1458 1500 basechar 0
AnchorPoint: "r;t" 1398 1150 basechar 0
AnchorPoint: "r;x" 1318 850 basechar 0
LayerCount: 3
Fore
SplineSet
40 1410 m 4
 40 1440 65 1444 167 1444 c 4
 194 1444 251 1440 286 1440 c 4
 333 1440 402 1442 460 1442 c 4
 532 1442 564 1432 564 1418 c 4
 564 1376 477 1384 477 1345 c 4
 477 1283 550 1189 587 1132 c 4
 681 985 803 822 817 822 c 4
 846 822 889 914 954 1011 c 4
 1026 1119 1111 1239 1111 1294 c 4
 1111 1416 958 1350 958 1419 c 4
 958 1439 979 1443 1015 1443 c 4
 1038 1443 1067 1441 1099 1441 c 4
 1191 1441 1240 1439 1317 1439 c 4
 1375 1439 1418 1437 1418 1409 c 4
 1418 1389 1373 1387 1330 1353 c 4
 1187 1241 1027 933 898 768 c 4
 853 711 848 660 848 510 c 4
 848 454 849 341 849 272 c 6
 849 224 l 6
 849 76 932 63 959 63 c 4
 966 63 993 61 1000 61 c 4
 1020 61 1030 44 1030 33 c 4
 1030 6 1017 0 980 0 c 4
 951 0 839 2 776 2 c 4
 642 2 635 -7 551 -7 c 4
 506 -7 494 2 494 16 c 4
 494 59 538 45 582 58 c 4
 622 70 668 102 668 182 c 4
 668 233 672 219 672 597 c 4
 672 722 643 725 351 1167 c 4
 216 1372 152 1382 92 1383 c 4
 73 1383 40 1383 40 1410 c 4
EndSplineSet
AlternateSubs2: "'aalt' Access All Alternates lookup 0 subtable" y.sc
AlternateSubs2: "'aalt' Access All Alternates in Latin lookup 0 subtable" y.sc
Position2: "'cpsp' Capital Spacing in Latin lookup 2 subtable" dx=11 dy=0 dh=22 dv=0
Substitution2: "c2scCapitalstoSmallCapitalsinLa subtable" y.sc
EndChar

StartChar: Z
Encoding: 90 90 52
Width: 1153
VWidth: 0
Flags: HW
PickledData: "(dp1
S'spacing_anchors_slanted'
p2
I00
s."
HStem: -2 92<304.077 964.726> 1345 99<221.995 803.974>
VStem: 40 264<14 153> 804 251<1297 1428>
AnchorPoint: "top" 562 1480 basechar 0
AnchorPoint: "l;bl" 0 40 basechar 0
AnchorPoint: "l;o" 0 450 basechar 0
AnchorPoint: "l;hi" 0 1500 basechar 0
AnchorPoint: "l;t" 0 1150 basechar 0
AnchorPoint: "l;x" 0 850 basechar 0
AnchorPoint: "r;bl" 1153 40 basechar 0
AnchorPoint: "r;o" 1153 450 basechar 0
AnchorPoint: "r;hi" 1153 1500 basechar 0
AnchorPoint: "r;t" 1153 1150 basechar 0
AnchorPoint: "r;x" 1123 850 basechar 0
LayerCount: 3
Fore
SplineSet
40 28 m 0
 40 54 103 119 196 284 c 0
 352 560 804 1270 804 1324 c 0
 804 1344 768 1345 717 1345 c 0
 530 1345 417 1340 342 1338 c 0
 149 1334 133 1142 98 1142 c 0
 88 1142 72 1149 72 1175 c 0
 72 1246 89 1277 89 1310 c 0
 89 1343 93 1354 99 1406 c 0
 103 1440 116 1450 156 1450 c 0
 200 1450 334 1444 598 1444 c 0
 840 1444 786 1446 966 1446 c 0
 1026 1446 1055 1440 1055 1416 c 0
 1055 1364 304 175 304 131 c 0
 304 90 409 90 540 90 c 0
 795 90 903 96 1005 154 c 0
 1063 187 1071 225 1095 225 c 0
 1098 225 1113 224 1113 203 c 0
 1113 172 1079 114 1048 64 c 0
 1026 28 1021 0 962 0 c 0
 742 0 762 -2 588 -2 c 0
 59 -2 249 -5 82 -5 c 0
 59 -5 40 0 40 28 c 0
EndSplineSet
AlternateSubs2: "'aalt' Access All Alternates lookup 0 subtable" z.sc
AlternateSubs2: "'aalt' Access All Alternates in Latin lookup 0 subtable" z.sc
Position2: "'cpsp' Capital Spacing in Latin lookup 2 subtable" dx=8 dy=0 dh=17 dv=0
Substitution2: "c2scCapitalstoSmallCapitalsinLa subtable" z.sc
EndChar

StartChar: f_f
Encoding: 65536 -1 53
Width: 1243
VWidth: 0
Flags: HMW
PickledData: "(dp1
S'spacing_anchors_slanted'
p2
I00
s."
HStem: -1 21G<130 192.5 1040 1054.5> 772 82<59.0388 221.932 366.057 758.884 906.375 1146.62> 1383 84<554.156 757.639> 1410 122<1071.29 1284.3>
VStem: 223 142<89.5385 768.893 860.063 1111.73> 759 142<75.0121 769.894 854.964 1145.25>
AnchorPoint: "r;t" 1243 1150 basechar 0
AnchorPoint: "r;o" 1203 450 basechar 0
AnchorPoint: "r;k;hi" 1393 1500 basechar 0
AnchorPoint: "r;x" 1243 850 basechar 0
AnchorPoint: "r;bl" 1203 40 basechar 0
AnchorPoint: "l;t" 60 1150 basechar 0
AnchorPoint: "l;hi" 120 1500 basechar 0
AnchorPoint: "l;o" 0 450 basechar 0
AnchorPoint: "l;x" 0 850 basechar 0
AnchorPoint: "l;bl" 0 40 basechar 0
LayerCount: 3
Fore
SplineSet
59 807 m 0xdc
 59 845 61 862 128 862 c 0
 140 862 172 860 188 860 c 0
 223 860 223 867 223 896 c 0
 223 1046 297 1233 430 1347 c 0
 533 1435 650 1467 729 1467 c 0xec
 860 1467 934 1389 946 1389 c 0
 962 1389 1062 1532 1213 1532 c 0
 1277 1532 1326 1512 1326 1478 c 0
 1326 1465 1324 1442 1317 1418 c 0
 1305 1377 1296 1359 1263 1359 c 0
 1227 1359 1237 1410 1134 1410 c 0
 949 1410 906 1178 906 877 c 0
 906 860 907 855 923 855 c 0
 953 855 981 854 1007 854 c 0
 1145 854 1126 894 1158 894 c 0
 1173 894 1173 874 1173 862 c 0
 1173 849 1165 821 1147 790 c 0
 1139 777 1121 772 1096 772 c 0
 1000 772 1063 770 935 770 c 0
 904 770 901 769 901 548 c 0
 901 466 900 352 900 197 c 0
 900 -3 1066 85 1066 22 c 0
 1066 12 1066 -2 1043 -2 c 0
 1037 -2 900 10 852 10 c 0
 790 10 810 0 698 0 c 0
 680 0 646 0 646 22 c 0
 646 74 754 30 754 160 c 0
 754 217 759 351 759 736 c 0
 759 767 752 772 706 772 c 0
 509 772 724 770 396 770 c 0
 378 770 366 767 366 749 c 2
 366 510 l 2
 366 454 365 406 365 365 c 2
 365 250 l 2
 365 142 369 121 398 88 c 0
 423 60 542 52 542 21 c 0
 542 10 530 0 514 0 c 0
 508 0 358 10 310 10 c 0
 257 10 248 -1 137 -1 c 0
 123 -1 110 4 110 22 c 0
 110 73 223 24 223 158 c 0
 223 215 222 356 222 741 c 0
 222 766 210 769 184 769 c 2
 100 769 l 2
 59 769 59 794 59 807 c 0xdc
364 886 m 0
 364 864 367 858 388 858 c 0
 472 858 692 854 726 854 c 0
 761 854 763 867 763 896 c 0
 763 1118 843 1222 843 1257 c 0
 843 1293 719 1383 647 1383 c 0
 546 1383 364 1266 364 886 c 0
EndSplineSet
Ligature2: "liga subtable" f f
LCarets2: 1 0 
EndChar

StartChar: f_i
Encoding: 65537 -1 54
Width: 1113
VWidth: 0
Flags: HMW
PickledData: "(dp1
S'spacing_anchors_slanted'
p2
I00
s."
HStem: -10 54<407.093 536.402 639.09 726.049 942.028 1071.86> 772 82<60.9196 220.925 369.242 737.732> 1396 110<553.621 799.095>
VStem: 221 144<69.4646 769.099 849.013 1124.58> 753 145<69.9806 765.703>
AnchorPoint: "r;bl" 1113 40 basechar 0
AnchorPoint: "r;x" 1109 850 basechar 0
AnchorPoint: "r;o" 1109 450 basechar 0
AnchorPoint: "l;t" 60 1150 basechar 0
AnchorPoint: "l;hi" 120 1500 basechar 0
AnchorPoint: "l;o" 0 450 basechar 0
AnchorPoint: "l;x" 0 850 basechar 0
AnchorPoint: "l;bl" 0 40 basechar 0
AnchorPoint: "r;hi" 1073 1500 basechar 0
AnchorPoint: "r;t" 1073 1150 basechar 0
LayerCount: 3
Fore
SplineSet
60 798 m 0
 60 820 64 853 105 853 c 0
 122 853 171 849 188 849 c 0
 223 849 230 867 230 896 c 0
 230 1318 520 1506 744 1506 c 0
 851 1506 872 1455 872 1427 c 0
 872 1421 851 1290 820 1290 c 0
 804 1290 800 1316 766 1339 c 0
 732 1362 685 1396 600 1396 c 0
 565 1396 523 1389 484 1346 c 0
 464 1324 365 1183 365 886 c 0
 365 864 367 847 388 847 c 0
 521 847 591 848 656 848 c 0
 754 848 832 904 880 904 c 0
 892 904 912 890 912 861 c 0
 912 800 898 861 898 250 c 0
 898 133 909 69 986 48 c 0
 1029 36 1073 44 1073 8 c 0
 1073 -4 1070 -14 1037 -14 c 0
 990 -14 947 0 864 0 c 0
 759 0 721 -13 682 -13 c 0
 652 -13 634 -11 634 4 c 0
 634 18 651 32 670 38 c 0
 749 64 753 66 753 421 c 2
 753 624 l 2
 753 643 754 660 754 675 c 0
 754 726 726 774 676 774 c 0
 642 774 404 780 404 780 c 2
 386 780 370 772 370 754 c 2
 365 630 l 2
 360 504 359 413 359 344 c 0
 359 282 360 238 360 201 c 0
 360 90 388 60 492 44 c 0
 525 39 538 23 538 9 c 0
 538 1 519 -10 498 -10 c 0
 492 -10 360 -2 312 -2 c 0
 250 -2 158 -8 140 -8 c 0
 116 -8 107 0 107 16 c 0
 107 64 220 9 220 153 c 0
 220 210 221 351 221 736 c 0
 221 767 219 769 193 769 c 0
 171 769 139 772 104 772 c 0
 62 772 60 778 60 798 c 0
EndSplineSet
Ligature2: "liga subtable" f i
LCarets2: 1 0 
EndChar

StartChar: f_l
Encoding: 65538 -1 55
Width: 1110
VWidth: 0
Flags: HMW
PickledData: "(dp1
S'spacing_anchors_slanted'
p2
I00
s."
HStem: -10 78<116.523 211.918> -7 50<419.16 534.449> 774 86<59.236 220.858 372.44 642.318> 1402 102<539.958 758.323> 1516 20G<874.5 908.5>
VStem: 223 142<73.9939 777.967 859.304 1127> 759 143<72.6546 1376.85>
AnchorPoint: "r;t" 1110 1150 basechar 0
AnchorPoint: "r;o" 1110 450 basechar 0
AnchorPoint: "r;hi" 1110 1500 basechar 0
AnchorPoint: "r;x" 1110 850 basechar 0
AnchorPoint: "r;bl" 1110 40 basechar 0
AnchorPoint: "l;t" 60 1150 basechar 0
AnchorPoint: "l;hi" 120 1500 basechar 0
AnchorPoint: "l;o" 0 450 basechar 0
AnchorPoint: "l;x" 0 850 basechar 0
AnchorPoint: "l;bl" 0 40 basechar 0
LayerCount: 3
Fore
SplineSet
58 798 m 0xbe
 58 850 76 860 142 860 c 0
 168 860 187 859 200 859 c 0
 223 859 229 863 229 886 c 0
 229 1308 534 1504 689 1504 c 0
 717 1504 762 1499 782 1499 c 0
 853 1499 851 1536 898 1536 c 0
 919 1536 919 1506 919 1486 c 0
 919 1455 908 1375 908 1188 c 2
 908 1073 l 2
 908 898 902 903 902 801 c 2
 902 190 l 2
 902 -4 1070 75 1070 15 c 0
 1070 -7 1060 -12 1022 -12 c 0
 980 -12 889 -3 826 -3 c 0
 731 -3 721 -12 676 -12 c 0
 654 -12 642 2 642 8 c 0
 642 60 759 20 759 183 c 0
 759 977 763 806 763 1258 c 0
 763 1402 661 1402 614 1402 c 0
 575 1402 541 1390 512 1368 c 0
 411 1292 372 1057 372 923 c 0
 372 900 373 855 382 855 c 0
 469 855 523 855 566 861 c 0
 588 864 635 896 657 896 c 0
 667 896 672 890 672 881 c 0
 672 859 632 778 586 778 c 0
 490 778 529 779 401 779 c 0
 383 779 369 767 369 749 c 0
 369 735 365 481 365 321 c 2
 365 265 l 2
 365 62 406 63 502 43 c 0
 534 36 535 23 535 9 c 0
 535 1 534 -7 513 -7 c 0x7e
 507 -7 404 7 356 7 c 0
 294 7 177 -10 155 -10 c 0
 137 -10 115 0 115 22 c 0
 115 54 176 44 195 68 c 0
 209 85 223 119 223 180 c 0
 223 237 221 351 221 736 c 0
 221 767 209 778 183 778 c 0
 161 778 140 774 105 774 c 0
 63 774 58 785 58 798 c 0xbe
EndSplineSet
Ligature2: "liga subtable" f l
LCarets2: 1 0 
EndChar

StartChar: f_f_i
Encoding: 65539 -1 56
Width: 1646
VWidth: 0
Flags: HMW
PickledData: "(dp1
S'spacing_anchors_slanted'
p2
I00
s."
HStem: -13 51<651.161 731.625 1178.28 1262.44> -3 61<935.346 1073.6> 779 75<58.114 220.849 365.002 760.75 905.375 1278.16> 1383 84<552.489 771.301> 1404 107<1088.04 1285.9>
VStem: 221 144<87.5853 774.891 857.035 1106.87> 761 139<75.5532 774.877 854.964 1132.61> 1295 142<72.7486 769.922>
AnchorPoint: "r;bl" 1646 40 basechar 0
AnchorPoint: "r;x" 1646 850 basechar 0
AnchorPoint: "r;o" 1646 450 basechar 0
AnchorPoint: "l;t" 60 1150 basechar 0
AnchorPoint: "l;hi" 120 1500 basechar 0
AnchorPoint: "l;o" 0 450 basechar 0
AnchorPoint: "l;x" 0 850 basechar 0
AnchorPoint: "l;bl" 0 40 basechar 0
AnchorPoint: "r;hi" 1606 1500 basechar 0
AnchorPoint: "r;t" 1606 1150 basechar 0
LayerCount: 3
Fore
SplineSet
58 807 m 0x6380
 58 845 60 857 127 857 c 2
 187 857 l 2
 222 857 225 867 225 896 c 0
 225 1215 479 1467 728 1467 c 0x6b80
 865 1467 947 1374 959 1374 c 0
 975 1374 1083 1511 1250 1511 c 0
 1314 1511 1406 1503 1406 1442 c 0
 1406 1411 1385 1300 1353 1300 c 0
 1327 1300 1335 1323 1303 1348 c 0
 1269 1375 1204 1404 1151 1404 c 0
 966 1404 905 1178 905 877 c 0
 905 860 906 855 922 855 c 0
 952 855 980 854 1006 854 c 0
 1144 854 1200 860 1265 860 c 0
 1363 860 1373 914 1421 914 c 0
 1433 914 1445 903 1445 874 c 0
 1445 831 1437 830 1437 658 c 0
 1437 566 1438 659 1438 201 c 0
 1438 -13 1606 78 1606 18 c 0
 1606 6 1603 -7 1563 -7 c 0
 1516 -7 1489 0 1406 0 c 0
 1301 0 1263 -13 1224 -13 c 0
 1194 -13 1176 -11 1176 4 c 0
 1176 18 1193 32 1212 38 c 0xa780
 1291 64 1295 66 1295 421 c 2
 1295 624 l 2
 1295 643 1296 660 1296 675 c 0
 1296 726 1268 779 1218 779 c 0
 1184 779 1120 777 1095 777 c 0
 999 777 1062 775 934 775 c 0
 903 775 900 769 900 548 c 0
 900 466 903 391 903 236 c 0
 903 100 936 71 976 58 c 0
 1020 44 1075 45 1075 22 c 0
 1075 3 1072 -3 1050 -3 c 0
 1023 -3 969 5 859 6 c 0
 797 6 791 -6 697 -6 c 0
 679 -6 650 -3 650 19 c 0
 650 33 667 40 679 43 c 0
 710 50 761 40 761 184 c 2
 761 736 l 2
 761 767 761 779 725 779 c 0
 528 779 723 775 395 775 c 0
 371 775 365 767 365 749 c 2
 365 510 l 2
 365 454 364 406 364 365 c 2
 364 250 l 2
 364 142 381 120 407 86 c 0
 430 56 541 52 541 21 c 0
 541 10 529 -4 513 -4 c 0
 507 -4 357 8 309 8 c 0
 251 8 223 -8 167 -8 c 0
 153 -8 119 -8 119 16 c 0
 119 64 222 24 222 158 c 0
 222 215 221 356 221 741 c 0
 221 772 209 776 183 776 c 2
 99 776 l 2
 58 776 58 794 58 807 c 0x6380
365 883 m 0
 365 855 367 854 574 854 c 0
 631 854 688 854 745 854 c 0
 765 854 767 867 767 896 c 0
 767 1138 855 1221 855 1256 c 0
 855 1294 726 1383 666 1383 c 0
 485 1383 365 1155 365 883 c 0
EndSplineSet
Ligature2: "liga subtable" f f i
LCarets2: 2 0 0 
EndChar

StartChar: f_f_l
Encoding: 65540 -1 57
Width: 1655
VWidth: 0
Flags: HMW
PickledData: "(dp1
S'spacing_anchors_slanted'
p2
I00
s."
HStem: -12 63<113.081 209.443> 780 78<58.2168 220.932 367.253 755.987 908.593 1170.08> 1383 84<548.893 768.572> 1407 102<1082.67 1297.6> 1525 20G<1400.5 1434.5>
VStem: 222 145<76.887 771.708 858.007 1108.4> 757 143<82.6889 746.793 858.844 1127> 1294 146<84.8439 1386.6>
AnchorPoint: "r;t" 1649 1150 basechar 0
AnchorPoint: "r;o" 1649 450 basechar 0
AnchorPoint: "r;hi" 1649 1500 basechar 0
AnchorPoint: "r;x" 1649 850 basechar 0
AnchorPoint: "r;bl" 1655 40 basechar 0
AnchorPoint: "l;t" 60 1150 basechar 0
AnchorPoint: "l;hi" 120 1500 basechar 0
AnchorPoint: "l;o" 0 450 basechar 0
AnchorPoint: "l;x" 0 850 basechar 0
AnchorPoint: "l;bl" 0 40 basechar 0
LayerCount: 3
Fore
SplineSet
58 807 m 0xdf
 58 845 60 859 127 859 c 0
 139 859 171 858 187 858 c 0
 222 858 222 867 222 896 c 0
 222 1164 439 1467 728 1467 c 0xef
 858 1467 935 1384 963 1384 c 0
 975 1384 981 1395 997 1408 c 0
 1034 1437 1131 1509 1234 1509 c 0
 1264 1509 1308 1508 1322 1508 c 0
 1375 1508 1377 1545 1424 1545 c 0
 1445 1545 1447 1505 1447 1485 c 0
 1447 1454 1443 1375 1443 1188 c 2
 1443 1073 l 2
 1443 970 1440 988 1440 843 c 0
 1440 749 1446 468 1446 374 c 0
 1446 130 1452 134 1462 114 c 0
 1503 27 1615 75 1615 20 c 0
 1615 -2 1605 -7 1567 -7 c 0
 1525 -7 1424 -1 1361 -1 c 0
 1266 -1 1256 -7 1211 -7 c 0
 1189 -7 1177 7 1177 13 c 0
 1177 65 1294 20 1294 183 c 0
 1294 977 1289 856 1289 1308 c 0
 1289 1404 1197 1407 1149 1407 c 0
 1110 1407 1060 1390 1031 1368 c 0
 930 1292 907 1057 907 923 c 0
 907 865 912 858 918 858 c 0
 930 858 1019 861 1044 861 c 0
 1158 861 1150 903 1199 903 c 0
 1205 903 1207 896 1207 887 c 0
 1207 853 1171 779 1138 779 c 0
 1042 779 1067 780 939 780 c 0
 901 780 900 771 900 265 c 0
 900 93 948 65 994 58 c 0
 1035 51 1075 48 1075 9 c 0
 1075 1 1074 -7 1053 -7 c 0
 1047 -7 905 2 857 2 c 0
 795 2 707 -10 685 -10 c 0
 658 -10 645 5 645 22 c 0
 645 84 758 0 758 160 c 0
 758 189 757 239 757 334 c 2
 757 416 l 2
 757 494 756 622 756 760 c 0
 756 782 747 784 725 784 c 0
 626 784 577 780 524 780 c 0
 485 780 438 779 394 779 c 0
 376 779 365 767 365 749 c 2
 365 510 l 2
 365 454 367 406 367 365 c 2
 367 250 l 2
 367 142 375 122 397 88 c 0
 417 56 541 52 541 21 c 0
 541 10 529 -3 513 -3 c 0
 507 -3 349 0 301 0 c 0
 239 0 218 -12 162 -12 c 0
 141 -12 113 -9 113 22 c 0
 113 40 125 47 143 51 c 0
 177 58 222 42 222 158 c 0
 222 215 221 356 221 741 c 0
 221 766 209 772 183 772 c 2
 96 772 l 2
 58 772 58 794 58 807 c 0xdf
367 886 m 0
 367 864 370 858 391 858 c 2
 478 858 l 2
 725 858 706 859 727 859 c 0
 752 859 764 860 764 896 c 0
 764 1125 853 1229 853 1264 c 0
 853 1300 718 1383 646 1383 c 0
 582 1383 552 1358 511 1318 c 0
 432 1240 367 1094 367 886 c 0
EndSplineSet
Ligature2: "liga subtable" f f l
LCarets2: 2 0 0 
EndChar

StartChar: c_t
Encoding: 65541 -1 58
Width: 1590
VWidth: 0
Flags: HMW
PickledData: "(dp1
S'spacing_anchors_slanted'
p2
I00
s."
HStem: -39 103<407.807 686.961 1240.85 1456.61> 754 100<1210.46 1531.88> 776 91<364.056 648.814> 1106 63<811.09 1092.22>
VStem: 80 128<274.373 571.665> 670 37<879.391 1002.74> 1044 148<109.657 746.784> 1130 80<916.146 1074.62>
AnchorPoint: "r;o" 1580 450 basechar 0
AnchorPoint: "r;x" 1590 850 basechar 0
AnchorPoint: "r;bl" 1580 40 basechar 0
AnchorPoint: "l;o" 0 453 basechar 0
LayerCount: 3
Fore
SplineSet
80 394 m 0xbd
 80 550 184 694 298 783 c 0
 371 840 464 867 556 867 c 0
 619 867 649 862 663 862 c 0
 667 862 670 862 670 869 c 0
 670 875 657 931 657 956 c 0
 657 1002 678 1169 947 1169 c 0
 1154 1169 1202 1037 1202 1020 c 0
 1202 983 1210 916 1210 878 c 0xbd
 1210 850 1211 845 1262 845 c 2
 1298 845 l 2
 1347 845 1384 846 1412 846 c 0
 1499 846 1512 878 1537 878 c 0
 1551 878 1556 869 1556 857 c 0
 1556 837 1512 752 1495 752 c 0
 1346 754 1246 754 1244 754 c 0
 1195 754 1193 752 1193 707 c 0
 1193 591 1192 432 1192 309 c 0
 1192 140 1218 65 1371 65 c 0
 1444 65 1497 108 1520 108 c 0
 1534 108 1540 96 1540 87 c 0
 1540 56 1442 -31 1321 -31 c 0
 1061 -31 1044 130 1044 209 c 2
 1044 239 l 2xde
 1044 386 1053 646 1053 690 c 0
 1053 747 1034 747 1006 747 c 0
 985 747 989 746 964 746 c 0
 945 746 933 747 933 763 c 0
 933 792 1130 896 1130 1006 c 0
 1130 1076 1055 1106 968 1106 c 0
 832 1106 707 1047 707 939 c 0
 707 872 777 823 779 807 c 0
 781 782 784 749 784 714 c 0
 784 666 784 643 767 643 c 0
 739 643 751 659 717 687 c 0
 669 727 595 776 434 776 c 0
 384 776 208 743 208 459 c 0
 208 306 314 64 584 64 c 0
 744 64 824 156 851 156 c 0
 864 156 872 141 872 130 c 0
 872 112 684 -39 504 -39 c 0
 251 -39 80 119 80 394 c 0xbd
  Spiro
    80 394 o
    111.126 544.264 o
    190.912 677.38 o
    298 783 o
    376.805 830.074 o
    464.535 857.907 o
    556 867 o
    608.587 865.706 o
    643.064 863.294 o
    663 862 o
    666.589 862.258 o
    669.076 864.077 o
    670 869 o
    666.635 888.636 o
    660.365 923.703 o
    657 956 o
    672.368 1031.57 o
    752.388 1124.08 o
    947 1169 o
    1105 1134.21 o
    1181.93 1066.12 o
    1202 1020 o
    1204.07 975.236 o
    1207.93 923.431 o
    1210 878 o
    1212.14 857.015 o
    1225.87 847.328 o
    1262 845 [
    1298 845 ]
    1343.07 845.259 o
    1380.92 845.741 o
    1412 846 o
    1477.47 854.282 o
    1512.84 869.718 o
    1537 878 o
    1548.14 875.228 o
    1554.19 867.768 o
    1556 857 o
    1543.98 820.936 o
    1518.34 774.738 o
    1495 752 o
    1364.26 753.407 o
    1276.79 753.926 o
    1244 754 o
    1209.02 751.821 o
    1195.33 739.164 o
    1193 707 o
    1192.74 579.728 o
    1192.26 440.936 o
    1192 309 o
    1204.38 170.738 o
    1256.67 90.6516 o
    1371 65 o
    1436.9 76.129 o
    1487.41 96.871 o
    1520 108 o
    1531.4 104.562 o
    1537.93 96.4351 o
    1540 87 o
    1510.17 42.6821 o
    1431.46 -7.33839 o
    1321 -31 o
    1133.75 13.5864 o
    1058 111.773 o
    1044 209 [
    1044 239 ]
    1046.33 411.296 o
    1050.67 586.337 o
    1053 690 o
    1047.05 730.086 o
    1030.61 744.895 o
    1006 747 o
    991.344 746.741 o
    981.322 746.259 o
    964 746 o
    947.532 746.85 o
    936.807 751.489 o
    933 763 o
    983.987 814.373 o
    1079.01 900.654 o
    1130 1006 o
    1107.38 1062.99 o
    1048.59 1095.65 o
    968 1106 o
    840.005 1086.74 o
    744.374 1030.22 o
    707 939 o
    725.191 878.609 o
    759.476 833.408 o
    779 807 o
    781.183 779.585 o
    783.15 748.078 o
    784 714 o
    783.372 674.291 o
    778.955 650.725 o
    767 643 o
    749.159 648.175 o
    738.839 663.168 o
    717 687 o
    658.146 727.812 o
    568.149 761.841 o
    434 776 o
    353.286 756.972 o
    255.398 667.266 o
    208 459 o
    245.404 288.768 o
    366.686 132.283 o
    584 64 o
    718.224 87.811 o
    805.399 132.189 o
    851 156 o
    862.213 151.712 o
    869.449 141.618 o
    872 130 o
    816.696 78.2603 o
    679.244 0.745722 o
    504 -39 o
    281.818 12.0474 o
    133.6 159.711 o
    0 0 z
  EndSpiro
EndSplineSet
Ligature2: "dlig subtable" c t
LCarets2: 1 0 
EndChar

StartChar: period
Encoding: 46 46 59
Width: 516
VWidth: 0
Flags: HW
PickledData: "(dp1
S'spacing_anchors_slanted'
p2
I00
s."
HStem: -33 298<202.62 309.312>
VStem: 110 296<62.0024 166.45>
AnchorPoint: "l;bl" 0 40 basechar 0
AnchorPoint: "l;o" 55 450 basechar 0
AnchorPoint: "r;bl" 516 40 basechar 0
AnchorPoint: "r;o" 461 450 basechar 0
LayerCount: 3
Fore
SplineSet
110 113 m 0
 110 132 143 164 175 192 c 0
 202 216 221 265 260 265 c 0
 277 265 312 222 344 184 c 0
 362 163 406 132 406 112 c 0
 406 88 364 67 334 39 c 0
 309 15 284 -33 256 -33 c 0
 223 -33 202 22 175 42 c 0
 141 67 110 93 110 113 c 0
EndSplineSet
AlternateSubs2: "'aalt' Access All Alternates lookup 0 subtable" period.sub period.sup period.denom period.numer
AlternateSubs2: "'aalt' Access All Alternates in Latin lookup 0 subtable" period.sub period.sup period.denom period.numer
Substitution2: "'subs' Subscript in Latin lookup 8 subtable" period.sub
Substitution2: "'sups' Superscript in Latin lookup 7 subtable" period.sup
Substitution2: "'dnom' Denominators in Latin lookup 4 subtable" period.denom
Substitution2: "'numr' Numerators in Latin lookup 3 subtable" period.numer
Substitution2: "denominators subtable" period.denom
Substitution2: "numerators subtable" period.numer
EndChar

StartChar: f_j
Encoding: 65542 -1 60
Width: 1070
VWidth: 0
Flags: HMW
PickledData: "(dp1
S'spacing_anchors_slanted'
p2
I00
s."
HStem: -410 101<601.5 734.712> -7 18G<139.5 175 495 508.5> 770 84<60.5904 220.925 369.311 738.641> 1396 110<553.621 799.095>
VStem: 221 138<76.0232 768.76 849.078 1124.58> 754 143<-213.267 763.17>
AnchorPoint: "r;bl" 1070 40 basechar 0
AnchorPoint: "r;x" 1070 850 basechar 0
AnchorPoint: "r;o" 1070 450 basechar 0
AnchorPoint: "r;lo" 960 -420 basechar 0
AnchorPoint: "l;t" 60 1150 basechar 0
AnchorPoint: "l;hi" 120 1500 basechar 0
AnchorPoint: "l;o" 0 450 basechar 0
AnchorPoint: "l;x" 0 850 basechar 0
AnchorPoint: "l;bl" 0 40 basechar 0
AnchorPoint: "r;hi" 1030 1500 basechar 0
AnchorPoint: "r;t" 1030 1150 basechar 0
LayerCount: 3
Fore
SplineSet
60 798 m 0
 60 820 63 851 105 851 c 0
 122 851 171 849 188 849 c 0
 223 849 230 867 230 896 c 0
 230 1318 520 1506 744 1506 c 0
 851 1506 872 1455 872 1427 c 0
 872 1421 851 1290 820 1290 c 0
 804 1290 800 1316 766 1339 c 0
 732 1362 685 1396 600 1396 c 0
 565 1396 523 1389 484 1346 c 0
 428 1284 366 1117 366 890 c 0
 366 851 371 848 429 848 c 0
 456 848 495 847 550 847 c 0
 802 847 822 902 881 902 c 0
 908 902 909 881 909 840 c 0
 909 786 897 698 897 579 c 2
 897 72 l 2
 897 -120 843 -410 627 -410 c 0
 576 -410 546 -394 546 -354 c 0
 546 -331 543 -304 543 -281 c 0
 543 -246 553 -222 588 -222 c 0
 630 -222 672 -309 705 -309 c 0
 739 -309 754 -240 754 21 c 2
 754 658 l 2
 754 713 749 775 647 775 c 0
 533 775 464 780 423 780 c 0
 382 780 370 775 370 754 c 0
 361 529 359 453 359 386 c 0
 359 338 360 293 360 201 c 0
 360 -16 538 87 538 9 c 0
 538 1 519 -10 498 -10 c 0
 492 -10 360 -2 312 -2 c 0
 245 -2 193 -7 157 -7 c 0
 122 -7 108 -7 108 18 c 0
 108 62 220 14 220 153 c 0
 220 210 221 351 221 736 c 0
 221 767 219 769 193 769 c 0
 171 769 139 770 104 770 c 0
 65 770 60 778 60 798 c 0
EndSplineSet
Ligature2: "liga subtable" f j
LCarets2: 1 0 
EndChar

StartChar: f_f_j
Encoding: 65543 -1 61
Width: 1611
VWidth: 0
Flags: HW
PickledData: "(dp1
S'spacing_anchors_slanted'
p2
I00
s."
HStem: -410 101<1142.5 1276.07> -9 21G<151.5 186.5> -6 49<650.021 737.781> -3 61<932.459 1073.6> 776 81<58.114 220.849 365.01 760.75 905.375 1282.37> 1383 84<552.489 771.301> 1404 107<1088.04 1286.89>
VStem: 222 142<87.5853 774.891 857.123 1106.87> 762 141<74.1682 774.877 857.057 1132.61> 1295 143<-213.267 765.046>
AnchorPoint: "r;bl" 1611 40 basechar 0
AnchorPoint: "r;x" 1611 850 basechar 0
AnchorPoint: "r;o" 1611 450 basechar 0
AnchorPoint: "r;lo" 1501 -420 basechar 0
AnchorPoint: "l;t" 60 1150 basechar 0
AnchorPoint: "l;hi" 120 1500 basechar 0
AnchorPoint: "l;o" 0 450 basechar 0
AnchorPoint: "l;x" 0 850 basechar 0
AnchorPoint: "l;bl" 0 40 basechar 0
AnchorPoint: "r;hi" 1571 1500 basechar 0
AnchorPoint: "r;t" 1571 1150 basechar 0
LayerCount: 3
Fore
SplineSet
58 807 m 0xc9c0
 58 845 60 857 127 857 c 2
 187 857 l 2
 222 857 225 867 225 896 c 0
 225 1215 479 1467 728 1467 c 0xcdc0
 865 1467 947 1374 959 1374 c 0
 975 1374 1083 1511 1250 1511 c 0
 1314 1511 1406 1503 1406 1442 c 0
 1406 1404 1385 1304 1357 1304 c 0
 1326 1304 1290 1404 1151 1404 c 0
 966 1404 905 1178 905 877 c 0
 905 860 906 855 922 855 c 0
 952 855 980 854 1006 854 c 0
 1144 854 1200 860 1265 860 c 0
 1363 860 1373 914 1421 914 c 0
 1433 914 1445 903 1445 874 c 0
 1445 860 1438 764 1438 736 c 2
 1438 72 l 2
 1438 -120 1384 -410 1168 -410 c 0
 1117 -410 1087 -394 1087 -354 c 0
 1087 -331 1084 -304 1084 -281 c 0
 1084 -246 1094 -222 1129 -222 c 0
 1171 -222 1213 -309 1246 -309 c 0
 1288 -309 1292 -228 1292 102 c 0
 1292 176 1295 278 1295 421 c 2
 1295 663 l 2
 1295 773 1265 777 1095 777 c 0
 999 777 1062 775 934 775 c 0
 903 775 900 769 900 548 c 0
 900 466 903 391 903 236 c 0
 903 100 936 71 976 58 c 0
 1020 44 1075 45 1075 22 c 0
 1075 3 1072 -3 1050 -3 c 0x9bc0
 1002 -3 854 4 842 4 c 0
 798 4 788 -6 697 -6 c 0
 679 -6 650 -3 650 19 c 0
 650 33 667 40 679 43 c 0xa9c0
 753 60 762 46 762 350 c 0
 762 445 761 570 761 736 c 0
 761 767 761 779 725 779 c 0
 528 779 723 775 395 775 c 0
 371 775 365 767 365 749 c 0
 365 300 364 450 364 250 c 0
 364 142 381 120 407 86 c 0
 430 56 541 52 541 21 c 0
 541 10 529 -4 513 -4 c 0
 507 -4 357 6 309 6 c 0
 272 6 208 -9 165 -9 c 0
 138 -9 119 -3 119 16 c 0
 119 64 222 24 222 158 c 0
 222 215 221 356 221 741 c 0
 221 772 209 776 183 776 c 2
 99 776 l 2
 58 776 58 794 58 807 c 0xc9c0
365 883 m 0
 365 859 379 854 451 854 c 0
 507 854 599 857 745 857 c 0
 765 857 767 867 767 896 c 0
 767 1138 855 1221 855 1256 c 0
 855 1294 726 1383 666 1383 c 0
 485 1383 365 1155 365 883 c 0
EndSplineSet
Ligature2: "liga subtable" f f j
LCarets2: 2 0 0 
EndChar

StartChar: f_b
Encoding: 65544 -1 62
Width: 1713
VWidth: 0
Flags: HMW
PickledData: "(dp1
S'spacing_anchors_slanted'
p2
I00
s."
HStem: -23 74<1058.27 1349.68> -10 78<116.523 211.918> -7 50<419.16 534.449> 778 79<59.1703 220.796 372.796 642.661> 795 110<1031.13 1301.04> 1402 102<539.958 758.323> 1516 20G<874.5 908.5>
VStem: 223 142<73.9939 777.967 857.483 1127> 744 165<176.065 657.406> 763 146<217.52 719.547 769.007 1374.18> 1499 134<277.76 577.607>
AnchorPoint: "l;t" 60 1150 basechar 0
AnchorPoint: "l;hi" 120 1500 basechar 0
AnchorPoint: "l;o" 0 450 basechar 0
AnchorPoint: "l;x" 0 850 basechar 0
AnchorPoint: "l;bl" 0 40 basechar 0
AnchorPoint: "r;o" 1713 450 basechar 0
LayerCount: 3
Fore
SplineSet
58 798 m 0x5760
 58 850 72 858 138 858 c 0
 164 858 200 857 213 857 c 0x5760
 223 857 229 863 229 886 c 0
 229 1308 534 1504 689 1504 c 0
 717 1504 762 1499 782 1499 c 0
 853 1499 851 1536 898 1536 c 0
 919 1536 919 1506 919 1486 c 0
 919 1434 909 1476 909 803 c 0
 909 779 911 769 924 769 c 0
 952 769 981 905 1237 905 c 0
 1522 905 1633 675 1633 482 c 0
 1633 373 1574 165 1446 68 c 0x4f60
 1371 11 1276 -23 1161 -23 c 0
 971 -23 876 96 861 96 c 0
 839 96 811 -34 760 -34 c 0
 739 -34 735 -27 735 -9 c 0
 735 41 744 146 744 159 c 0x87a0
 744 315 762 468 762 700 c 0
 762 864 763 1146 763 1258 c 0
 763 1402 661 1402 614 1402 c 0
 575 1402 541 1390 512 1368 c 0
 411 1292 372 1057 372 923 c 0
 372 900 373 855 382 855 c 0
 461 855 454 857 510 857 c 0
 616 858 619 896 657 896 c 0
 667 896 672 890 672 881 c 0
 672 859 632 778 586 778 c 0
 490 778 529 779 401 779 c 0
 383 779 369 767 369 749 c 0
 369 735 365 481 365 321 c 2
 365 265 l 2
 365 62 406 63 502 43 c 0
 534 36 535 23 535 9 c 0
 535 1 534 -7 513 -7 c 0x3760
 507 -7 404 7 356 7 c 0
 294 7 177 -10 155 -10 c 0
 137 -10 115 0 115 22 c 0
 115 54 176 44 195 68 c 0
 209 85 223 119 223 180 c 0
 223 237 221 351 221 736 c 0
 221 772 217 778 188 778 c 0
 166 778 140 776 105 776 c 0
 63 776 58 785 58 798 c 0x5760
909 271 m 2x8fa0
 909 224 1000 51 1208 51 c 0
 1406 51 1499 208 1499 379 c 0
 1499 578 1372 795 1138 795 c 0
 1078 795 1018 774 974 737 c 0
 914 687 909 666 909 642 c 2
 909 271 l 2x8fa0
EndSplineSet
Ligature2: "liga subtable" f b
LCarets2: 1 0 
EndChar

StartChar: f_f_b
Encoding: 65545 -1 63
Width: 2243
VWidth: 0
Flags: HMW
PickledData: "(dp1
S'spacing_anchors_slanted'
p2
I00
s."
HStem: -23 74<113.856 211.567 1588.27 1879.68> -13 10G<510 521 1050 1063.5 1279.5 1315.5> 780 78<58.2336 220.932 367.253 755.75 908.593 1170.08> 795 110<1555.44 1833.76> 1383 84<548.893 768.572> 1407 102<1082.67 1297.6> 1525 20G<1400.5 1434.5>
VStem: 222 145<76.887 771.708 858.007 1108.4> 757 143<82.6889 746.793 858.005 1127> 1274 165<176.065 657.406> 1290 2<1100 1206> 1292 147<217.52 719.547 769.014 1100 1206 1388.13> 2029 134<277.76 579.943>
AnchorPoint: "l;t" 60 1150 basechar 0
AnchorPoint: "l;hi" 120 1500 basechar 0
AnchorPoint: "l;o" 0 450 basechar 0
AnchorPoint: "l;x" 0 850 basechar 0
AnchorPoint: "l;bl" 0 40 basechar 0
AnchorPoint: "r;o" 2243 450 basechar 0
LayerCount: 3
Fore
SplineSet
58 807 m 0x83a8
 58 845 60 859 127 859 c 0
 139 859 171 858 187 858 c 0
 222 858 222 867 222 896 c 0
 222 1164 439 1467 728 1467 c 0xaba8
 858 1467 935 1384 963 1384 c 0
 975 1384 981 1395 997 1408 c 0
 1034 1437 1131 1509 1234 1509 c 0
 1264 1509 1308 1508 1322 1508 c 0
 1375 1508 1377 1545 1424 1545 c 0
 1445 1545 1447 1505 1447 1485 c 0
 1447 1475 1439 1483 1439 842 c 0x07b8
 1439 788 1444 769 1454 769 c 0
 1486 769 1488 905 1778 905 c 0
 2036 905 2163 689 2163 482 c 0
 2163 373 2104 165 1976 68 c 0
 1901 11 1806 -23 1691 -23 c 0
 1501 -23 1406 96 1391 96 c 0
 1369 96 1341 -34 1290 -34 c 0x97a8
 1269 -34 1265 -27 1265 -9 c 0
 1265 41 1274 146 1274 159 c 0x97c8
 1274 315 1292 468 1292 700 c 2x9798
 1292 1038 l 2
 1292 1146 1289 1173 1289 1308 c 0
 1289 1404 1197 1407 1149 1407 c 0
 1110 1407 1060 1390 1031 1368 c 0
 930 1292 907 1057 907 923 c 0
 907 865 912 858 918 858 c 0
 930 858 1019 861 1044 861 c 0
 1158 861 1150 903 1199 903 c 0
 1205 903 1207 896 1207 887 c 0
 1207 853 1171 779 1138 779 c 0
 1042 779 1067 780 939 780 c 0
 901 780 900 771 900 265 c 0
 900 93 948 65 994 58 c 0
 1035 51 1075 48 1075 9 c 0
 1075 1 1074 -7 1053 -7 c 0
 1047 -7 905 2 857 2 c 0
 795 2 707 -10 685 -10 c 0
 658 -10 645 5 645 22 c 0
 645 84 758 0 758 160 c 0
 758 189 757 239 757 334 c 2
 757 416 l 2
 757 494 756 619 756 757 c 0
 756 779 747 781 725 781 c 0
 626 781 577 780 524 780 c 0
 485 780 438 779 394 779 c 0
 376 779 365 767 365 749 c 2
 365 510 l 2
 365 454 367 406 367 365 c 2
 367 250 l 2
 367 142 375 122 397 88 c 0
 417 56 541 52 541 21 c 0
 541 10 529 -3 513 -3 c 0x67a8
 507 -3 349 0 301 0 c 0
 239 0 222 -12 162 -12 c 0
 141 -12 113 -9 113 22 c 0
 113 40 125 47 143 51 c 0
 177 58 222 42 222 158 c 0
 222 215 221 356 221 741 c 0
 221 766 209 772 183 772 c 2
 123 772 l 2
 70 772 58 775 58 807 c 0x83a8
367 886 m 0
 367 864 370 858 391 858 c 2
 731 858 l 2
 753 858 764 859 764 893 c 0
 764 1122 853 1229 853 1264 c 0
 853 1300 718 1383 646 1383 c 0
 582 1383 552 1358 511 1318 c 0
 432 1240 367 1094 367 886 c 0
1439 271 m 2x93c8
 1439 224 1530 51 1738 51 c 0
 1936 51 2029 208 2029 379 c 0
 2029 578 1902 795 1668 795 c 0
 1608 795 1548 774 1504 737 c 0
 1444 687 1439 666 1439 642 c 2
 1439 271 l 2x93c8
EndSplineSet
Ligature2: "liga subtable" f f b
LCarets2: 2 0 0 
EndChar

StartChar: f_h
Encoding: 65546 -1 64
Width: 1770
VWidth: 0
Flags: HW
PickledData: "(dp1
S'spacing_anchors_slanted'
p2
I00
s."
HStem: 0 62<118.281 208.565 936.515 1077.94 1579.04 1728.14> 0 48<413.843 532.835 638.171 712.547> 778 79<59.1703 220.796 372.796 642.661> 795 94<1045.43 1274.93> 1402 102<539.958 758.323> 1516 20G<874.5 908.5>
VStem: 223 142<73.9939 777.967 857.483 1127> 763 156<1003.33 1374.18> 765 129<89.0093 702.999 738.012 1245.8> 1403 148<77.9562 658.281>
AnchorPoint: "r;o" 1750 450 basechar 0
AnchorPoint: "r;x" 1750 850 basechar 0
AnchorPoint: "r;bl" 1770 40 basechar 0
AnchorPoint: "l;t" 60 1150 basechar 0
AnchorPoint: "l;hi" 120 1500 basechar 0
AnchorPoint: "l;o" 0 450 basechar 0
AnchorPoint: "l;x" 0 850 basechar 0
AnchorPoint: "l;bl" 0 40 basechar 0
LayerCount: 3
Fore
SplineSet
58 798 m 0x6f40
 58 850 72 858 138 858 c 0
 164 858 200 857 213 857 c 0
 223 857 229 863 229 886 c 0
 229 1308 534 1504 689 1504 c 0
 717 1504 762 1499 782 1499 c 0
 853 1499 851 1536 898 1536 c 0
 919 1536 919 1506 919 1486 c 0x6f40
 919 1481 894 784 894 778 c 0x6ec0
 894 754 902 738 913 738 c 0
 934 738 1030 889 1201 889 c 0
 1411 889 1551 770 1551 485 c 2
 1551 189 l 2
 1551 159 1561 76 1619 70 c 0
 1681 64 1729 50 1729 26 c 0
 1729 0 1697 -6 1665 -6 c 0
 1640 -6 1536 4 1494 4 c 0
 1462 4 1352 -2 1336 -2 c 0
 1309 -2 1289 2 1289 18 c 0
 1289 86 1399 8 1399 147 c 0
 1399 181 1403 147 1403 487 c 0
 1403 655 1285 795 1149 795 c 0
 1072 795 998 750 951 714 c 0
 902 676 894 634 894 335 c 2
 894 289 l 2
 894 191 899 94 975 62 c 0
 1019 43 1079 61 1079 24 c 0
 1079 12 1070 0 1057 0 c 0x9ec0
 1055 0 850 10 839 10 c 0
 811 10 724 0 693 0 c 0
 636 0 639 7 638 20 c 0
 638 30 640 41 663 48 c 0
 746 72 756 123 756 205 c 2
 764 904 l 2
 764 944 765 973 765 1003 c 0x4ec0
 765 1056 763 1163 763 1258 c 0
 763 1402 661 1402 614 1402 c 0
 575 1402 541 1390 512 1368 c 0
 411 1292 372 1057 372 923 c 0
 372 900 373 855 382 855 c 0
 461 855 454 857 510 857 c 0
 616 858 619 896 657 896 c 0
 667 896 672 890 672 881 c 0
 672 859 632 778 586 778 c 0
 490 778 529 779 401 779 c 0
 383 779 369 767 369 749 c 0
 369 735 365 481 365 321 c 2
 365 265 l 2
 365 62 406 63 502 43 c 0
 534 36 535 23 535 9 c 0
 535 1 534 -7 513 -7 c 0
 507 -7 404 7 356 7 c 0
 294 7 177 -8 155 -8 c 0
 117 -8 115 11 115 19 c 0
 115 56 175 43 195 68 c 0
 209 85 223 119 223 180 c 0
 223 237 221 351 221 736 c 0
 221 772 217 778 188 778 c 0
 166 778 140 776 105 776 c 0
 63 776 58 785 58 798 c 0x6f40
EndSplineSet
Ligature2: "liga subtable" f h
LCarets2: 1 0 
EndChar

StartChar: f_f_h
Encoding: 65547 -1 65
Width: 2307
VWidth: 0
Flags: HW
PickledData: "(dp1
S'spacing_anchors_slanted'
p2
I00
s."
HStem: 0 62<1473.52 1614.94 2116.04 2265.14> 0 48<113.476 203.474 1175.17 1249.55> 780 78<58.2168 220.932 367.253 755.987 908.593 1170.19> 795 94<1583.72 1811.93> 1383 84<548.893 768.572> 1407 102<1082.67 1296.54> 1525 20G<1400.5 1434.5>
VStem: 222 145<78.0523 771.708 858.007 1108.4> 757 143<82.6889 746.793 858.844 1127> 1289 158<932.836 1388.13> 1297 134<89.0093 701.156 738.013 1250.79> 1940 148<77.9562 658.281>
AnchorPoint: "r;o" 2287 450 basechar 0
AnchorPoint: "r;x" 2287 850 basechar 0
AnchorPoint: "r;bl" 2307 40 basechar 0
AnchorPoint: "l;t" 60 1150 basechar 0
AnchorPoint: "l;hi" 120 1500 basechar 0
AnchorPoint: "l;o" 0 450 basechar 0
AnchorPoint: "l;x" 0 850 basechar 0
AnchorPoint: "l;bl" 0 40 basechar 0
LayerCount: 3
Fore
SplineSet
58 807 m 0x63d0
 58 845 60 859 127 859 c 0
 139 859 171 858 187 858 c 0
 222 858 222 867 222 896 c 0
 222 1164 439 1467 728 1467 c 0x6bd0
 858 1467 935 1384 963 1384 c 0
 975 1384 981 1395 997 1408 c 0
 1034 1437 1131 1509 1234 1509 c 0
 1264 1509 1308 1508 1322 1508 c 0
 1375 1508 1377 1545 1424 1545 c 0
 1445 1545 1447 1505 1447 1485 c 2
 1447 1432 l 2x07d0
 1447 1361 1440 787 1431 782 c 1
 1431 756 1438 738 1450 738 c 0
 1471 738 1567 889 1738 889 c 0
 1948 889 2088 770 2088 485 c 2
 2088 189 l 2
 2088 159 2098 76 2156 70 c 0
 2218 64 2266 50 2266 26 c 0
 2266 0 2234 -6 2202 -6 c 0
 2177 -6 2073 4 2031 4 c 0
 1999 4 1889 -2 1873 -2 c 0
 1846 -2 1826 2 1826 18 c 0
 1826 86 1936 8 1936 147 c 0
 1936 181 1940 147 1940 487 c 0
 1940 655 1822 795 1686 795 c 0
 1593 795 1450 716 1439 635 c 0
 1432 582 1431 432 1431 335 c 2
 1431 289 l 2
 1431 191 1436 94 1512 62 c 0
 1556 43 1616 61 1616 24 c 0
 1616 12 1607 0 1594 0 c 0x97b0
 1592 0 1387 10 1376 10 c 0
 1348 10 1261 0 1230 0 c 0
 1173 0 1176 7 1175 20 c 0
 1175 30 1177 41 1200 48 c 0
 1283 72 1293 123 1293 205 c 0
 1296 504 1297 705 1297 845 c 0x43b0
 1297 1220 1297 1150 1289 1308 c 0
 1284 1404 1197 1407 1149 1407 c 0
 1110 1407 1060 1390 1031 1368 c 0
 930 1292 907 1057 907 923 c 0
 907 865 912 858 918 858 c 0x67d0
 930 858 1019 861 1044 861 c 0
 1151 861 1163 905 1195 905 c 0
 1201 905 1207 901 1207 889 c 0x13d0
 1207 856 1172 779 1138 779 c 0
 1042 779 1067 780 939 780 c 0
 901 780 900 771 900 265 c 0
 900 93 948 65 994 58 c 0
 1035 51 1075 48 1075 9 c 0
 1075 1 1074 -7 1053 -7 c 0
 1047 -7 905 2 857 2 c 0
 795 2 707 -10 685 -10 c 0
 658 -10 645 5 645 22 c 0
 645 84 758 0 758 160 c 0
 758 189 757 239 757 334 c 2
 757 416 l 2
 757 494 756 622 756 760 c 0
 756 782 747 784 725 784 c 0
 626 784 577 780 524 780 c 0
 485 780 438 779 394 779 c 0
 376 779 365 767 365 749 c 2
 365 510 l 2
 365 454 367 406 367 365 c 2
 367 250 l 2
 367 142 375 122 397 88 c 0
 417 56 541 68 541 21 c 0
 541 10 529 -3 513 -3 c 0
 507 -3 349 0 301 0 c 0
 248 0 235 -8 169 -8 c 0
 131 -8 113 -8 113 19 c 0
 113 37 125 44 143 48 c 0
 177 55 222 42 222 158 c 0
 222 215 221 356 221 741 c 0
 221 766 209 772 183 772 c 2
 96 772 l 2
 58 772 58 794 58 807 c 0x63d0
367 886 m 0
 367 864 370 858 391 858 c 2
 478 858 l 2
 725 858 706 859 727 859 c 0
 752 859 764 860 764 896 c 0
 764 1125 853 1229 853 1264 c 0
 853 1300 718 1383 646 1383 c 0
 582 1383 552 1358 511 1318 c 0
 432 1240 367 1094 367 886 c 0
EndSplineSet
Ligature2: "liga subtable" f f h
LCarets2: 2 0 0 
EndChar

StartChar: f_k
Encoding: 65548 -1 66
Width: 1700
VWidth: 0
Flags: HMW
PickledData: "(dp1
S'spacing_anchors_slanted'
p2
I00
s."
HStem: -10 78<116.523 213.753> -7 54<413.843 534.226> 409 44<928.077 952.898> 778 81<59.0836 220.932 372.448 643.231> 848 20G<544.5 577 1526.5 1562.5> 1402 102<539.769 758.848> 1516 20G<874.5 908.5>
VStem: 223 142<76.4588 777.967 859.304 1127> 759 145<77.3675 404.638 453.032 1060.25> 763 156<1005.35 1375.23>
AnchorPoint: "r;bl" 1700 40 basechar 0
AnchorPoint: "r;x" 1660 850 basechar 0
AnchorPoint: "r;o" 1660 450 basechar 0
AnchorPoint: "l;t" 60 1150 basechar 0
AnchorPoint: "l;hi" 120 1500 basechar 0
AnchorPoint: "l;o" 0 450 basechar 0
AnchorPoint: "l;x" 0 850 basechar 0
AnchorPoint: "l;bl" 0 40 basechar 0
LayerCount: 3
Fore
SplineSet
58 798 m 0xb740
 58 858 75 859 136 859 c 2
 200 859 l 2
 222 859 229 864 229 888 c 0
 229 1310 534 1504 689 1504 c 0
 717 1504 762 1499 782 1499 c 0
 853 1499 851 1536 898 1536 c 0
 919 1536 919 1506 919 1486 c 0xb740
 919 1396 904 742 904 582 c 2
 904 539 l 2
 904 497 905 453 912 453 c 0
 941 453 951 477 978 499 c 0
 1251 716 1265 748 1265 760 c 0
 1265 810 1173 803 1173 840 c 0
 1173 852 1180 860 1198 860 c 0
 1337 860 1509 868 1544 868 c 0
 1581 868 1589 862 1589 850 c 0
 1589 808 1525 840 1397 756 c 0
 1375 742 1368 736 1327 704 c 0
 1104 534 1104 538 1104 513 c 0
 1104 499 1112 482 1125 466 c 0
 1273 286 1379 179 1445 122 c 0
 1577 8 1662 76 1662 26 c 0
 1662 -8 1636 -10 1579 -10 c 0xb780
 1553 -10 1387 -6 1366 -6 c 0
 1305 -6 1054 318 988 397 c 0
 981 405 973 409 965 409 c 0
 932 409 902 356 902 316 c 0
 902 305 903 295 904 281 c 0
 913 88 907 135 941 85 c 0
 971 40 1075 58 1075 20 c 0
 1075 -7 1025 -7 1012 -7 c 0
 992 -7 899 -1 833 -1 c 0
 774 -1 780 -9 691 -9 c 0
 665 -9 642 -6 642 16 c 0
 642 52 731 38 746 99 c 0
 755 135 757 192 757 239 c 0
 757 277 759 313 759 330 c 2x7780
 761 1197 l 2
 761 1236 763 1255 763 1270 c 0
 763 1399 654 1402 619 1402 c 0
 576 1402 543 1391 512 1368 c 0
 411 1292 372 1057 372 923 c 0
 372 900 373 855 382 855 c 0
 469 855 523 855 566 861 c 0
 588 864 635 896 657 896 c 0
 667 896 672 890 672 881 c 0
 672 859 632 778 586 778 c 0
 490 778 529 779 401 779 c 0
 383 779 369 767 369 749 c 0
 369 735 365 481 365 321 c 2
 365 265 l 2
 365 62 406 67 502 47 c 0
 534 40 535 23 535 9 c 0
 535 1 534 -7 513 -7 c 0x7740
 507 -7 404 3 356 3 c 0
 294 3 177 -10 155 -10 c 0
 137 -10 115 0 115 22 c 0
 115 54 176 44 195 68 c 0
 209 85 223 119 223 180 c 0
 223 237 221 351 221 736 c 0
 221 767 209 778 183 778 c 0
 161 778 140 776 105 776 c 0
 63 776 58 785 58 798 c 0xb740
EndSplineSet
Ligature2: "liga subtable" f k
LCarets2: 1 0 
EndChar

StartChar: f_f_k
Encoding: 65549 -1 67
Width: 2233
VWidth: 0
Flags: HMW
PickledData: "(dp1
S'spacing_anchors_slanted'
p2
I00
s."
HStem: -11 56<113.32 203.474 1173.26 1259.62> 407 44<1461.99 1485.63> 780 78<58.2168 220.932 367.253 755.987 908.593 1170.08> 846 20G<93.5 133 716.5 739.5 1031.5 1101 2015.5 2085.5> 1383 84<548.893 768.572> 1407 102<1082.67 1297.74> 1525 20G<1400.5 1434.5>
VStem: 222 145<76.887 771.708 858.007 1108.4> 757 143<82.6889 746.793 858.844 1127> 1292 145<104.363 402.275 451.032 1388.12>
AnchorPoint: "r;o" 2193 450 basechar 0
AnchorPoint: "r;x" 2193 850 basechar 0
AnchorPoint: "r;bl" 2233 40 basechar 0
AnchorPoint: "l;t" 60 1150 basechar 0
AnchorPoint: "l;hi" 120 1500 basechar 0
AnchorPoint: "l;o" 0 450 basechar 0
AnchorPoint: "l;x" 0 850 basechar 0
AnchorPoint: "l;bl" 0 40 basechar 0
LayerCount: 3
Fore
SplineSet
58 807 m 0xe7c0
 58 845 60 859 127 859 c 0
 139 859 171 858 187 858 c 0
 222 858 222 867 222 896 c 0
 222 1164 439 1467 728 1467 c 0xebc0
 858 1467 935 1384 963 1384 c 0
 975 1384 981 1395 997 1408 c 0
 1034 1437 1131 1509 1234 1509 c 0
 1264 1509 1308 1508 1322 1508 c 0
 1375 1508 1377 1545 1424 1545 c 0
 1445 1545 1447 1505 1447 1485 c 0
 1447 1454 1443 1386 1443 999 c 0
 1443 860 1437 719 1437 580 c 2
 1437 537 l 2
 1437 495 1438 451 1445 451 c 0
 1473 451 1484 475 1511 497 c 0
 1784 714 1798 746 1798 758 c 0
 1798 808 1706 801 1706 838 c 0
 1706 850 1713 858 1731 858 c 0
 1885 858 1970 866 2061 866 c 0
 2110 866 2122 862 2122 848 c 0
 2122 807 2061 837 1938 759 c 0
 1918 746 1918 746 1841 688 c 0
 1637 533 1637 535 1637 511 c 0
 1637 497 1645 480 1658 464 c 0
 1806 284 1912 177 1978 120 c 0
 2110 6 2195 74 2195 24 c 0
 2195 -10 2169 -10 2112 -10 c 0
 2086 -10 1920 -8 1899 -8 c 0
 1838 -8 1587 316 1521 395 c 0
 1514 403 1506 407 1498 407 c 0
 1473 407 1435 367 1435 314 c 0
 1435 303 1436 293 1437 279 c 0
 1445 120 1434 127 1472 83 c 0
 1512 37 1618 53 1618 18 c 0
 1618 -10 1574 -14 1565 -14 c 0
 1545 -14 1432 -3 1366 -3 c 0
 1307 -3 1311 -11 1222 -11 c 0
 1196 -11 1173 -8 1173 14 c 0
 1173 36 1207 45 1210 45 c 0
 1223 45 1271 70 1279 102 c 0
 1291 151 1292 291 1292 328 c 0
 1294 1068 1294 1161 1294 1254 c 0
 1294 1372 1265 1407 1149 1407 c 0
 1110 1407 1060 1390 1031 1368 c 0
 930 1292 907 1057 907 923 c 0
 907 865 912 858 918 858 c 0
 930 858 1019 861 1044 861 c 0
 1158 861 1150 903 1199 903 c 0
 1205 903 1207 896 1207 887 c 0
 1207 853 1171 779 1138 779 c 0
 1042 779 1067 780 939 780 c 0
 901 780 900 771 900 265 c 0
 900 93 948 65 994 58 c 0
 1035 51 1075 48 1075 9 c 0
 1075 1 1074 -7 1053 -7 c 0
 1047 -7 905 2 857 2 c 0
 795 2 707 -10 685 -10 c 0
 658 -10 645 5 645 22 c 0
 645 84 758 0 758 160 c 0
 758 189 757 239 757 334 c 2
 757 416 l 2
 757 494 756 622 756 760 c 0
 756 782 747 784 725 784 c 0
 626 784 577 780 524 780 c 0
 485 780 438 779 394 779 c 0
 376 779 365 767 365 749 c 2
 365 510 l 2
 365 454 367 406 367 365 c 2
 367 250 l 2
 367 142 375 122 397 88 c 0
 417 56 541 52 541 21 c 0
 541 10 529 -3 513 -3 c 0
 507 -3 349 0 301 0 c 0
 239 0 231 -12 162 -12 c 0
 141 -12 113 -9 113 22 c 0
 113 40 125 47 143 51 c 0
 177 58 222 42 222 158 c 0
 222 215 221 356 221 741 c 0
 221 766 209 772 183 772 c 2
 96 772 l 2
 58 772 58 794 58 807 c 0xe7c0
367 886 m 0
 367 864 370 858 391 858 c 2
 478 858 l 2
 725 858 706 859 727 859 c 0
 752 859 764 860 764 896 c 0
 764 1125 853 1229 853 1264 c 0
 853 1300 718 1383 646 1383 c 0
 582 1383 552 1358 511 1318 c 0
 432 1240 367 1094 367 886 c 0
EndSplineSet
Ligature2: "liga subtable" f f k
LCarets2: 2 0 0 
EndChar

StartChar: bullet.001
Encoding: 65550 -1 68
Width: 1638
VWidth: 0
Flags: HW
PickledData: "(dp1
S'spacing_anchors_slanted'
p2
I00
s."
HStem: -20 96<872 1225.86> 382 110<1237.86 1362.29> 750 58<941.772 1268.72> 755 83<821.006 914.87> 988 89<150.653 245.275> 1302 78<627.504 930.891> 1346 53<205.848 405.561> 1418 53<1276.63 1345.99>
VStem: 40 92<1094.05 1251.57> 465 91<972.609 1241.68> 1024 80<990.209 1222.41> 1371 89<170.457 373.285> 1492 106<989.375 1230>
AnchorPoint: "l;bl" 0 40 basechar 0
AnchorPoint: "l;o" 0 450 basechar 0
AnchorPoint: "l;hi" 0 1500 basechar 0
AnchorPoint: "l;t" 0 1150 basechar 0
AnchorPoint: "l;x" 0 850 basechar 0
AnchorPoint: "r;bl" 1638 40 basechar 0
AnchorPoint: "r;o" 1638 450 basechar 0
AnchorPoint: "r;hi" 1638 1500 basechar 0
AnchorPoint: "r;t" 1638 1150 basechar 0
AnchorPoint: "r;x" 1638 850 basechar 0
LayerCount: 3
Fore
SplineSet
40 1149 m 2xdbf8
 40 1180 l 2
 40 1203 73 1280 93 1303 c 0
 114 1327 217 1399 310 1399 c 0xdbf8
 533 1399 524 1285 543 1285 c 0
 560 1285 617 1380 816 1380 c 0
 976 1380 1104 1286 1104 1128 c 0
 1104 965 942 853 942 828 c 0
 942 810 980 808 1026 808 c 0
 1128 808 1232 820 1264 832 c 0
 1434 895 1492 1044 1492 1088 c 0
 1492 1149 1438 1150 1438 1150 c 1
 1429 1154 1421 1167 1411 1167 c 0
 1404 1167 1398 1164 1392 1164 c 0
 1376 1164 1332 1228 1332 1279 c 0
 1332 1317 1350 1359 1350 1374 c 0
 1350 1392 1336 1418 1311 1418 c 0
 1306 1418 1301 1417 1296 1417 c 0
 1277 1417 1272 1428 1272 1435 c 0
 1272 1461 1357 1471 1377 1471 c 0
 1483 1471 1598 1304 1598 1156 c 0
 1598 897 1329 750 1079 750 c 0xedf8
 1025 750 993 755 939 755 c 0
 879 755 817 749 792 655 c 0
 788 640 787 628 787 622 c 0
 787 617 791 612 802 612 c 0
 823 612 870 676 951 676 c 0
 1032 676 1092 606 1092 524 c 0
 1092 410 952 362 952 224 c 0
 952 128 1074 76 1174 76 c 0
 1238 76 1291 108 1326 156 c 0
 1334 167 1328 180 1334 192 c 0
 1356 236 1371 239 1371 312 c 0
 1371 341 1337 382 1300 382 c 0
 1265 382 1261 368 1251 368 c 0
 1243 368 1228 383 1228 413 c 0
 1228 449 1262 492 1324 492 c 0
 1412 492 1460 402 1460 306 c 0
 1460 119 1241 33 1241 33 c 1
 1231 28 1169 -20 1008 -20 c 0
 736 -20 464 76 464 416 c 0
 464 534 544 661 636 661 c 0
 678 661 695 641 730 641 c 0
 732 641 732 652 742 670 c 0
 753 691 786 735 786 752 c 0
 786 776 610 789 512 952 c 0
 472 1019 465 1082 465 1236 c 0
 465 1297 387 1346 312 1346 c 0
 249 1346 221 1330 172 1300 c 24
 156 1290 165 1271 159 1253 c 24
 149 1222 132 1224 132 1173 c 0
 132 1132 175 1077 212 1077 c 2
 219 1077 l 2
 245 1077 250 1062 250 1052 c 0
 250 1036 235 988 176 988 c 0
 96 988 40 1070 40 1149 c 2xdbf8
556 1132 m 0
 556 954 693 838 840 838 c 0
 904 838 1024 968 1024 1126 c 0
 1024 1244 891 1301 771 1302 c 0xddf8
 664 1302 556 1252 556 1132 c 0
EndSplineSet
EndChar

StartChar: comma
Encoding: 44 44 69
Width: 512
VWidth: 0
Flags: HMW
PickledData: "(dp1
S'spacing_anchors_slanted'
p2
I00
s."
VStem: 260 142<-163.574 9.63813>
AnchorPoint: "l;bl" 0 40 basechar 0
AnchorPoint: "l;lo" 20 -420 basechar 0
AnchorPoint: "l;o" 55 450 basechar 0
AnchorPoint: "r;bl" 512 40 basechar 0
AnchorPoint: "r;lo" 412 -420 basechar 0
AnchorPoint: "r;o" 452 450 basechar 0
LayerCount: 3
Fore
SplineSet
110 111 m 0
 110 139 145 160 175 190 c 0
 200 215 213 256 260 256 c 0
 271 256 402 177 402 -1 c 0
 402 -194 218 -340 163 -340 c 0
 148 -340 134 -330 134 -313 c 0
 134 -271 260 -240 260 -98 c 0
 260 -13 212 19 146 68 c 0
 112 93 110 91 110 111 c 0
EndSplineSet
AlternateSubs2: "'aalt' Access All Alternates lookup 0 subtable" comma.sub comma.sup comma.denom comma.numer
AlternateSubs2: "'aalt' Access All Alternates in Latin lookup 0 subtable" comma.sub comma.sup comma.denom comma.numer
Substitution2: "'subs' Subscript in Latin lookup 8 subtable" comma.sub
Substitution2: "'sups' Superscript in Latin lookup 7 subtable" comma.sup
Substitution2: "'dnom' Denominators in Latin lookup 4 subtable" comma.denom
Substitution2: "'numr' Numerators in Latin lookup 3 subtable" comma.numer
Substitution2: "denominators subtable" comma.denom
Substitution2: "numerators subtable" comma.numer
EndChar

StartChar: hyphen
Encoding: 45 45 70
Width: 696
VWidth: 0
Flags: HMW
PickledData: "(dp1
S'spacing_anchors_slanted'
p2
I00
s."
HStem: 254 295
AnchorPoint: "l;o" 0 450 basechar 0
AnchorPoint: "r;o" 696 450 basechar 0
LayerCount: 3
Fore
SplineSet
90 297 m 2
 90 319 l 2
 90 405 113 408 206 435 c 0
 469 513 515 549 561 549 c 0
 598 549 606 516 606 480 c 2
 606 466 l 2
 606 387 586 402 408 344 c 0
 221 283 173 254 123 254 c 0
 93 254 90 273 90 297 c 2
EndSplineSet
AlternateSubs2: "'aalt' Access All Alternates lookup 0 subtable" hyphen.uppercase
AlternateSubs2: "'aalt' Access All Alternates in Latin lookup 0 subtable" hyphen.uppercase
Substitution2: "'case' Case-Sensitive Forms in Latin lookup 12 subtable" hyphen.uppercase
EndChar

StartChar: colon
Encoding: 58 58 71
Width: 533
VWidth: 0
Flags: HW
PickledData: "(dp1
S'spacing_anchors_slanted'
p2
I00
s."
HStem: -33 21G<249.5 280>
VStem: 136 266<634.96 747.175>
AnchorPoint: "l;bl" 0 40 basechar 0
AnchorPoint: "l;o" 20 450 basechar 0
AnchorPoint: "l;x" 0 850 basechar 0
AnchorPoint: "r;bl" 533 40 basechar 0
AnchorPoint: "r;o" 513 450 basechar 0
AnchorPoint: "r;x" 533 850 basechar 0
LayerCount: 3
Fore
SplineSet
120 113 m 0
 120 132 161 164 193 192 c 0
 220 216 240 260 279 260 c 0
 296 260 320 222 352 184 c 0
 370 163 413 132 413 112 c 0
 413 88 372 67 342 39 c 0
 317 15 294 -33 266 -33 c 0
 233 -33 210 22 183 42 c 0
 149 67 120 93 120 113 c 0
136 688 m 0
 136 706 165 737 196 764 c 0
 222 787 237 831 274 831 c 0
 290 831 328 782 349 756 c 0
 366 735 402 715 402 687 c 0
 402 664 368 644 339 617 c 0
 315 594 299 548 266 548 c 0
 234 548 215 601 196 620 c 0
 167 649 136 669 136 688 c 0
EndSplineSet
EndChar

StartChar: semicolon
Encoding: 59 59 72
Width: 537
VWidth: 0
Flags: HW
PickledData: "(dp1
S'spacing_anchors_slanted'
p2
I00
s."
HStem: 560 285<205.122 311.902>
VStem: 120 276<651.01 753.956> 275 142<-160.467 8.46223>
AnchorPoint: "l;bl" 0 40 basechar 0
AnchorPoint: "l;lo" 20 -420 basechar 0
AnchorPoint: "l;o" 20 450 basechar 0
AnchorPoint: "l;x" 0 850 basechar 0
AnchorPoint: "r;bl" 537 40 basechar 0
AnchorPoint: "r;lo" 457 -420 basechar 0
AnchorPoint: "r;o" 517 450 basechar 0
AnchorPoint: "r;x" 537 850 basechar 0
LayerCount: 3
Fore
SplineSet
120 700 m 0xc0
 120 718 154 749 185 776 c 0
 211 799 219 845 263 845 c 0
 279 845 317 794 338 768 c 0
 355 747 396 725 396 697 c 0
 396 674 362 654 333 627 c 0
 309 604 288 560 255 560 c 0
 223 560 204 613 185 632 c 0
 156 661 120 681 120 700 c 0xc0
125 111 m 0
 125 139 160 160 190 190 c 0
 215 215 228 256 275 256 c 0
 286 256 417 177 417 -1 c 0
 417 -194 229 -345 174 -345 c 0
 165 -345 149 -330 149 -313 c 0
 149 -271 275 -240 275 -98 c 0xa0
 275 -21 227 19 161 68 c 0
 127 93 125 91 125 111 c 0
EndSplineSet
EndChar

StartChar: exclam
Encoding: 33 33 73
Width: 566
VWidth: 0
Flags: HW
PickledData: "(dp1
S'spacing_anchors_slanted'
p2
I00
s."
HStem: -26 298<228.866 344.381>
VStem: 200 195<816.675 1401.18>
AnchorPoint: "l;bl" 0 40 basechar 0
AnchorPoint: "l;o" 0 450 basechar 0
AnchorPoint: "l;hi" 0 1500 basechar 0
AnchorPoint: "l;t" 0 1150 basechar 0
AnchorPoint: "l;x" 0 850 basechar 0
AnchorPoint: "r;bl" 566 40 basechar 0
AnchorPoint: "r;o" 566 450 basechar 0
AnchorPoint: "r;hi" 566 1500 basechar 0
AnchorPoint: "r;t" 566 1150 basechar 0
AnchorPoint: "r;x" 566 850 basechar 0
LayerCount: 3
Fore
SplineSet
140 130 m 0
 140 149 167 166 199 194 c 0
 226 218 251 272 290 272 c 0
 308 272 320 255 338 236 c 0
 407 163 446 161 446 126 c 0
 446 91 390 68 368 46 c 0
 343 21 320 -26 292 -26 c 0
 273 -26 227 15 207 42 c 0
 189 66 140 93 140 130 c 0
200 1334 m 0
 200 1383 240 1412 302 1412 c 0
 361 1412 395 1399 395 1345 c 0
 395 1330 391 1315 385 1266 c 0
 360 1065 366 860 313 430 c 8
 311 416 305 408 285 408 c 0
 269 408 261 415 260 427 c 16
 208 1037 227 916 219 1038 c 0
 209 1181 200 1239 200 1334 c 0
EndSplineSet
Position2: "'cpsp' Capital Spacing in Latin lookup 2 subtable" dx=4 dy=0 dh=8 dv=0
EndChar

StartChar: question
Encoding: 63 63 74
Width: 716
VWidth: 0
Flags: HW
PickledData: "(dp1
S'spacing_anchors_slanted'
p2
I00
s."
HStem: -18 288<293.142 400.964> 1287 91<220.253 406.066>
VStem: 283 71<420.397 656.469> 471 171<991.567 1223.65>
AnchorPoint: "l;bl" 0 40 basechar 0
AnchorPoint: "l;o" 0 450 basechar 0
AnchorPoint: "l;hi" 0 1500 basechar 0
AnchorPoint: "l;t" 0 1150 basechar 0
AnchorPoint: "l;x" 0 850 basechar 0
AnchorPoint: "r;bl" 716 40 basechar 0
AnchorPoint: "r;o" 716 450 basechar 0
AnchorPoint: "r;hi" 716 1500 basechar 0
AnchorPoint: "r;t" 716 1150 basechar 0
AnchorPoint: "r;x" 716 850 basechar 0
LayerCount: 3
Fore
SplineSet
154 1254 m 0
 154 1292 245 1378 366 1378 c 0
 501 1378 642 1299 642 1144 c 0
 642 943 354 733 354 515 c 0
 354 477 365 441 365 420 c 0
 365 408 362 399 349 399 c 0
 303 399 283 517 283 562 c 0
 283 707 471 993 471 1122 c 0
 471 1243 336 1287 284 1287 c 0
 223 1287 189 1234 172 1234 c 0
 159 1234 154 1248 154 1254 c 0
199 121 m 0
 199 140 241 177 272 204 c 1
 298 228 324 270 353 270 c 0
 373 270 414 207 423 198 c 0
 431 189 494 147 494 126 c 0
 494 92 446 75 424 53 c 0
 399 28 376 -18 349 -18 c 0
 330 -18 286 23 266 49 c 0
 248 73 199 93 199 121 c 0
EndSplineSet
Position2: "'cpsp' Capital Spacing in Latin lookup 2 subtable" dx=5 dy=0 dh=11 dv=0
EndChar

StartChar: quoteleft
Encoding: 8216 8216 75
Width: 540
VWidth: 0
Flags: HMW
PickledData: "(dp1
S'spacing_anchors_slanted'
p2
I00
s."
VStem: 150 135<1020.5 1296.31>
AnchorPoint: "r;x" 540 850 basechar 0
AnchorPoint: "r;t" 540 1150 basechar 0
AnchorPoint: "r;hi" 540 1500 basechar 0
AnchorPoint: "r;o" 480 450 basechar 0
AnchorPoint: "l;x" 60 850 basechar 0
AnchorPoint: "l;t" 0 1150 basechar 0
AnchorPoint: "l;hi" 0 1500 basechar 0
AnchorPoint: "l;o" 160 450 basechar 0
LayerCount: 3
Fore
SplineSet
150 1104 m 0
 150 1353 333 1461 373 1461 c 0
 390 1461 399 1442 399 1435 c 0
 399 1396 285 1381 285 1228 c 0
 285 1065 425 1080 425 1006 c 0
 425 990 399 967 370 938 c 0
 346 914 325 874 289 874 c 0
 273 874 150 937 150 1104 c 0
EndSplineSet
EndChar

StartChar: quoteright
Encoding: 8217 8217 76
Width: 540
VWidth: 0
Flags: HMW
PickledData: "(dp1
S'spacing_anchors_slanted'
p2
I00
s."
VStem: 255 135<1038.69 1314.5>
AnchorPoint: "l;o" 60 450 basechar 0
AnchorPoint: "l;hi" 0 1500 basechar 0
AnchorPoint: "l;t" 0 1150 basechar 0
AnchorPoint: "l;x" 0 850 basechar 0
AnchorPoint: "r;o" 360 450 basechar 0
AnchorPoint: "r;hi" 540 1500 basechar 0
AnchorPoint: "r;t" 540 1150 basechar 0
AnchorPoint: "r;x" 480 850 basechar 0
LayerCount: 3
Fore
SplineSet
115 1329 m 0
 115 1345 141 1368 170 1397 c 0
 194 1421 215 1461 251 1461 c 0
 267 1461 390 1398 390 1231 c 0
 390 982 207 874 167 874 c 0
 150 874 141 893 141 900 c 0
 141 939 255 954 255 1107 c 0
 255 1270 115 1255 115 1329 c 0
EndSplineSet
EndChar

StartChar: quotesinglbase
Encoding: 8218 8218 77
Width: 540
VWidth: 0
Flags: HMW
PickledData: "(dp1
S'spacing_anchors_slanted'
p2
I00
s."
VStem: 255 135<38.6904 314.5>
AnchorPoint: "l;bl" 0 40 basechar 0
AnchorPoint: "l;o" 0 450 basechar 0
AnchorPoint: "r;bl" 540 40 basechar 0
AnchorPoint: "r;o" 540 450 basechar 0
LayerCount: 3
Fore
SplineSet
115 329 m 0
 115 345 141 368 170 397 c 0
 194 421 215 461 251 461 c 0
 267 461 390 398 390 231 c 0
 390 -18 207 -126 167 -126 c 0
 150 -126 141 -107 141 -100 c 0
 141 -61 255 -46 255 107 c 0
 255 270 115 255 115 329 c 0
EndSplineSet
EndChar

StartChar: quotereversed
Encoding: 8219 8219 78
Width: 540
VWidth: 0
Flags: HMW
PickledData: "(dp1
S'spacing_anchors_slanted'
p2
I00
s."
VStem: 150 132<1054.78 1237.93>
AnchorPoint: "l;o" 180 450 basechar 0
AnchorPoint: "l;hi" 0 1500 basechar 0
AnchorPoint: "l;t" 0 1150 basechar 0
AnchorPoint: "l;x" 60 850 basechar 0
AnchorPoint: "r;o" 480 450 basechar 0
AnchorPoint: "r;hi" 540 1500 basechar 0
AnchorPoint: "r;t" 540 1150 basechar 0
AnchorPoint: "r;x" 540 850 basechar 0
LayerCount: 3
Fore
SplineSet
150 1231 m 0
 150 1398 278 1466 294 1466 c 0
 330 1466 351 1421 375 1397 c 0
 404 1368 427 1345 427 1329 c 0
 427 1309 417 1313 384 1289 c 0
 319 1241 282 1198 282 1115 c 0
 282 999 404 931 404 892 c 0
 404 885 398 878 388 878 c 0
 348 878 150 1001 150 1231 c 0
EndSplineSet
EndChar

StartChar: quotedblleft
Encoding: 8220 8220 79
Width: 940
VWidth: 0
Flags: HW
PickledData: "(dp1
S'spacing_anchors_slanted'
p2
I00
s."
HStem: 874 587<289 373 689 773>
VStem: 150 135<1020.5 1296.31> 550 135<1020.5 1296.31>
AnchorPoint: "r;o" 880 450 basechar 0
AnchorPoint: "r;hi" 940 1500 basechar 0
AnchorPoint: "r;t" 940 1150 basechar 0
AnchorPoint: "r;x" 940 850 basechar 0
AnchorPoint: "l;o" 160 450 basechar 0
AnchorPoint: "l;hi" 0 1500 basechar 0
AnchorPoint: "l;t" 0 1150 basechar 0
AnchorPoint: "l;x" 60 850 basechar 0
LayerCount: 3
Fore
SplineSet
150 1104 m 0
 150 1353 333 1461 373 1461 c 0
 390 1461 399 1442 399 1435 c 0
 399 1396 285 1381 285 1228 c 0
 285 1065 425 1080 425 1006 c 0
 425 990 399 967 370 938 c 0
 346 914 325 874 289 874 c 0
 273 874 150 937 150 1104 c 0
550 1104 m 0
 550 1353 733 1461 773 1461 c 0
 790 1461 799 1442 799 1435 c 0
 799 1396 685 1381 685 1228 c 0
 685 1065 825 1080 825 1006 c 0
 825 990 799 967 770 938 c 0
 746 914 725 874 689 874 c 0
 673 874 550 937 550 1104 c 0
EndSplineSet
EndChar

StartChar: quotedblright
Encoding: 8221 8221 80
Width: 940
VWidth: 0
Flags: HW
PickledData: "(dp1
S'spacing_anchors_slanted'
p2
I00
s."
HStem: 874 587<167 251 567 651>
VStem: 255 135<1038.69 1314.5> 655 135<1038.69 1314.5>
AnchorPoint: "r;x" 880 850 basechar 0
AnchorPoint: "r;t" 940 1150 basechar 0
AnchorPoint: "r;hi" 940 1500 basechar 0
AnchorPoint: "r;o" 760 450 basechar 0
AnchorPoint: "l;x" 0 850 basechar 0
AnchorPoint: "l;t" 0 1150 basechar 0
AnchorPoint: "l;hi" 0 1500 basechar 0
AnchorPoint: "l;o" 60 450 basechar 0
LayerCount: 3
Fore
SplineSet
115 1329 m 0
 115 1345 141 1368 170 1397 c 0
 194 1421 215 1461 251 1461 c 0
 267 1461 390 1398 390 1231 c 0
 390 982 207 874 167 874 c 0
 150 874 141 893 141 900 c 0
 141 939 255 954 255 1107 c 0
 255 1270 115 1255 115 1329 c 0
515 1329 m 0
 515 1345 541 1368 570 1397 c 0
 594 1421 615 1461 651 1461 c 0
 667 1461 790 1398 790 1231 c 0
 790 982 607 874 567 874 c 0
 550 874 541 893 541 900 c 0
 541 939 655 954 655 1107 c 0
 655 1270 515 1255 515 1329 c 0
EndSplineSet
EndChar

StartChar: quotedblbase
Encoding: 8222 8222 81
Width: 940
VWidth: 0
Flags: HW
PickledData: "(dp1
S'spacing_anchors_slanted'
p2
I00
s."
HStem: -126 587<167 251 567 651>
VStem: 255 135<38.6904 314.5> 655 135<38.6904 314.5>
AnchorPoint: "l;bl" 0 40 basechar 0
AnchorPoint: "l;o" 0 450 basechar 0
AnchorPoint: "r;bl" 940 40 basechar 0
AnchorPoint: "r;o" 940 450 basechar 0
LayerCount: 3
Fore
SplineSet
115 329 m 0
 115 345 141 368 170 397 c 0
 194 421 215 461 251 461 c 0
 267 461 390 398 390 231 c 0
 390 -18 207 -126 167 -126 c 0
 150 -126 141 -107 141 -100 c 0
 141 -61 255 -46 255 107 c 0
 255 270 115 255 115 329 c 0
515 329 m 0
 515 345 541 368 570 397 c 0
 594 421 615 461 651 461 c 0
 667 461 790 398 790 231 c 0
 790 -18 607 -126 567 -126 c 0
 550 -126 541 -107 541 -100 c 0
 541 -61 655 -46 655 107 c 0
 655 270 515 255 515 329 c 0
EndSplineSet
EndChar

StartChar: uni201F
Encoding: 8223 8223 82
Width: 940
VWidth: 0
Flags: HW
PickledData: "(dp1
S'spacing_anchors_slanted'
p2
I00
s."
HStem: 874 587<290 374 690 774>
VStem: 151 135<1038.69 1314.5> 551 135<1038.69 1314.5>
AnchorPoint: "r;x" 940 850 basechar 0
AnchorPoint: "r;t" 940 1150 basechar 0
AnchorPoint: "r;hi" 940 1500 basechar 0
AnchorPoint: "r;o" 880 450 basechar 0
AnchorPoint: "l;x" 60 850 basechar 0
AnchorPoint: "l;t" 0 1150 basechar 0
AnchorPoint: "l;hi" 0 1500 basechar 0
AnchorPoint: "l;o" 180 450 basechar 0
LayerCount: 3
Fore
SplineSet
151 1231 m 0
 151 1398 274 1461 290 1461 c 0
 326 1461 347 1421 371 1397 c 0
 400 1368 426 1345 426 1329 c 0
 426 1255 286 1270 286 1107 c 0
 286 954 400 939 400 900 c 0
 400 893 391 874 374 874 c 0
 334 874 151 982 151 1231 c 0
551 1231 m 0
 551 1398 674 1461 690 1461 c 0
 726 1461 747 1421 771 1397 c 0
 800 1368 826 1345 826 1329 c 0
 826 1255 686 1270 686 1107 c 0
 686 954 800 939 800 900 c 0
 800 893 791 874 774 874 c 0
 734 874 551 982 551 1231 c 0
EndSplineSet
EndChar

StartChar: dagger
Encoding: 8224 8224 83
Width: 1140
VWidth: 0
Flags: HW
PickledData: "(dp1
S'spacing_anchors_slanted'
p2
I00
s."
HStem: 980 248<138.345 251.782 897.431 1011.65> 1070 54<342.447 533.781 613.046 781.805> 1509 20G<530.5 588>
VStem: 446 257<556.98 764.5 1387.3 1520.22> 538 73<-439.734 0.265385 806.928 1070 1124.14 1332.7>
AnchorPoint: "l;bl" 0 40 basechar 0
AnchorPoint: "l;lo" 0 -420 basechar 0
AnchorPoint: "l;o" 0 450 basechar 0
AnchorPoint: "l;hi" 0 1500 basechar 0
AnchorPoint: "l;t" 0 1150 basechar 0
AnchorPoint: "l;x" 0 850 basechar 0
AnchorPoint: "r;bl" 1140 40 basechar 0
AnchorPoint: "r;lo" 1140 -420 basechar 0
AnchorPoint: "r;o" 1140 450 basechar 0
AnchorPoint: "r;hi" 1140 1500 basechar 0
AnchorPoint: "r;t" 1140 1150 basechar 0
AnchorPoint: "r;x" 1140 850 basechar 0
LayerCount: 3
Fore
SplineSet
130 1104 m 0xb0
 130 1136 131 1228 171 1228 c 0xb0
 189 1228 306 1124 513 1124 c 0
 527 1124 538 1127 538 1139 c 0
 538 1304 448 1456 448 1486 c 0
 448 1511 489 1529 572 1529 c 0
 604 1529 696 1528 696 1488 c 0
 696 1470 611 1308 611 1136 c 0x68
 611 1125 617 1122 623 1122 c 0
 794 1122 947 1233 977 1233 c 0
 1002 1233 1020 1192 1020 1109 c 0
 1020 1077 1019 985 979 985 c 0
 961 985 870 1070 627 1070 c 0
 617 1070 613 1068 613 1060 c 0
 613 764 703 715 703 695 c 0
 703 638 615 684 615 -388 c 0
 615 -436 605 -440 582 -440 c 2
 574 -440 l 2
 553 -440 544 -436 544 -388 c 0
 544 680 446 642 446 691 c 0
 446 713 534 741 534 1063 c 0
 534 1068 531 1070 520 1070 c 0x70
 318 1070 203 980 173 980 c 0
 148 980 130 1021 130 1104 c 0xb0
EndSplineSet
EndChar

StartChar: daggerdbl
Encoding: 8225 8225 84
Width: 1140
VWidth: 0
Flags: HW
PickledData: "(dp1
S'spacing_anchors_slanted'
p2
I00
s."
HStem: -420 21G<555 615.5> -98 260<128.785 278.606 883.755 1011.83> -2 66<362.055 532.872 606.01 799.162> 960 248<132.345 252.343 878.824 1005.65> 1050 54<351.956 527.781 607.046 776.027>
VStem: 442 260<-411.215 -281.737 493.248 652.768 1391.54 1498.94> 533 73<-232.366 -4.19507 68.0209 395.339 714.317 1050 1104.14 1325.44>
AnchorPoint: "l;bl" 0 40 basechar 0
AnchorPoint: "l;lo" 0 -420 basechar 0
AnchorPoint: "l;o" 0 450 basechar 0
AnchorPoint: "l;hi" 0 1500 basechar 0
AnchorPoint: "l;t" 0 1150 basechar 0
AnchorPoint: "l;x" 0 850 basechar 0
AnchorPoint: "r;bl" 1140 40 basechar 0
AnchorPoint: "r;lo" 1140 -420 basechar 0
AnchorPoint: "r;o" 1140 450 basechar 0
AnchorPoint: "r;hi" 1140 1500 basechar 0
AnchorPoint: "r;t" 1140 1150 basechar 0
AnchorPoint: "r;x" 1140 850 basechar 0
LayerCount: 3
Fore
SplineSet
120 32 m 0xc2
 120 66 121 162 161 162 c 0xc2
 179 162 379 64 515 64 c 0
 527 64 534 67 534 76 c 0
 534 360 449 539 449 591 c 0
 449 613 528 660 528 1043 c 0
 528 1048 525 1050 514 1050 c 0xaa
 352 1050 197 960 167 960 c 0
 142 960 124 1001 124 1084 c 0
 124 1116 125 1208 165 1208 c 0x92
 183 1208 312 1104 507 1104 c 0
 521 1104 532 1107 532 1119 c 0
 532 1320 442 1436 442 1466 c 0x8c
 442 1491 483 1509 566 1509 c 0
 598 1509 690 1508 690 1468 c 0
 690 1450 605 1320 605 1116 c 0
 605 1105 611 1102 617 1102 c 0
 792 1102 941 1213 971 1213 c 0
 996 1213 1014 1172 1014 1089 c 0
 1014 1057 1013 965 973 965 c 0
 955 965 828 1050 621 1050 c 0
 611 1050 607 1048 607 1040 c 0
 607 676 688 608 688 588 c 0
 688 575 606 400 606 77 c 0
 606 70 613 68 621 68 c 0
 804 68 946 165 977 165 c 0
 1002 165 1020 122 1020 35 c 0
 1020 1 1019 -95 979 -95 c 0
 966 -95 816 -4 637 -4 c 0
 620 -4 606 -4 606 -30 c 0x8a
 606 -240 702 -347 702 -377 c 0
 702 -402 659 -420 572 -420 c 0
 538 -420 442 -419 442 -379 c 0x8c
 442 -366 533 -204 533 -24 c 0
 533 -12 524 -2 510 -2 c 0xaa
 412 -2 193 -98 163 -98 c 0
 138 -98 120 -55 120 32 c 0xc2
EndSplineSet
EndChar

StartChar: bullet
Encoding: 8226 8226 85
Width: 858
VWidth: 1050
Flags: HW
PickledData: "(dp1
S'spacing_anchors_slanted'
p2
I00
s."
HStem: 368 618<275.04 583.707>
VStem: 120 618<517.346 831.707>
AnchorPoint: "l;o" 0 450 basechar 0
AnchorPoint: "l;x" 0 850 basechar 0
AnchorPoint: "r;o" 858 450 basechar 0
AnchorPoint: "r;x" 858 850 basechar 0
LayerCount: 3
Fore
SplineSet
120 677 m 0
 120 847 258 986 429 986 c 0
 599 986 738 849 738 678 c 0
 738 507 601 368 430 368 c 0
 259 368 120 506 120 677 c 0
EndSplineSet
AlternateSubs2: "'aalt' Access All Alternates lookup 0 subtable" bullet.001
AlternateSubs2: "'aalt' Access All Alternates in Latin lookup 0 subtable" bullet.001
Substitution2: "salt subtable" bullet.001
EndChar

StartChar: paragraph
Encoding: 182 182 86
Width: 1034
VWidth: 0
Flags: HW
PickledData: "(dp1
S'spacing_anchors_slanted'
p2
I00
s."
HStem: -379 62<399.682 545.831> 658 58<517.118 615.097> 1420 44<502.794 608.125 672 753.276>
VStem: 90 375<836.44 1225.71> 615 53<-116.74 656.077 721.347 1415.37> 759 50<12.0961 1372.32>
AnchorPoint: "l;bl" 0 40 basechar 0
AnchorPoint: "l;lo" 60 -420 basechar 0
AnchorPoint: "l;o" 0 450 basechar 0
AnchorPoint: "l;hi" 0 1500 basechar 0
AnchorPoint: "l;t" 0 1150 basechar 0
AnchorPoint: "l;x" 0 850 basechar 0
AnchorPoint: "r;bl" 1034 40 basechar 0
AnchorPoint: "r;lo" 974 -420 basechar 0
AnchorPoint: "r;o" 1034 450 basechar 0
AnchorPoint: "r;hi" 1034 1500 basechar 0
AnchorPoint: "r;t" 1034 1150 basechar 0
AnchorPoint: "r;x" 1034 850 basechar 0
LayerCount: 3
Fore
SplineSet
90 1034 m 0
 90 1302 317 1464 497 1464 c 0
 606 1464 684 1467 772 1467 c 0
 809 1467 849 1470 894 1470 c 2
 920 1470 l 2
 929 1470 937 1458 937 1451 c 0
 937 1419 879 1424 844 1387 c 0
 827 1369 815 1333 815 1252 c 0
 815 839 809 605 809 192 c 0
 809 -124 657 -379 417 -379 c 0
 363 -379 328 -375 281 -349 c 16
 272 -344 265 -312 265 -294 c 0
 265 -253 299 -160 326 -160 c 0
 367 -160 343 -317 485 -317 c 0
 614 -317 620 -40 620 113 c 0
 620 138 622 160 622 177 c 0
 622 313 617 441 617 628 c 0
 617 653 591 658 565 658 c 0
 366 658 90 689 90 1034 c 0
465 1030 m 0
 465 850 485 716 564 716 c 0
 587 716 617 732 618 756 c 0
 619 781 619 804 619 827 c 0
 619 913 615 986 615 1059 c 0
 615 1335 620 1307 620 1335 c 0
 620 1392 607 1420 564 1420 c 0
 544 1420 497 1409 487 1376 c 16
 465 1304 465 1286 465 1030 c 0
668 1037 m 0
 668 930 669 830 669 730 c 0
 669 392 675 122 675 54 c 0
 675 -83 669 -69 669 -99 c 0
 669 -113 673 -121 685 -121 c 0
 700 -121 759 26 759 246 c 0
 759 691 755 993 755 1388 c 0
 755 1411 730 1425 708 1425 c 0
 692 1425 672 1415 672 1398 c 0
 669 1267 668 1148 668 1037 c 0
EndSplineSet
EndChar

StartChar: emdash
Encoding: 8212 8212 87
Width: 2048
VWidth: 0
Flags: HW
PickledData: "(dp1
S'spacing_anchors_slanted'
p2
I00
s."
HStem: 379 108<0.06427 2047.38>
AnchorPoint: "l;o" 0 450 basechar 0
AnchorPoint: "r;o" 2048 450 basechar 0
LayerCount: 3
Fore
SplineSet
0 438 m 0
 0 484 20 487 70 487 c 2
 2004 487 l 2
 2035 487 2048 482 2048 425 c 0
 2048 398 2031 379 2004 379 c 2
 78 379 l 2
 0 379 0 381 0 438 c 0
EndSplineSet
AlternateSubs2: "'aalt' Access All Alternates lookup 0 subtable" emdash.uppercase
AlternateSubs2: "'aalt' Access All Alternates in Latin lookup 0 subtable" emdash.uppercase
Substitution2: "'case' Case-Sensitive Forms in Latin lookup 12 subtable" emdash.uppercase
EndChar

StartChar: endash
Encoding: 8211 8211 88
Width: 1024
VWidth: 0
Flags: HW
PickledData: "(dp1
S'spacing_anchors_slanted'
p2
I00
s."
HStem: 379 108<0.06427 1023.38>
AnchorPoint: "l;o" 0 450 basechar 0
AnchorPoint: "r;o" 1024 450 basechar 0
LayerCount: 3
Fore
SplineSet
0 438 m 0
 0 484 20 487 70 487 c 2
 980 487 l 2
 1011 487 1024 482 1024 425 c 0
 1024 398 1007 379 980 379 c 2
 78 379 l 2
 0 379 0 381 0 438 c 0
EndSplineSet
AlternateSubs2: "'aalt' Access All Alternates lookup 0 subtable" endash.uppercase
AlternateSubs2: "'aalt' Access All Alternates in Latin lookup 0 subtable" endash.uppercase
Substitution2: "'case' Case-Sensitive Forms in Latin lookup 12 subtable" endash.uppercase
EndChar

StartChar: acutecomb
Encoding: 769 769 89
Width: 0
VWidth: 0
Flags: W
PickledData: "(dp1
S'spacing_anchors_slanted'
p2
I00
s."
HStem: 983 373
VStem: -529 304
AnchorPoint: "top" -450 940 mark 0
AnchorPoint: "l;k;t" -619 1150 basechar 0
AnchorPoint: "r;k;t" -135 1150 mark 0
LayerCount: 3
Fore
SplineSet
-529 1006 m 0
 -529 1034 -481 1061 -374 1317 c 0
 -360 1350 -340 1356 -332 1356 c 0
 -324 1356 -225 1345 -225 1302 c 0
 -225 1259 -341 1135 -424 1047 c 0
 -455 1014 -488 983 -504 983 c 0
 -517 983 -529 993 -529 1006 c 0
EndSplineSet
Validated: 1
EndChar

StartChar: uni0302
Encoding: 770 770 91
Width: 0
VWidth: 0
Flags: W
PickledData: "(dp1
S'spacing_anchors_slanted'
p2
I00
s."
HStem: 1181 146<-508.696 -396.202>
VStem: -680 462<1011 1026>
AnchorPoint: "top" -450 940 mark 0
AnchorPoint: "r;k;t" -188 1150 basechar 0
AnchorPoint: "l;k;t" -710 1150 basechar 0
LayerCount: 3
Fore
SplineSet
-680 1022 m 0
 -680 1026 -677 1032 -672 1040 c 0
 -494 1300 -514 1327 -480 1327 c 2
 -428 1327 l 2
 -416 1327 -406 1326 -393 1304 c 0
 -315 1164 -218 1043 -218 1023 c 0
 -218 1007 -233 1007 -240 1007 c 0
 -267 1007 -435 1181 -450 1181 c 0
 -477 1181 -631 1009 -660 1009 c 0
 -666 1009 -680 1011 -680 1022 c 0
EndSplineSet
Validated: 1
EndChar

StartChar: gravecomb
Encoding: 768 768 92
Width: 0
VWidth: 0
Flags: W
PickledData: "(dp1
S'spacing_anchors_slanted'
p2
I00
s."
HStem: 983 373
VStem: -675 304
AnchorPoint: "l;k;t" -765 1150 mark 0
AnchorPoint: "r;k;t" -281 1150 mark 0
AnchorPoint: "top" -450 940 mark 0
LayerCount: 3
Fore
SplineSet
-675 1302 m 0
 -675 1345 -576 1356 -568 1356 c 0
 -560 1356 -540 1350 -526 1317 c 0
 -419 1061 -371 1034 -371 1006 c 0
 -371 993 -383 983 -396 983 c 0
 -412 983 -445 1014 -476 1047 c 0
 -559 1135 -675 1259 -675 1302 c 0
EndSplineSet
Validated: 1
EndChar

StartChar: tildecomb
Encoding: 771 771 95
Width: 0
VWidth: 0
Flags: W
PickledData: "(dp1
S'spacing_anchors_slanted'
p2
I00
s."
HStem: 1086 118<-417.475 -257.295> 1184 118<-640.189 -488.075>
VStem: -752 602
AnchorPoint: "l;k;t" -782 1150 basechar 0
AnchorPoint: "r;k;t" -90 1150 basechar 0
AnchorPoint: "top" -450 940 mark 0
LayerCount: 3
Fore
SplineSet
-752 1086 m 0xa0
 -752 1118 -645 1302 -553 1302 c 0x60
 -453 1302 -396 1204 -296 1204 c 0
 -228 1204 -190 1319 -171 1319 c 0
 -163 1319 -150 1316 -150 1295 c 0
 -150 1258 -255 1086 -347 1086 c 0xa0
 -450 1086 -513 1184 -604 1184 c 0x60
 -675 1184 -712 1069 -731 1069 c 0
 -739 1069 -752 1072 -752 1086 c 0xa0
EndSplineSet
Validated: 1
EndChar

StartChar: uni0308
Encoding: 776 776 96
Width: 0
VWidth: 0
Flags: W
PickledData: "(dp1
S'spacing_anchors_slanted'
p2
I00
s."
HStem: 1101 214<-659.259 -524 -332.259 -197>
VStem: -688 195<1131.02 1288.94> -361 195<1131.02 1288.94>
AnchorPoint: "l;k;t" -778 1150 basechar 0
AnchorPoint: "r;k;t" -76 1150 basechar 0
AnchorPoint: "top" -450 940 mark 0
LayerCount: 3
Fore
SplineSet
-688 1210 m 0
 -688 1244 -636 1315 -591 1315 c 0
 -543 1315 -493 1251 -493 1210 c 0
 -493 1160 -564 1101 -582 1101 c 0
 -642 1101 -688 1177 -688 1210 c 0
-361 1210 m 0
 -361 1244 -309 1315 -264 1315 c 0
 -216 1315 -166 1251 -166 1210 c 0
 -166 1160 -237 1101 -255 1101 c 0
 -315 1101 -361 1177 -361 1210 c 0
EndSplineSet
Validated: 1
EndChar

StartChar: uni0306
Encoding: 774 774 99
Width: 0
VWidth: 0
Flags: W
PickledData: "(dp1
S'spacing_anchors_slanted'
p2
I00
s."
HStem: 1027 119<-564.511 -307.108>
VStem: -681 484<1200 1289>
AnchorPoint: "l;k;t" -741 1150 basechar 0
AnchorPoint: "r;k;t" -137 1150 basechar 0
AnchorPoint: "top" -450 940 mark 0
LayerCount: 3
Fore
SplineSet
-681 1285 m 0
 -681 1289 -669 1290 -659 1290 c 2
 -650 1290 l 2
 -624 1290 -601 1146 -428 1146 c 0
 -262 1146 -255 1290 -228 1290 c 2
 -219 1290 l 2
 -209 1290 -197 1289 -197 1285 c 0
 -197 1200 -270 1027 -440 1027 c 0
 -609 1027 -681 1188 -681 1285 c 0
EndSplineSet
Validated: 1
EndChar

StartChar: uni030C
Encoding: 780 780 100
Width: 0
VWidth: 0
Flags: W
PickledData: "(dp1
S'spacing_anchors_slanted'
p2
I00
s."
HStem: 1007 146<-501.798 -389.304>
VStem: -680 462<1308 1323>
AnchorPoint: "l;k;t" -740 1150 basechar 0
AnchorPoint: "r;k;t" -158 1150 mark 0
AnchorPoint: "top" -450 940 mark 0
LayerCount: 3
Fore
SplineSet
-680 1311 m 0
 -680 1327 -665 1327 -658 1327 c 0
 -631 1327 -463 1153 -448 1153 c 0
 -421 1153 -267 1325 -238 1325 c 0
 -232 1325 -218 1323 -218 1312 c 0
 -218 1308 -221 1302 -226 1294 c 0
 -404 1034 -384 1007 -418 1007 c 2
 -470 1007 l 2
 -482 1007 -492 1008 -505 1030 c 0
 -583 1170 -680 1291 -680 1311 c 0
EndSplineSet
Validated: 1
EndChar

StartChar: exclamdown
Encoding: 161 161 103
Width: 566
VWidth: 0
Flags: HW
PickledData: "(dp1
S'spacing_anchors_slanted'
p2
I00
s."
HStem: -26 21G<234.5 295> 958 20G<271 289> 1114 298<221.619 337.134>
VStem: 171 195<-15.1816 569.325>
AnchorPoint: "l;bl" 0 40 basechar 0
AnchorPoint: "l;o" 0 450 basechar 0
AnchorPoint: "l;hi" 0 1500 basechar 0
AnchorPoint: "l;t" 0 1150 basechar 0
AnchorPoint: "l;x" 0 850 basechar 0
AnchorPoint: "r;bl" 566 40 basechar 0
AnchorPoint: "r;o" 566 450 basechar 0
AnchorPoint: "r;hi" 566 1500 basechar 0
AnchorPoint: "r;t" 566 1150 basechar 0
AnchorPoint: "r;x" 566 850 basechar 0
LayerCount: 3
Fore
SplineSet
120 1260 m 0
 120 1295 176 1318 198 1340 c 0
 223 1365 246 1412 274 1412 c 0
 293 1412 339 1371 359 1344 c 0
 377 1320 426 1293 426 1256 c 0
 426 1237 399 1220 367 1192 c 0
 340 1168 315 1114 276 1114 c 0
 258 1114 246 1131 228 1150 c 0
 159 1223 120 1225 120 1260 c 0
171 41 m 0
 171 56 175 71 181 120 c 0
 206 321 200 526 253 956 c 8
 255 970 261 978 281 978 c 0
 297 978 305 971 306 959 c 16
 358 349 339 470 347 348 c 0
 357 205 366 147 366 52 c 0
 366 3 326 -26 264 -26 c 0
 205 -26 171 -13 171 41 c 0
EndSplineSet
Position2: "'cpsp' Capital Spacing in Latin lookup 2 subtable" dx=4 dy=0 dh=8 dv=0
EndChar

StartChar: questiondown
Encoding: 191 191 104
Width: 716
VWidth: 0
Flags: HW
PickledData: "(dp1
S'spacing_anchors_slanted'
p2
I00
s."
HStem: -18 91<309.934 495.747> 941 20G<360.5 390> 1090 288<315.036 422.858>
VStem: 74 171<136.348 368.433> 362 71<703.531 939.603>
AnchorPoint: "l;bl" 0 40 basechar 0
AnchorPoint: "l;o" 0 450 basechar 0
AnchorPoint: "l;hi" 0 1500 basechar 0
AnchorPoint: "l;t" 0 1150 basechar 0
AnchorPoint: "l;x" 0 850 basechar 0
AnchorPoint: "r;bl" 716 40 basechar 0
AnchorPoint: "r;o" 716 450 basechar 0
AnchorPoint: "r;hi" 716 1500 basechar 0
AnchorPoint: "r;t" 716 1150 basechar 0
AnchorPoint: "r;x" 716 850 basechar 0
LayerCount: 3
Fore
SplineSet
74 216 m 0
 74 417 362 627 362 845 c 0
 362 883 351 919 351 940 c 0
 351 952 354 961 367 961 c 0
 413 961 433 843 433 798 c 0
 433 653 245 367 245 238 c 0
 245 117 380 73 432 73 c 0
 493 73 527 126 544 126 c 0
 557 126 562 112 562 106 c 0
 562 68 471 -18 350 -18 c 0
 215 -18 74 61 74 216 c 0
222 1234 m 0
 222 1268 270 1285 292 1307 c 0
 317 1332 340 1378 367 1378 c 0
 386 1378 430 1337 450 1311 c 0
 468 1287 517 1267 517 1239 c 0
 517 1220 475 1183 444 1156 c 1
 418 1132 392 1090 363 1090 c 0
 343 1090 302 1153 293 1162 c 0
 285 1171 222 1213 222 1234 c 0
EndSplineSet
Position2: "'cpsp' Capital Spacing in Latin lookup 2 subtable" dx=5 dy=0 dh=11 dv=0
EndChar

StartChar: uni0302.cap.NOTUSED
Encoding: 65551 -1 110
Width: 0
VWidth: 0
Flags: W
PickledData: "(dp1
S'spacing_anchors_slanted'
p2
I00
s."
HStem: 1179 124<-516.619 -389.33>
VStem: -680 462<1035 1047>
AnchorPoint: "top" -450 960 mark 0
LayerCount: 3
Fore
SplineSet
-680 1044 m 0
 -680 1047 -677 1052 -672 1059 c 0
 -494 1280 -514 1303 -480 1303 c 2
 -428 1303 l 2
 -416 1303 -406 1302 -393 1283 c 0
 -315 1164 -218 1062 -218 1045 c 0
 -218 1031 -233 1031 -240 1031 c 0
 -267 1031 -435 1179 -450 1179 c 0
 -477 1179 -631 1033 -660 1033 c 0
 -666 1033 -680 1035 -680 1044 c 0
EndSplineSet
Validated: 1
EndChar

StartChar: uni030C.cap.NOTUSED
Encoding: 65552 -1 111
Width: 0
VWidth: 0
Flags: W
PickledData: "(dp1
S'spacing_anchors_slanted'
p2
I00
s."
HStem: 1031 124<-508.67 -381.381>
VStem: -680 462<1287 1299>
AnchorPoint: "top" -450 960 mark 0
LayerCount: 3
Fore
SplineSet
-680 1289 m 0
 -680 1303 -665 1303 -658 1303 c 0
 -631 1303 -463 1155 -448 1155 c 0
 -421 1155 -267 1301 -238 1301 c 0
 -232 1301 -218 1299 -218 1290 c 0
 -218 1287 -221 1282 -226 1275 c 0
 -404 1054 -384 1031 -418 1031 c 2
 -470 1031 l 2
 -482 1031 -492 1032 -505 1051 c 0
 -583 1170 -680 1272 -680 1289 c 0
EndSplineSet
Validated: 1
EndChar

StartChar: dotlessi
Encoding: 305 305 116
Width: 581
VWidth: 0
Flags: HW
PickledData: "(dp1
S'spacing_anchors_slanted'
p2
I00
s."
HStem: -13 20G<155 198 497.5 518.5> 880 20G<326.5 349>
VStem: 213 148<72.3906 740.308>
AnchorPoint: "r;o" 571 450 basechar 0
AnchorPoint: "r;x" 571 850 basechar 0
AnchorPoint: "r;bl" 581 40 basechar 0
AnchorPoint: "l;o" 0 450 basechar 0
AnchorPoint: "l;x" 0 850 basechar 0
AnchorPoint: "l;bl" 0 40 basechar 0
AnchorPoint: "top" 253 940 basechar 0
LayerCount: 3
Fore
SplineSet
73 781 m 0
 73 813 125 814 239 862 c 0
 312 893 310 900 343 900 c 0
 355 900 372 890 372 861 c 0
 372 837 361 797 361 762 c 2
 361 200 l 2
 361 -22 537 92 537 20 c 0
 537 8 535 -14 502 -14 c 0
 493 -14 483 -13 472 -13 c 0
 385 -13 404 -8 326 -8 c 0
 241 -8 215 -13 181 -13 c 0
 129 -13 98 -6 98 15 c 0
 98 29 110 48 129 54 c 0
 208 80 213 66 213 421 c 2
 213 603 l 2
 213 773 139 743 94 760 c 0
 83 764 73 772 73 781 c 0
EndSplineSet
EndChar

StartChar: uni0237
Encoding: 567 567 124
Width: 575
VWidth: 0
Flags: HW
PickledData: "(dp1
S'spacing_anchors_slanted'
p2
I00
s."
HStem: -410 101<106.5 239.712> 763 95<160.945 243.684> 882 20G<373 392>
VStem: 259 143<-213.267 746.103>
AnchorPoint: "r;lo" 465 -420 basechar 0
AnchorPoint: "r;o" 575 450 basechar 0
AnchorPoint: "r;x" 575 850 basechar 0
AnchorPoint: "r;bl" 575 40 basechar 0
AnchorPoint: "l;k;lo" 40 -420 basechar 0
AnchorPoint: "l;o" 20 450 basechar 0
AnchorPoint: "l;x" 0 850 basechar 0
AnchorPoint: "l;bl" 40 40 basechar 0
AnchorPoint: "top" 284 940 basechar 0
LayerCount: 3
Fore
SplineSet
48 -281 m 4
 48 -246 58 -222 93 -222 c 4
 135 -222 177 -309 210 -309 c 4
 244 -309 259 -240 259 21 c 6
 259 643 l 6
 259 689 255 763 137 763 c 4
 118 763 105 766 105 784 c 4
 105 811 163 801 284 858 c 4
 327 878 365 902 381 902 c 4
 403 902 406 881 406 855 c 4
 406 847 406 839 406 831 c 4
 406 798 402 760 402 736 c 6
 402 72 l 6
 402 -120 348 -410 132 -410 c 4
 81 -410 51 -394 51 -354 c 4
 51 -331 48 -304 48 -281 c 4
EndSplineSet
EndChar

StartChar: uni0327
Encoding: 807 807 150
Width: 0
VWidth: 0
Flags: W
PickledData: "(dp1
S'spacing_anchors_slanted'
p2
I00
s."
HStem: -412 322<-511 -448>
VStem: -445 103<-335.528 -210.988>
AnchorPoint: "cedilla" -450 -162 mark 0
LayerCount: 3
Fore
SplineSet
-551 -162 m 0
 -551 -153 -531 -141 -509 -125 c 0
 -491 -112 -475 -90 -448 -90 c 0
 -436 -90 -342 -124 -342 -216 c 0
 -342 -353 -481 -412 -511 -412 c 0
 -524 -412 -531 -402 -531 -398 c 0
 -531 -377 -445 -368 -445 -284 c 0
 -445 -194 -551 -203 -551 -162 c 0
EndSplineSet
Validated: 1
EndChar

StartChar: uni0307
Encoding: 775 775 153
Width: 0
VWidth: 0
Flags: W
PickledData: "(dp1
S'spacing_anchors_slanted'
p2
I00
s."
HStem: 1092 228<-508.519 -382.636>
VStem: -544 197<1127.23 1285.74>
AnchorPoint: "r;k;t" -257 1150 basechar 0
AnchorPoint: "l;k;t" -634 1150 basechar 0
AnchorPoint: "top" -450 940 mark 0
LayerCount: 3
Fore
SplineSet
-544 1209 m 0
 -544 1236 -488 1320 -443 1320 c 0
 -395 1320 -347 1245 -347 1204 c 0
 -347 1154 -426 1092 -444 1092 c 0
 -504 1092 -544 1176 -544 1209 c 0
EndSplineSet
Validated: 1
EndChar

StartChar: uni030A
Encoding: 778 778 158
Width: 0
VWidth: 0
Flags: W
PickledData: "(dp1
S'spacing_anchors_slanted'
p2
I00
s."
HStem: 1044 80<-518.501 -383.04> 1288 80<-516.074 -382.339>
VStem: -606 77<1135.58 1272.94> -372 77<1136.88 1278.26>
AnchorPoint: "r;k;t" -205 1150 basechar 0
AnchorPoint: "l;k;t" -696 1150 basechar 0
AnchorPoint: "top" -450 940 mark 0
LayerCount: 3
Fore
SplineSet
-606 1210 m 0
 -606 1275 -542 1368 -447 1368 c 0
 -335 1368 -295 1261 -295 1203 c 0
 -295 1089 -420 1044 -448 1044 c 0
 -587 1044 -606 1163 -606 1210 c 0
-529 1208 m 0
 -529 1158 -497 1124 -449 1124 c 0
 -435 1124 -372 1137 -372 1205 c 0
 -372 1235 -383 1288 -449 1288 c 0
 -485 1288 -529 1254 -529 1208 c 0
EndSplineSet
Validated: 1
EndChar

StartChar: a.sc
Encoding: 65553 -1 162
Width: 1187
VWidth: 0
Flags: HMW
PickledData: "(dp1
S'spacing_anchors_slanted'
p2
I00
s."
HStem: -3 21G<54.5 86 370.5 409.5 736.5 757.5 1090.5 1114> 343 77<392.546 680.997> 962 20G<562.5 600>
AnchorPoint: "top" 574 1025 basechar 0
AnchorPoint: "l;bl" 0 40 basechar 0
AnchorPoint: "l;o" 100 450 basechar 0
AnchorPoint: "l;x" 200 850 basechar 0
AnchorPoint: "r;bl" 1187 40 basechar 0
AnchorPoint: "r;o" 1087 450 basechar 0
AnchorPoint: "r;x" 987 850 basechar 0
LayerCount: 3
Fore
SplineSet
40 24 m 0
 40 62 116 46 167 134 c 0
 222 228 238 289 283 388 c 24
 369 579 458 769 502 878 c 0
 513 905 543 982 582 982 c 0
 618 982 629 933 664 858 c 0
 765 638 943 196 1023 93 c 0
 1045 64 1147 81 1147 33 c 0
 1147 8 1127 1 1101 1 c 0
 1080 1 971 8 918 8 c 0
 878 8 768 -1 747 -1 c 0
 726 -1 716 15 716 25 c 0
 716 40 731 54 770 54 c 0
 785 54 805 76 805 110 c 0
 805 158 731 324 715 336 c 0
 712 338 712 343 694 343 c 0
 400 343 429 340 400 340 c 0
 358 340 353 333 333 290 c 0
 289 199 283 186 283 151 c 0
 283 16 443 80 443 25 c 0
 443 15 435 0 384 0 c 0
 357 0 292 7 233 7 c 0
 168 7 105 -3 67 -3 c 0
 42 -3 40 9 40 24 c 0
392 445 m 0
 392 424 417 420 451 420 c 0
 494 420 646 424 668 424 c 0
 677 424 681 432 681 441 c 0
 681 461 670 488 648 535 c 2
 615 604 l 2
 605 625 545 747 528 747 c 0
 511 747 392 461 392 445 c 0
EndSplineSet
EndChar

StartChar: b.sc
Encoding: 65554 -1 163
Width: 980
VWidth: 0
Flags: HMW
PickledData: "(dp1
S'spacing_anchors_slanted'
p2
I00
s."
HStem: -1 47<279 558> 468 44<363.732 593.497> 866 74<40.0312 189.643 364.109 610.767>
VStem: 208 148<81.1562 467.989 513.789 854.474> 715 7<504 670> 777 163<129.479 369.287>
AnchorPoint: "l;bl" 44 40 basechar 0
AnchorPoint: "l;o" 40 450 basechar 0
AnchorPoint: "l;x" 0 850 basechar 0
AnchorPoint: "r;bl" 980 40 basechar 0
AnchorPoint: "r;o" 980 450 basechar 0
AnchorPoint: "r;x" 960 850 basechar 0
LayerCount: 3
Fore
SplineSet
40 903 m 0
 40 929 67 935 93 935 c 2
 93 935 256 928 278 928 c 0
 340 928 456 940 507 940 c 0
 658 940 860 894 860 708 c 0
 860 530 722 512 722 504 c 0
 722 487 940 486 940 252 c 0
 940 193 896 -16 536 -16 c 0
 432 -16 317 -1 279 -1 c 0
 243 -1 184 -6 133 -6 c 0
 107 -6 84 0 84 21 c 0
 84 49 131 52 154 66 c 0
 203 95 206 81 206 314 c 0
 206 374 208 450 208 547 c 2
 208 776 l 2
 208 787 202 873 91 873 c 0
 83 873 40 879 40 903 c 0
352 154 m 2
 352 66 486 46 558 46 c 0
 692 46 777 151 777 246 c 0
 777 370 682 468 400 468 c 0
 354 468 352 453 352 331 c 2
 352 154 l 2
356 760 m 0
 356 605 357 585 357 566 c 0
 357 517 381 512 438 512 c 2
 516 512 l 2
 691 512 715 567 715 670 c 0
 715 712 680 866 464 866 c 0
 372 866 356 853 356 760 c 0
EndSplineSet
EndChar

StartChar: c.sc
Encoding: 65555 -1 164
Width: 1068
VWidth: 0
Flags: HW
PickledData: "(dp1
S'spacing_anchors_slanted'
p2
I00
s."
HStem: -34 108<457.234 788.172> 889 72<420.607 707.159>
VStem: 80 168<312.159 641.824> 926 51<593.258 651.121>
AnchorPoint: "top" 576 1025 basechar 0
AnchorPoint: "cedilla" 598 -162 basechar 0
AnchorPoint: "l;o" 0 450 basechar 0
AnchorPoint: "r;bl" 1068 40 basechar 0
AnchorPoint: "r;o" 1068 450 basechar 0
AnchorPoint: "r;x" 1068 850 basechar 0
LayerCount: 3
Fore
SplineSet
80 439 m 0
 80 695 285 961 604 961 c 0
 728 961 849 895 872 895 c 0
 890 895 909 920 921 920 c 0
 946 920 945 919 955 798 c 0
 960 737 977 728 977 615 c 0
 977 595 961 593 956 593 c 0
 947 593 932 596 926 608 c 0
 834 800 700 889 566 889 c 0
 491 889 431 868 384 832 c 0
 252 731 248 645 248 484 c 0
 248 409 326 74 620 74 c 0
 864 74 936 224 964 224 c 0
 988 224 998 210 998 201 c 0
 998 191 875 -34 578 -34 c 0
 180 -34 80 241 80 439 c 0
EndSplineSet
EndChar

StartChar: d.sc
Encoding: 65556 -1 165
Width: 1210
VWidth: 0
Flags: HW
PickledData: "(dp1
S'spacing_anchors_slanted'
p2
I00
s."
HStem: -14 74<84.048 199.914 400.519 761.277> 866 72<40.5686 184.531 371.584 690.548>
VStem: 210 154<88.5739 850.101> 960 170<280.356 623.887>
AnchorPoint: "top" 592 1025 basechar 0
AnchorPoint: "l;bl" 44 40 basechar 0
AnchorPoint: "l;o" 40 450 basechar 0
AnchorPoint: "l;x" 0 850 basechar 0
AnchorPoint: "r;o" 1210 450 basechar 0
LayerCount: 3
Fore
SplineSet
40 910 m 0
 40 933 61 936 86 936 c 0
 93 936 203 930 278 930 c 24
 399 931 558 938 589 938 c 0
 910 938 1130 787 1130 500 c 0
 1130 323 1068 230 983 130 c 0
 867 -7 649 -14 614 -14 c 0
 544 -14 392 0 304 0 c 0
 216 0 150 -14 121 -14 c 0
 91 -14 84 6 84 22 c 0
 84 72 150 42 187 74 c 0
 203 88 210 135 210 160 c 0
 210 688 215 609 215 688 c 0
 215 782 199 859 119 866 c 0
 90 869 40 863 40 910 c 0
364 206 m 0
 364 155 372 60 510 60 c 0
 644 60 764 70 848 151 c 0
 912 213 960 291 960 413 c 0
 960 695 769 866 510 866 c 2
 436 866 l 2
 370 866 369 851 369 774 c 0
 369 699 364 265 364 206 c 0
EndSplineSet
EndChar

StartChar: e.sc
Encoding: 65557 -1 166
Width: 942
VWidth: 0
Flags: HMW
PickledData: "(dp1
S'spacing_anchors_slanted'
p2
I00
s."
HStem: 7 70<379.871 686.734> 464 75<363.617 619.44> 857 83<359.561 715.744>
VStem: 208 152<91.6896 462.176 539.248 854.312> 655 54<586.059 665.207> 737 69<715.133 825.281>
AnchorPoint: "top" 456 1025 basechar 0
AnchorPoint: "l;bl" 50 40 basechar 0
AnchorPoint: "l;o" 50 450 basechar 0
AnchorPoint: "l;x" 0 850 basechar 0
AnchorPoint: "r;bl" 942 40 basechar 0
AnchorPoint: "r;o" 882 450 basechar 0
AnchorPoint: "r;x" 922 850 basechar 0
LayerCount: 3
Fore
SplineSet
40 919 m 0
 40 943 71 947 82 947 c 0
 94 947 106 944 121 944 c 0
 156 944 353 940 496 940 c 0
 554 940 706 949 749 949 c 0
 767 949 803 947 803 915 c 0
 803 903 802 885 802 863 c 0
 802 851 806 791 806 743 c 0
 806 725 789 715 774 715 c 0
 736 715 754 761 737 793 c 0
 706 854 576 857 485 857 c 0
 357 857 356 856 356 744 c 0
 356 633 355 613 355 610 c 0
 355 540 377 539 423 539 c 0
 595 539 618 553 655 631 c 0
 656 634 662 666 688 666 c 0
 704 666 709 657 709 641 c 0
 709 616 704 543 704 494 c 0
 704 447 712 388 712 361 c 0
 712 337 700 323 688 323 c 0
 655 323 662 411 599 448 c 0
 574 462 541 464 496 464 c 2
 434 464 l 2
 380 464 363 451 363 429 c 0
 363 339 360 339 360 205 c 0
 360 138 367 77 474 77 c 0
 800 77 830 202 864 202 c 0
 872 202 882 199 882 187 c 0
 882 125 806 -19 691 -19 c 0
 600 -19 509 7 328 7 c 0
 227 7 168 -7 128 -7 c 0
 114 -7 90 3 90 25 c 0
 90 87 208 26 208 173 c 0
 208 743 215 572 215 743 c 0
 215 829 190 876 62 881 c 0
 40 882 40 901 40 919 c 0
EndSplineSet
EndChar

StartChar: f.sc
Encoding: 65558 -1 167
Width: 844
VWidth: 0
Flags: HW
PickledData: "(dp1
S'spacing_anchors_slanted'
p2
I00
s."
HStem: -8 64<401.35 555.714> 458 73<358.867 615.377> 855 78<362.068 702.115>
VStem: 214 141<87.8483 456.844 531.266 849.711> 744 60<711.118 805.845>
AnchorPoint: "l;bl" 51 40 basechar 0
AnchorPoint: "l;o" 50 450 basechar 0
AnchorPoint: "l;x" 0 850 basechar 0
AnchorPoint: "r;bl" 684 40 basechar 0
AnchorPoint: "r;o" 824 450 basechar 0
AnchorPoint: "r;x" 844 850 basechar 0
LayerCount: 3
Fore
SplineSet
40 909 m 0
 40 916 44 943 78 943 c 0
 160 943 222 933 470 933 c 0
 634 933 662 939 744 939 c 0
 793 939 800 915 800 894 c 0
 800 848 804 794 804 773 c 0
 804 752 799 711 772 711 c 0
 756 711 746 724 744 743 c 0
 742 768 721 840 616 847 c 0
 500 855 506 855 458 855 c 0
 366 855 363 838 359 792 c 0
 358 784 355 769 355 629 c 0
 355 544 363 531 409 531 c 0
 424 531 469 534 492 534 c 0
 570 534 562 537 595 551 c 0
 649 574 654 673 687 673 c 0
 700 673 710 661 710 637 c 0
 710 622 708 545 708 484 c 0
 708 434 717 367 717 357 c 0
 717 330 700 321 690 321 c 0
 640 321 675 406 596 437 c 0
 571 447 582 458 428 458 c 0
 388 458 355 454 355 420 c 2
 355 358 l 2
 355 165 364 71 461 56 c 0
 527 46 558 40 558 14 c 0
 558 0 535 -8 506 -8 c 0
 460 -8 333 7 294 7 c 0
 212 7 194 -2 121 -2 c 0
 106 -2 91 2 91 24 c 0
 91 65 206 44 206 183 c 0
 206 287 214 426 214 705 c 0
 214 949 40 839 40 909 c 0
EndSplineSet
EndChar

StartChar: g.sc
Encoding: 65559 -1 168
Width: 1082
VWidth: 0
Flags: HW
PickledData: "(dp1
S'spacing_anchors_slanted'
p2
I00
s."
HStem: -35 82<410.492 684.029> 378 56<622.063 767.28> 899 65<385.596 675.052>
VStem: 40 168<265.627 663.035> 790 151<112.009 365.793> 870 57<618.48 705.967>
AnchorPoint: "cedilla" 548 -162 basechar 0
AnchorPoint: "top" 526 1025 basechar 0
AnchorPoint: "l;o" 0 450 basechar 0
AnchorPoint: "r;bl" 1042 40 basechar 0
AnchorPoint: "r;o" 1082 450 basechar 0
AnchorPoint: "r;x" 1042 850 basechar 0
LayerCount: 3
Fore
SplineSet
40 449 m 0xf8
 40 705 219 964 538 964 c 0
 682 964 803 893 843 893 c 0
 867 893 856 920 889 920 c 0
 915 920 906 895 915 788 c 0
 920 724 927 682 927 654 c 0
 927 628 918 618 904 618 c 0
 885 618 874 631 870 643 c 0xf4
 811 824 663 899 529 899 c 0
 454 899 367 870 325 829 c 0
 214 721 208 635 208 474 c 0
 208 233 366 47 552 47 c 0
 614 47 687 66 747 112 c 0
 787 143 790 178 790 242 c 0
 790 338 784 378 666 378 c 0
 622 378 622 400 622 409 c 0
 622 414 625 434 648 434 c 2
 838 434 l 2
 922 434 945 437 990 437 c 0
 1010 437 1032 434 1032 416 c 0
 1032 366 941 401 941 333 c 0
 941 246 943 167 943 140 c 0
 943 107 638 -35 504 -35 c 0
 242 -35 40 133 40 449 c 0xf8
EndSplineSet
EndChar

StartChar: h.sc
Encoding: 65560 -1 169
Width: 1222
VWidth: -10
Flags: HW
PickledData: "(dp1
S'spacing_anchors_slanted'
p2
I00
s."
HStem: -4 56<94.3567 185.888 421.565 563.678 745.539 825.581 1047.75 1181.86> 436 104<374.921 848.976> 866 70<40.0723 183.125 1025.97 1137.91>
VStem: 223 147<85.3617 435.946 540.06 833.17> 850 147<82.8691 437.984 542.362 833.733>
AnchorPoint: "top" 605 1025 basechar 0
AnchorPoint: "l;bl" 54 40 basechar 0
AnchorPoint: "l;o" 20 450 basechar 0
AnchorPoint: "l;x" 0 850 basechar 0
AnchorPoint: "r;bl" 1222 40 basechar 0
AnchorPoint: "r;o" 1162 450 basechar 0
AnchorPoint: "r;x" 1178 850 basechar 0
LayerCount: 3
Fore
SplineSet
40 902 m 0
 40 924 65 940 84 940 c 0
 124 940 124 928 276 928 c 0
 341 928 374 936 468 936 c 0
 479 936 512 933 512 906 c 0
 512 824 370 932 370 717 c 0
 370 700 371 684 371 671 c 0
 371 548 378 539 439 539 c 0
 456 539 479 540 506 540 c 2
 583 540 l 2
 603 540 629 541 695 541 c 0
 846 541 849 542 849 565 c 0
 849 573 847 593 847 628 c 2
 847 706 l 2
 847 734 847 765 841 784 c 0
 812 882 676 846 676 902 c 0
 676 921 694 934 745 934 c 0
 782 934 864 924 922 924 c 0
 959 924 1050 936 1104 936 c 0
 1117 936 1138 924 1138 904 c 0
 1138 874 1125 870 1102 866 c 0
 1013 849 1001 836 1001 632 c 0
 1001 300 997 441 997 253 c 1
 1001 106 1008 65 1156 52 c 0
 1160 52 1182 43 1182 22 c 0
 1182 2 1181 -4 1140 -4 c 0
 1106 -4 979 1 936 1 c 0
 880 1 862 0 792 0 c 0
 753 0 745 13 745 30 c 0
 745 55 766 51 790 60 c 0
 836 77 850 89 850 207 c 0
 850 254 849 331 849 388 c 0
 849 433 841 438 802 438 c 0
 688 438 650 436 422 436 c 0
 399 436 370 436 370 395 c 0
 370 305 372 215 372 168 c 0
 372 119 406 52 539 52 c 0
 552 52 564 40 564 29 c 0
 564 1 546 -1 525 -1 c 0
 451 -1 377 0 340 0 c 0
 262 0 217 -2 164 -2 c 0
 105 -2 94 7 94 30 c 0
 94 60 114 66 134 66 c 0
 215 66 220 116 220 302 c 0
 220 643 223 643 223 681 c 0
 223 716 222 751 218 776 c 8
 208 837 128 868 90 868 c 0
 50 868 40 895 40 902 c 0
EndSplineSet
EndChar

StartChar: i.sc
Encoding: 65561 -1 170
Width: 604
VWidth: -10
Flags: HW
PickledData: "(dp1
S'spacing_anchors_slanted'
p2
I00
s."
HStem: 0 56<90.0167 185.007 410.175 563.985> 868 72<40.0769 199.697 395.255 511.343>
VStem: 220 148<80.4243 849.411>
AnchorPoint: "top" 285 1025 basechar 0
AnchorPoint: "l;bl" 50 40 basechar 0
AnchorPoint: "l;o" 20 450 basechar 0
AnchorPoint: "l;x" 0 850 basechar 0
AnchorPoint: "r;bl" 604 40 basechar 0
AnchorPoint: "r;o" 564 450 basechar 0
AnchorPoint: "r;x" 564 850 basechar 0
LayerCount: 3
Fore
SplineSet
40 902 m 0
 40 924 65 940 84 940 c 0
 124 940 124 928 276 928 c 0
 341 928 374 939 468 939 c 0
 479 939 512 936 512 909 c 0
 512 881 475 882 443 866 c 0
 407 849 372 838 372 717 c 0
 372 700 368 255 368 208 c 0
 368 118 409 78 430 68 c 0
 448 60 496 56 531 56 c 0
 544 56 564 48 564 29 c 0
 564 2 549 -6 524 -6 c 0
 444 -6 361 7 312 7 c 0
 234 7 206 0 153 0 c 0
 94 0 90 11 90 29 c 0
 90 46 113 51 132 56 c 0
 210 76 220 116 220 302 c 0
 220 543 221 583 221 703 c 0
 221 733 221 752 204 822 c 0
 193 866 134 868 95 868 c 0
 43 868 40 899 40 902 c 0
EndSplineSet
EndChar

StartChar: j.sc
Encoding: 65562 -1 171
Width: 540
VWidth: -10
Flags: HW
PickledData: "(dp1
S'spacing_anchors_slanted'
p2
I00
s."
HStem: -404 116<61.1161 196.827> 868 70<40.0102 209.449 402.763 498.513>
VStem: 239 149<-142.159 848.525>
AnchorPoint: "top" 280 1025 basechar 0
AnchorPoint: "l;bl" 40 40 basechar 0
AnchorPoint: "l;k;lo" -11 -420 basechar 0
AnchorPoint: "l;o" 40 450 basechar 0
AnchorPoint: "l;x" 0 850 basechar 0
AnchorPoint: "r;bl" 540 40 basechar 0
AnchorPoint: "r;lo" 420 -420 basechar 0
AnchorPoint: "r;o" 540 450 basechar 0
AnchorPoint: "r;x" 540 850 basechar 0
LayerCount: 3
Fore
SplineSet
29 -326 m 0
 29 -304 43 -242 51 -226 c 0
 57 -213 63 -206 78 -206 c 0
 106 -206 126 -288 160 -288 c 0
 238 -288 239 -69 239 105 c 0
 239 194 236 271 236 302 c 0
 236 543 231 583 231 703 c 0
 231 733 231 752 214 822 c 0
 203 866 134 868 95 868 c 0
 43 868 40 899 40 902 c 0
 40 924 53 938 72 938 c 0
 112 938 114 928 266 928 c 0
 331 928 364 939 458 939 c 0
 469 939 500 939 500 912 c 0
 500 884 474 892 442 876 c 0
 406 859 392 838 392 717 c 0
 392 700 388 255 388 208 c 0
 388 101 383 -26 339 -158 c 0
 302 -268 192 -404 91 -404 c 0
 34 -404 29 -368 29 -326 c 0
EndSplineSet
EndChar

StartChar: k.sc
Encoding: 65563 -1 172
Width: 1192
VWidth: 0
Flags: HW
PickledData: "(dp1
S'spacing_anchors_slanted'
p2
I00
s."
HStem: -5 61<401.708 564.589> -3 116<934.96 1107.86> -3 90<85.9234 208.277> 864 74<381.583 494.119> 880 61<40.0676 173.428>
VStem: 221 147<135.805 387.723 471.003 846.949>
AnchorPoint: "cedilla" 625 -162 basechar 0
AnchorPoint: "l;bl" 43 40 basechar 0
AnchorPoint: "l;o" 30 450 basechar 0
AnchorPoint: "l;x" 0 850 basechar 0
AnchorPoint: "r;bl" 1192 40 basechar 0
AnchorPoint: "r;o" 1092 450 basechar 0
AnchorPoint: "r;x" 1123 850 basechar 0
LayerCount: 3
Fore
SplineSet
40 913 m 0x2c
 40 927 50 941 86 941 c 0x2c
 129 941 219 934 304 934 c 0
 370 934 359 938 464 938 c 0
 475 938 495 937 495 913 c 0
 495 877 483 883 412 864 c 0
 374 854 371 778 371 731 c 0
 371 621 368 523 368 497 c 0
 368 475 370 471 379 471 c 0
 383 471 778 792 778 852 c 0
 778 897 670 859 670 915 c 0
 670 937 685 940 697 940 c 0
 717 940 797 933 897 933 c 0
 973 933 1016 940 1039 940 c 0
 1064 940 1083 936 1083 904 c 0
 1083 850 1000 898 887 812 c 0
 771 724 599 557 599 555 c 0
 599 548 891 174 985 113 c 0x54
 1060 64 1182 68 1182 33 c 0
 1182 4 1166 -3 1132 -3 c 0
 1108 -3 1061 1 1023 1 c 0
 1000 1 919 -3 907 -3 c 0x24
 862 -3 659 242 657 245 c 0
 524 397 503 454 481 454 c 0
 447 454 392 389 392 389 c 0
 370 362 368 319 368 298 c 0
 368 220 370 120 399 89 c 0
 427 59 484 56 517 56 c 2
 537 56 l 2
 550 56 565 41 565 30 c 0
 565 -3 529 -5 503 -5 c 0x84
 420 -5 427 7 311 7 c 0
 232 7 193 -3 139 -3 c 0
 95 -3 83 14 83 25 c 0
 83 88 170 58 192 87 c 0
 215 118 221 161 221 624 c 0
 221 784 215 781 203 813 c 0
 187 855 130 879 68 880 c 0
 42 880 40 903 40 913 c 0x2c
EndSplineSet
EndChar

StartChar: l.sc
Encoding: 65564 -1 173
Width: 899
VWidth: 0
Flags: HMW
PickledData: "(dp1
S'spacing_anchors_slanted'
p2
I00
s."
HStem: -14 21G<612.5 741.5> 7 67<384.834 653.722> 854 85<383.088 485.315>
VStem: 227 148<80.2991 848.792>
AnchorPoint: "r;s;dot" 788 680 basechar 0
AnchorPoint: "right" 668 930 basechar 0
AnchorPoint: "top" 293 1025 basechar 0
AnchorPoint: "cedilla" 485 -162 basechar 0
AnchorPoint: "l;bl" 55 40 basechar 0
AnchorPoint: "l;o" 20 450 basechar 0
AnchorPoint: "l;x" 0 850 basechar 0
AnchorPoint: "r;bl" 899 40 basechar 0
AnchorPoint: "r;o" 839 450 basechar 0
LayerCount: 3
Fore
SplineSet
40 914 m 0
 40 936 63 939 98 939 c 0
 143 939 209 932 267 932 c 0
 371 932 373 939 424 939 c 0
 451 939 489 936 489 908 c 0
 489 875 424 877 403 854 c 0
 386 834 375 799 375 738 c 0
 375 321 377 726 377 200 c 2
 377 162 l 2
 377 102 385 74 471 74 c 0
 799 74 815 210 856 210 c 0
 865 210 879 204 879 173 c 0
 879 111 825 -14 658 -14 c 0
 567 -14 459 7 316 7 c 0
 215 7 177 -4 137 -4 c 0
 123 -4 95 2 95 24 c 0
 95 86 225 12 225 168 c 0
 225 200 223 245 223 314 c 0
 223 477 227 651 227 738 c 0
 227 935 40 828 40 914 c 0
EndSplineSet
EndChar

StartChar: m.sc
Encoding: 65565 -1 174
Width: 1418
VWidth: 0
Flags: HW
PickledData: "(dp1
S'spacing_anchors_slanted'
p2
I00
s."
HStem: 0 56<1262.05 1377.47> 873 61<40.1503 177.262>
VStem: 230 56<328.719 614.84>
AnchorPoint: "l;bl" 46 40 basechar 0
AnchorPoint: "l;o" 40 450 basechar 0
AnchorPoint: "l;x" 0 850 basechar 0
AnchorPoint: "r;bl" 1418 40 basechar 0
AnchorPoint: "r;o" 1378 450 basechar 0
AnchorPoint: "r;x" 1352 850 basechar 0
LayerCount: 3
Fore
SplineSet
40 906 m 0
 40 933 63 934 96 934 c 0
 117 934 138 933 304 933 c 0
 330 933 350 916 355 906 c 0
 678 228 701 228 713 228 c 0
 728 228 737 242 760 288 c 0
 1090 937 1077 939 1120 939 c 0
 1161 939 1197 935 1223 935 c 0
 1303 934 1312 929 1312 909 c 0
 1312 882 1287 886 1237 864 c 0
 1197 847 1181 811 1181 719 c 0
 1181 626 1195 392 1210 252 c 0
 1228 81 1251 75 1339 56 c 0
 1352 53 1378 47 1378 23 c 0
 1378 5 1357 0 1339 0 c 0
 1257 0 1195 8 1144 8 c 0
 1064 8 1033 0 978 0 c 0
 953 0 941 12 941 20 c 0
 941 85 1055 -3 1055 182 c 0
 1055 250 1036 567 1036 572 c 0
 1036 602 1034 616 1021 616 c 0
 1008 616 971 537 918 436 c 0
 693 10 705 10 672 10 c 0
 645 10 615 55 571 144 c 2
 400 484 l 2
 358 567 330 624 320 624 c 0
 300 624 286 354 286 219 c 0
 286 26 443 89 443 24 c 0
 443 13 431 1 394 1 c 0
 350 1 297 8 279 8 c 0
 262 8 171 -1 133 -1 c 0
 91 -1 86 9 86 21 c 0
 86 62 194 64 205 176 c 0
 213 260 230 667 230 720 c 0
 230 765 198 873 103 873 c 0
 80 873 40 876 40 906 c 0
EndSplineSet
EndChar

StartChar: n.sc
Encoding: 65566 -1 175
Width: 1210
VWidth: 0
Flags: HW
PickledData: "(dp1
S'spacing_anchors_slanted'
p2
I00
s."
HStem: -30 21G<1001.5 1014> -3 85<102.858 215.942> 871 64<40.2632 187.977 784.402 915.299>
VStem: 256 64<239.954 701.876> 968 81<267.043 823.913>
AnchorPoint: "top" 609 1025 basechar 0
AnchorPoint: "cedilla" 639 -162 basechar 0
AnchorPoint: "l;bl" 59 40 basechar 0
AnchorPoint: "l;o" 43 450 basechar 0
AnchorPoint: "l;x" 0 850 basechar 0
AnchorPoint: "r;bl" 1156 40 basechar 0
AnchorPoint: "r;o" 1193 450 basechar 0
AnchorPoint: "r;x" 1210 850 basechar 0
LayerCount: 3
Fore
SplineSet
40 908 m 0
 40 929 57 935 91 935 c 0
 111 935 137 932 169 932 c 0
 211 932 267 939 309 939 c 0
 340 939 364 928 368 919 c 0
 373 908 414 873 452 823 c 0
 526 727 658 583 769 461 c 0
 860 361 936 267 948 267 c 0
 960 267 968 325 968 552 c 2
 968 611 l 2
 968 732 961 846 857 871 c 0
 819 880 784 878 784 907 c 0
 784 924 798 934 821 934 c 0
 839 934 989 929 1004 929 c 0
 1065 929 1097 935 1124 935 c 0
 1156 935 1170 929 1170 901 c 0
 1170 855 1049 904 1049 711 c 2
 1049 698 l 2
 1049 586 1037 352 1037 275 c 0
 1037 189 1043 23 1043 0 c 0
 1043 -18 1022 -30 1006 -30 c 0
 997 -30 988 -26 984 -21 c 2
 804 194 l 2
 642 388 533 488 408 641 c 0
 363 696 357 703 349 703 c 0
 331 703 320 622 320 358 c 0
 320 232 321 211 327 148 c 0
 338 33 482 78 482 31 c 0
 482 21 478 -1 450 -1 c 0
 408 -1 425 5 299 5 c 0
 268 5 201 -3 150 -3 c 0
 139 -3 99 -3 99 25 c 0
 99 63 156 57 187 82 c 0
 217 106 227 148 239 233 c 0
 245 272 256 540 256 645 c 0
 256 771 221 871 83 871 c 0
 63 871 40 874 40 908 c 0
EndSplineSet
EndChar

StartChar: o.sc
Encoding: 65567 -1 176
Width: 1201
VWidth: 0
Flags: HW
PickledData: "(dp1
S'spacing_anchors_slanted'
p2
I00
s."
HStem: -29 85<489.563 800.089> 893 74<424.532 722.914>
VStem: 80 173<318.495 669.438> 963 158<274.356 655.297>
AnchorPoint: "top" 606 1025 basechar 0
AnchorPoint: "l;o" 0 450 basechar 0
AnchorPoint: "r;o" 1201 450 basechar 0
LayerCount: 3
Fore
SplineSet
80 458 m 0
 80 794 356 967 624 967 c 0
 850 967 1121 813 1121 515 c 0
 1121 145 859 -29 598 -29 c 0
 339 -29 80 143 80 458 c 0
253 509 m 0
 253 289 433 56 634 56 c 0
 945 56 963 366 963 465 c 0
 963 711 755 893 587 893 c 0
 392 893 253 774 253 509 c 0
EndSplineSet
EndChar

StartChar: p.sc
Encoding: 65568 -1 177
Width: 944
VWidth: 0
Flags: HMW
PickledData: "(dp1
S'spacing_anchors_slanted'
p2
I00
s."
HStem: 5 58.3036<94.4294 198.342 405.034 574.445> 417 60<439.798 622.294> 883 60<40.228 184.825 395.634 608.358>
VStem: 223 148<84.2614 857.336> 727 177<553.654 792.633>
AnchorPoint: "l;bl" 53 40 basechar 0
AnchorPoint: "l;o" 20 450 basechar 0
AnchorPoint: "l;x" 0 850 basechar 0
AnchorPoint: "r;bl" 684 40 basechar 0
AnchorPoint: "r;o" 924 450 basechar 0
AnchorPoint: "r;x" 944 850 basechar 0
LayerCount: 3
Fore
SplineSet
40 911 m 0
 40 919 50 947 88 947 c 0
 104 947 261 943 287 943 c 0
 352 943 524 955 577 955 c 0
 745 955 904 879 904 703 c 0
 904 461 691 417 613 417 c 0
 529 417 413 445 413 465 c 0
 413 481 421 482 434 482 c 0
 455 482 488 477 521 477 c 0
 541 477 727 499 727 675 c 0
 727 757 651 883 489 883 c 2
 473 883 l 2
 422 883 373 877 373 741 c 0
 373 251 371 427 371 199 c 0
 371 85 429 68 484 63 c 0
 532 59 577 63 577 19 c 0
 577 5 557 -3 541 -3 c 0
 454 -3 330 5 301 5 c 0
 264 5 209 -3 143 -3 c 0
 126 -3 93 3 93 25 c 0
 93 61 135 51 170 68 c 0
 190 78 207 96 215 135 c 0
 222 173 223 314 223 476 c 0
 223 687 225 687 225 740 c 0
 225 822 199 883 74 883 c 0
 60 883 40 891 40 911 c 0
EndSplineSet
EndChar

StartChar: q.sc
Encoding: 65569 -1 178
Width: 1199
VWidth: 0
Flags: HMW
PickledData: "(dp1
S'spacing_anchors_slanted'
p2
I00
s."
HStem: -396 99<1101.62 1319.86> 889 67<425.104 712.954>
VStem: 80 169<315.111 679.016> 960 159<277.222 645.739>
AnchorPoint: "l;bl" 80 40 basechar 0
AnchorPoint: "l;lo" 130 -420 basechar 0
AnchorPoint: "l;o" 0 450 basechar 0
AnchorPoint: "r;k;lo" 1373 -420 basechar 0
AnchorPoint: "r;o" 1199 450 basechar 0
LayerCount: 3
Fore
SplineSet
80 486 m 0
 80 772 322 956 606 956 c 0
 855 956 1119 814 1119 501 c 0
 1119 79 745 -11 745 -16 c 0
 745 -30 917 -120 1080 -239 c 0
 1135 -279 1193 -297 1230 -297 c 0
 1329 -297 1314 -274 1340 -274 c 0
 1360 -274 1363 -278 1363 -290 c 0
 1363 -321 1313 -396 1136 -396 c 0
 988 -396 909 -312 786 -222 c 1
 786 -222 466 3 390 3 c 0
 362 3 238 -78 238 -201 c 0
 238 -234 246 -260 246 -274 c 0
 246 -299 242 -315 223 -315 c 0
 180 -315 164 -188 164 -160 c 0
 164 -37 280 49 280 58 c 0
 280 96 80 186 80 486 c 0
249 528 m 0
 249 270 438 48 626 48 c 0
 858 48 960 195 960 453 c 0
 960 677 782 889 577 889 c 0
 384 889 249 770 249 528 c 0
EndSplineSet
EndChar

StartChar: r.sc
Encoding: 65570 -1 179
Width: 1054
VWidth: 0
Flags: HMW
PickledData: "(dp1
S'spacing_anchors_slanted'
p2
I00
s."
HStem: 9 51<90.5345 180.37 411.27 533.953> 446 57<369.926 535.004> 874 58<40.449 172.987 365.579 560.805>
VStem: 204 156<91.2175 446 503.76 854.103> 688 158<556.379 784.773>
AnchorPoint: "top" 492 1025 basechar 0
AnchorPoint: "cedilla" 564 -162 basechar 0
AnchorPoint: "l;bl" 50 40 basechar 0
AnchorPoint: "l;o" 40 450 basechar 0
AnchorPoint: "l;x" 0 850 basechar 0
AnchorPoint: "r;bl" 1054 40 basechar 0
AnchorPoint: "r;o" 1024 450 basechar 0
AnchorPoint: "r;x" 1024 850 basechar 0
LayerCount: 3
Fore
SplineSet
40 898 m 0
 40 915 52 934 90 934 c 0
 150 934 144 932 184 932 c 0
 384 932 438 942 494 942 c 0
 674 942 846 874 846 682 c 0
 846 502 666 491 666 472 c 0
 666 463 724 413 755 356 c 0
 800 274 868 177 904 128 c 0
 943 75 966 65 989 65 c 0
 995 65 1006 71 1016 71 c 0
 1033 71 1034 58 1034 53 c 0
 1034 36 1016 -18 934 -18 c 0
 902 -18 875 -16 824 12 c 0
 704 78 572 426 502 444 c 0
 498 445 402 446 400 446 c 0
 366 446 360 446 360 355 c 0
 360 336 360 313 361 286 c 0
 361 270 362 252 362 232 c 0
 364 104 414 72 460 60 c 0
 500 50 536 54 536 25 c 0
 536 12 528 -1 508 -1 c 0
 501 -1 315 9 300 9 c 0
 229 9 132 -1 116 -1 c 0
 101 -1 90 11 90 29 c 0
 90 58 120 49 149 60 c 0
 170 68 191 87 198 139 c 0
 203 180 204 225 204 273 c 2
 204 371 l 2
 204 620 205 678 205 764 c 0
 205 857 137 870 85 870 c 0
 52 870 40 888 40 898 c 0
358 645 m 2
 358 544 364 503 416 503 c 0
 456 503 450 502 473 502 c 0
 635 502 688 542 688 675 c 0
 688 726 638 874 429 874 c 0
 370 874 358 859 358 781 c 2
 358 645 l 2
EndSplineSet
EndChar

StartChar: s.sc
Encoding: 65571 -1 180
Width: 813
VWidth: 0
Flags: HW
PickledData: "(dp1
S'spacing_anchors_slanted'
p2
I00
s."
HStem: -18 74<304.935 548.338> 884 59<278.726 478.516>
VStem: 80 89<174.956 315.641> 85 124<660.465 822.337> 615 118<126.705 312.543>
AnchorPoint: "top" 393 1025 basechar 0
AnchorPoint: "cedilla" 405 -162 basechar 0
AnchorPoint: "l;bl" 50 40 basechar 0
AnchorPoint: "l;o" 0 450 basechar 0
AnchorPoint: "l;x" 0 850 basechar 0
AnchorPoint: "r;bl" 733 40 basechar 0
AnchorPoint: "r;o" 813 450 basechar 0
AnchorPoint: "r;x" 813 850 basechar 0
LayerCount: 3
Fore
SplineSet
80 293 m 0xe8
 80 313 87 322 104 322 c 0
 142 322 134 287 169 230 c 0xe8
 221 146 318 56 421 56 c 0
 552 56 615 133 615 220 c 0
 615 452 85 368 85 679 c 0
 85 837 214 943 400 943 c 0
 523 943 588 899 607 899 c 0
 615 899 651 920 661 920 c 0
 677 920 688 909 688 831 c 0
 688 762 700 712 700 652 c 0
 700 630 693 626 679 626 c 0
 641 626 643 722 551 806 c 0
 506 848 434 884 377 884 c 0
 280 884 209 814 209 738 c 0xd8
 209 544 733 590 733 282 c 0
 733 74 552 -18 381 -18 c 0
 288 -18 270 -8 213 16 c 0
 196 23 161 36 141 47 c 0
 119 60 80 265 80 293 c 0xe8
EndSplineSet
EndChar

StartChar: t.sc
Encoding: 65572 -1 181
Width: 1062
VWidth: 0
Flags: HW
PickledData: "(dp1
S'spacing_anchors_slanted'
p2
I00
s."
HStem: -2 61<302.641 435.484 661.5 795.985> 847 90<140.582 451.043 607.913 935.617>
VStem: 40 72<666.549 808.982> 452 152<96.3214 846.343>
AnchorPoint: "r;s;aesc" 836 -150 basechar 0
AnchorPoint: "top" 525 1025 basechar 0
AnchorPoint: "cedilla" 545 -162 basechar 0
AnchorPoint: "l;bl" 200 40 basechar 0
AnchorPoint: "l;o" 20 450 basechar 0
AnchorPoint: "l;x" 0 850 basechar 0
AnchorPoint: "r;bl" 882 40 basechar 0
AnchorPoint: "r;o" 1042 450 basechar 0
AnchorPoint: "r;x" 1062 850 basechar 0
LayerCount: 3
Fore
SplineSet
40 718 m 0
 40 782 48 814 56 878 c 0
 60 912 66 947 105 947 c 0
 149 947 105 937 525 937 c 0
 933 937 933 947 978 947 c 0
 1001 947 1013 926 1013 921 c 0
 1013 901 1022 798 1022 784 c 0
 1022 727 1018 716 993 716 c 0
 950 716 1001 843 790 850 c 0
 772 851 731 851 706 851 c 0
 635 851 604 850 604 756 c 0
 604 581 608 501 608 308 c 0
 608 216 610 201 610 198 c 0
 610 63 696 86 764 62 c 0
 783 55 796 46 796 30 c 0
 796 9 791 -4 766 -4 c 0
 726 -4 598 11 548 11 c 0
 509 11 400 -2 352 -2 c 0
 320 -2 302 8 302 24 c 0
 302 38 317 56 336 59 c 0
 388 68 440 42 454 144 c 0
 458 170 459 209 459 254 c 0
 459 299 458 350 458 398 c 0
 458 481 452 556 452 582 c 0
 452 723 451 806 451 806 c 2
 451 829 428 847 401 847 c 2
 354 847 l 2
 137 847 133 806 112 740 c 0
 100 700 101 664 60 664 c 0
 42 664 40 695 40 718 c 0
EndSplineSet
EndChar

StartChar: u.sc
Encoding: 65573 -1 182
Width: 1221
VWidth: 0
Flags: HW
PickledData: "(dp1
S'spacing_anchors_slanted'
p2
I00
s."
HStem: -29 82<496.643 837.921> 880 67<40.1775 194.598 823.039 960.158>
VStem: 209 156<180.022 867.026> 1001 82<279.681 845.354>
AnchorPoint: "top" 645 1025 basechar 0
AnchorPoint: "l;bl" 140 40 basechar 0
AnchorPoint: "l;o" 60 450 basechar 0
AnchorPoint: "l;x" 0 850 basechar 0
AnchorPoint: "r;bl" 1081 40 basechar 0
AnchorPoint: "r;o" 1201 450 basechar 0
AnchorPoint: "r;x" 1221 850 basechar 0
LayerCount: 3
Fore
SplineSet
40 916 m 0
 40 932 55 947 76 947 c 0
 119 947 185 936 270 936 c 0
 329 936 365 942 439 942 c 0
 474 942 484 931 484 914 c 0
 484 850 366 923 366 768 c 0
 366 715 365 639 365 408 c 0
 365 232 398 53 680 53 c 0
 869 53 954 192 974 244 c 0
 998 305 999 383 999 484 c 0
 999 502 1001 629 1001 665 c 0
 1001 858 946 869 888 878 c 0
 849 884 823 881 823 915 c 0
 823 941 877 944 900 944 c 0
 918 944 996 941 1012 941 c 0
 1073 941 1106 948 1133 948 c 0
 1173 948 1181 933 1181 917 c 0
 1181 859 1084 918 1084 792 c 0
 1084 769 1083 739 1083 698 c 0
 1083 510 1080 357 1050 240 c 0
 1024 140 914 -29 668 -29 c 0
 456 -29 209 -15 209 351 c 0
 209 403 210 463 210 534 c 2
 210 774 l 2
 210 867 180 870 92 880 c 0
 55 884 40 900 40 916 c 0
EndSplineSet
EndChar

StartChar: v.sc
Encoding: 65574 -1 183
Width: 1180
VWidth: 0
Flags: HMW
PickledData: "(dp1
S'spacing_anchors_slanted'
p2
I00
s."
HStem: -42 229<553 658> 921 20G<70.5 95.5 192 421.5 779 804 1061 1112.5>
AnchorPoint: "l;bl" 240 40 basechar 0
AnchorPoint: "l;o" 80 450 basechar 0
AnchorPoint: "l;x" 0 850 basechar 0
AnchorPoint: "r;bl" 940 40 basechar 0
AnchorPoint: "r;o" 1080 450 basechar 0
AnchorPoint: "r;x" 1180 850 basechar 0
LayerCount: 3
Fore
SplineSet
40 914 m 0
 40 932 65 941 76 941 c 0
 115 941 133 939 251 939 c 2
 395 939 l 2
 448 939 457 922 457 908 c 0
 457 874 367 875 367 831 c 0
 367 774 404 699 531 411 c 0
 575 310 623 187 641 187 c 0
 672 187 899 740 899 811 c 0
 899 873 740 865 740 913 c 0
 740 925 764 943 794 943 c 0
 814 943 884 935 942 935 c 0
 1005 935 1020 940 1102 940 c 0
 1123 940 1140 927 1140 909 c 0
 1140 875 1099 881 1070 861 c 0
 1035 837 1012 808 1007 798 c 0
 740 203 644 -42 585 -42 c 0
 521 -42 353 457 169 802 c 0
 138 860 40 875 40 914 c 0
EndSplineSet
EndChar

